M48
;Layer_Color=9474304
;FILE_FORMAT=2:4
INCH,LZ
;TYPE=PLATED
T01F00S00C0.0120
T03F00S00C0.0433
T04F00S00C0.0512
;TYPE=NON_PLATED
T05F00S00C0.0256
T06F00S00C0.1250
%
T01
X0028Y0026
X0071Y0035
X0072Y00405
X00675Y0042
X00815Y0039
X00865Y00345
X0099Y003161
X0106Y0034
X0109Y0032
X01185Y00285
X0123Y00275
X01255Y0033
X0134Y00355
X01305Y00455
X013552Y005848
X01405Y00585
Y00735
X0135
X0144Y00805
X0085Y0087
X00716Y009195
X007455Y009491
X00716Y009786
Y010376
X007455Y010081
X006865
X006569Y010376
X006274Y010081
X006569Y009786
Y009195
X006274Y009491
X006865
X00465Y0094
X0046Y0087
X00475Y00815
X00455Y0078
Y00735
X00535Y0062
X0053Y0059
Y0055
X00765Y00535
X0076Y0065
X00775Y00695
X00715
X00665
X0103Y00435
X0095Y00235
Y00175
X0096Y0013
X0095Y0113
X00455Y01125
X00175Y01115
X00165Y0106
X00175Y0084
T03
X012Y0091
Y0101
Y0111
X0131
Y0101
Y0091
X0142
Y0101
Y0111
T04
X001368Y0035
Y0045
Y0058
Y0068
T05
X006262Y002581
X008538
T06
X0015Y0015
X0133
Y0133
X0015
M30
