G04*
G04 #@! TF.GenerationSoftware,Altium Limited,Altium Designer,24.1.2 (44)*
G04*
G04 Layer_Physical_Order=2*
G04 Layer_Color=3707366*
%FSLAX25Y25*%
%MOIN*%
G70*
G04*
G04 #@! TF.SameCoordinates,BB4A674F-8819-4941-915F-785A2CCA7B01*
G04*
G04*
G04 #@! TF.FilePolarity,Positive*
G04*
G01*
G75*
%ADD59C,0.01000*%
%ADD63C,0.02000*%
G04:AMPARAMS|DCode=64|XSize=70.87mil|YSize=39.37mil|CornerRadius=9.84mil|HoleSize=0mil|Usage=FLASHONLY|Rotation=90.000|XOffset=0mil|YOffset=0mil|HoleType=Round|Shape=RoundedRectangle|*
%AMROUNDEDRECTD64*
21,1,0.07087,0.01968,0,0,90.0*
21,1,0.05118,0.03937,0,0,90.0*
1,1,0.01968,0.00984,0.02559*
1,1,0.01968,0.00984,-0.02559*
1,1,0.01968,-0.00984,-0.02559*
1,1,0.01968,-0.00984,0.02559*
%
%ADD64ROUNDEDRECTD64*%
%ADD65O,0.03937X0.08268*%
%ADD66C,0.02559*%
G04:AMPARAMS|DCode=67|XSize=76.77mil|YSize=76.77mil|CornerRadius=19.19mil|HoleSize=0mil|Usage=FLASHONLY|Rotation=270.000|XOffset=0mil|YOffset=0mil|HoleType=Round|Shape=RoundedRectangle|*
%AMROUNDEDRECTD67*
21,1,0.07677,0.03839,0,0,270.0*
21,1,0.03839,0.07677,0,0,270.0*
1,1,0.03839,-0.01919,-0.01919*
1,1,0.03839,-0.01919,0.01919*
1,1,0.03839,0.01919,0.01919*
1,1,0.03839,0.01919,-0.01919*
%
%ADD67ROUNDEDRECTD67*%
%ADD68C,0.07677*%
G04:AMPARAMS|DCode=69|XSize=62.99mil|YSize=62.99mil|CornerRadius=15.75mil|HoleSize=0mil|Usage=FLASHONLY|Rotation=270.000|XOffset=0mil|YOffset=0mil|HoleType=Round|Shape=RoundedRectangle|*
%AMROUNDEDRECTD69*
21,1,0.06299,0.03150,0,0,270.0*
21,1,0.03150,0.06299,0,0,270.0*
1,1,0.03150,-0.01575,-0.01575*
1,1,0.03150,-0.01575,0.01575*
1,1,0.03150,0.01575,0.01575*
1,1,0.03150,0.01575,-0.01575*
%
%ADD69ROUNDEDRECTD69*%
%ADD70C,0.06299*%
%ADD71C,0.20000*%
%ADD72C,0.04000*%
G36*
X148000Y13000D02*
X143699D01*
X143374Y13380D01*
X143500Y14174D01*
Y15826D01*
X143242Y17459D01*
X142731Y19031D01*
X141980Y20503D01*
X141009Y21840D01*
X139840Y23009D01*
X138503Y23980D01*
X137031Y24731D01*
X135459Y25242D01*
X133826Y25500D01*
X132174D01*
X130541Y25242D01*
X128969Y24731D01*
X127497Y23980D01*
X126160Y23009D01*
X124991Y21840D01*
X124020Y20503D01*
X123269Y19031D01*
X122758Y17459D01*
X122500Y15826D01*
Y14174D01*
X122626Y13380D01*
X122301Y13000D01*
X97500D01*
Y13298D01*
X97272Y13850D01*
X96850Y14272D01*
X96298Y14500D01*
X95702D01*
X95150Y14272D01*
X94728Y13850D01*
X94500Y13298D01*
X94015Y13335D01*
Y13878D01*
X93861Y14652D01*
X93423Y15308D01*
X92766Y15747D01*
X91992Y15901D01*
X91508D01*
Y11319D01*
X90508D01*
Y15901D01*
X90024D01*
X89249Y15747D01*
X88593Y15308D01*
X88155Y14652D01*
X88001Y13878D01*
Y13000D01*
X60000D01*
Y13878D01*
X59846Y14652D01*
X59407Y15308D01*
X58751Y15747D01*
X57976Y15901D01*
X57492D01*
Y11319D01*
X56492D01*
Y15901D01*
X56008D01*
X55234Y15747D01*
X54577Y15308D01*
X54139Y14652D01*
X53985Y13878D01*
Y13000D01*
X25699D01*
X25374Y13380D01*
X25500Y14174D01*
Y15826D01*
X25242Y17459D01*
X24731Y19031D01*
X23980Y20503D01*
X23009Y21840D01*
X21840Y23009D01*
X20503Y23980D01*
X19031Y24731D01*
X17459Y25242D01*
X15826Y25500D01*
X14174D01*
X12541Y25242D01*
X10969Y24731D01*
X9497Y23980D01*
X8160Y23009D01*
X6991Y21840D01*
X6020Y20503D01*
X5269Y19031D01*
X4758Y17459D01*
X4500Y15826D01*
Y14174D01*
X4626Y13380D01*
X4301Y13000D01*
X0D01*
Y122000D01*
X148000D01*
Y13000D01*
D02*
G37*
%LPC*%
G36*
X95500Y114958D02*
Y113500D01*
X96958D01*
X96696Y114133D01*
X96133Y114696D01*
X95500Y114958D01*
D02*
G37*
G36*
X94500D02*
X93867Y114696D01*
X93305Y114133D01*
X93042Y113500D01*
X94500D01*
Y114958D01*
D02*
G37*
G36*
X96958Y112500D02*
X95500D01*
Y111042D01*
X96133Y111304D01*
X96696Y111867D01*
X96958Y112500D01*
D02*
G37*
G36*
X94500D02*
X93042D01*
X93305Y111867D01*
X93867Y111304D01*
X94500Y111042D01*
Y112500D01*
D02*
G37*
G36*
X45798Y114000D02*
X45202D01*
X44650Y113772D01*
X44228Y113350D01*
X44000Y112798D01*
Y112202D01*
X44228Y111650D01*
X44650Y111228D01*
X45202Y111000D01*
X45798D01*
X46350Y111228D01*
X46772Y111650D01*
X47000Y112202D01*
Y112798D01*
X46772Y113350D01*
X46350Y113772D01*
X45798Y114000D01*
D02*
G37*
G36*
X17798Y113000D02*
X17202D01*
X16650Y112772D01*
X16228Y112350D01*
X16000Y111798D01*
Y111202D01*
X16228Y110650D01*
X16650Y110228D01*
X17202Y110000D01*
X17798D01*
X18350Y110228D01*
X18772Y110650D01*
X19000Y111202D01*
Y111798D01*
X18772Y112350D01*
X18350Y112772D01*
X17798Y113000D01*
D02*
G37*
G36*
X143575Y114690D02*
X140425D01*
X139616Y114529D01*
X138929Y114071D01*
X138471Y113384D01*
X138310Y112575D01*
Y109425D01*
X138471Y108616D01*
X138929Y107929D01*
X139616Y107471D01*
X140425Y107310D01*
X143575D01*
X144384Y107471D01*
X145071Y107929D01*
X145529Y108616D01*
X145690Y109425D01*
Y112575D01*
X145529Y113384D01*
X145071Y114071D01*
X144384Y114529D01*
X143575Y114690D01*
D02*
G37*
G36*
X132575D02*
X129425D01*
X128616Y114529D01*
X127929Y114071D01*
X127471Y113384D01*
X127310Y112575D01*
Y109425D01*
X127471Y108616D01*
X127929Y107929D01*
X128616Y107471D01*
X129425Y107310D01*
X132575D01*
X133384Y107471D01*
X134071Y107929D01*
X134529Y108616D01*
X134690Y109425D01*
Y112575D01*
X134529Y113384D01*
X134071Y114071D01*
X133384Y114529D01*
X132575Y114690D01*
D02*
G37*
G36*
X121575D02*
X118425D01*
X117616Y114529D01*
X116929Y114071D01*
X116471Y113384D01*
X116310Y112575D01*
Y109425D01*
X116471Y108616D01*
X116929Y107929D01*
X117616Y107471D01*
X118425Y107310D01*
X121575D01*
X122384Y107471D01*
X123071Y107929D01*
X123529Y108616D01*
X123690Y109425D01*
Y112575D01*
X123529Y113384D01*
X123071Y114071D01*
X122384Y114529D01*
X121575Y114690D01*
D02*
G37*
G36*
X17000Y107958D02*
Y106500D01*
X18458D01*
X18195Y107133D01*
X17633Y107695D01*
X17000Y107958D01*
D02*
G37*
G36*
X16000D02*
X15367Y107695D01*
X14805Y107133D01*
X14542Y106500D01*
X16000D01*
Y107958D01*
D02*
G37*
G36*
X72098Y105721D02*
Y104264D01*
X73556D01*
X73294Y104897D01*
X72731Y105459D01*
X72098Y105721D01*
D02*
G37*
G36*
X71098D02*
X70465Y105459D01*
X69903Y104897D01*
X69641Y104264D01*
X71098D01*
Y105721D01*
D02*
G37*
G36*
X66193D02*
Y104264D01*
X67651D01*
X67388Y104897D01*
X66826Y105459D01*
X66193Y105721D01*
D02*
G37*
G36*
X65193D02*
X64560Y105459D01*
X63997Y104897D01*
X63735Y104264D01*
X65193D01*
Y105721D01*
D02*
G37*
G36*
X18458Y105500D02*
X17000D01*
Y104042D01*
X17633Y104305D01*
X18195Y104867D01*
X18458Y105500D01*
D02*
G37*
G36*
X16000D02*
X14542D01*
X14805Y104867D01*
X15367Y104305D01*
X16000Y104042D01*
Y105500D01*
D02*
G37*
G36*
X73556Y103264D02*
X69641D01*
X69720Y103072D01*
X69337Y102689D01*
X69146Y102769D01*
Y100811D01*
X68146D01*
Y102769D01*
X67954Y102689D01*
X67571Y103072D01*
X67651Y103264D01*
X63735D01*
X63815Y103072D01*
X63432Y102689D01*
X63240Y102769D01*
Y100811D01*
Y98853D01*
X63432Y98933D01*
X63815Y98550D01*
X63735Y98358D01*
X65693D01*
Y97358D01*
X63735D01*
X63815Y97166D01*
X63432Y96784D01*
X63240Y96863D01*
Y94906D01*
Y92948D01*
X63432Y93027D01*
X63815Y92645D01*
X63735Y92453D01*
X67651D01*
X67571Y92645D01*
X67954Y93027D01*
X68146Y92948D01*
Y94906D01*
X69146D01*
Y92948D01*
X69337Y93027D01*
X69720Y92645D01*
X69641Y92453D01*
X73556D01*
X73477Y92645D01*
X73859Y93027D01*
X74051Y92948D01*
Y94906D01*
Y96863D01*
X73859Y96784D01*
X73477Y97166D01*
X73556Y97358D01*
X71598D01*
Y98358D01*
X73556D01*
X73477Y98550D01*
X73859Y98933D01*
X74051Y98853D01*
Y100811D01*
Y102769D01*
X73859Y102689D01*
X73477Y103072D01*
X73556Y103264D01*
D02*
G37*
G36*
X75051Y102769D02*
Y101311D01*
X76509D01*
X76247Y101944D01*
X75684Y102506D01*
X75051Y102769D01*
D02*
G37*
G36*
X62240D02*
X61607Y102506D01*
X61045Y101944D01*
X60782Y101311D01*
X62240D01*
Y102769D01*
D02*
G37*
G36*
X76509Y100311D02*
X75051D01*
Y98853D01*
X75684Y99116D01*
X76247Y99678D01*
X76509Y100311D01*
D02*
G37*
G36*
X62240D02*
X60782D01*
X61045Y99678D01*
X61607Y99116D01*
X62240Y98853D01*
Y100311D01*
D02*
G37*
G36*
X142481Y104650D02*
X141519D01*
X140591Y104401D01*
X139759Y103920D01*
X139080Y103241D01*
X138599Y102409D01*
X138350Y101480D01*
Y100520D01*
X138599Y99591D01*
X139080Y98759D01*
X139759Y98080D01*
X140591Y97599D01*
X141519Y97350D01*
X142481D01*
X143409Y97599D01*
X144241Y98080D01*
X144920Y98759D01*
X145401Y99591D01*
X145650Y100520D01*
Y101480D01*
X145401Y102409D01*
X144920Y103241D01*
X144241Y103920D01*
X143409Y104401D01*
X142481Y104650D01*
D02*
G37*
G36*
X131481D02*
X130519D01*
X129591Y104401D01*
X128759Y103920D01*
X128080Y103241D01*
X127599Y102409D01*
X127350Y101480D01*
Y100520D01*
X127599Y99591D01*
X128080Y98759D01*
X128759Y98080D01*
X129591Y97599D01*
X130519Y97350D01*
X131481D01*
X132409Y97599D01*
X133241Y98080D01*
X133920Y98759D01*
X134401Y99591D01*
X134650Y100520D01*
Y101480D01*
X134401Y102409D01*
X133920Y103241D01*
X133241Y103920D01*
X132409Y104401D01*
X131481Y104650D01*
D02*
G37*
G36*
X120481D02*
X119519D01*
X118591Y104401D01*
X117759Y103920D01*
X117080Y103241D01*
X116599Y102409D01*
X116350Y101480D01*
Y100520D01*
X116599Y99591D01*
X117080Y98759D01*
X117759Y98080D01*
X118591Y97599D01*
X119519Y97350D01*
X120481D01*
X121409Y97599D01*
X122241Y98080D01*
X122920Y98759D01*
X123401Y99591D01*
X123650Y100520D01*
Y101480D01*
X123401Y102409D01*
X122920Y103241D01*
X122241Y103920D01*
X121409Y104401D01*
X120481Y104650D01*
D02*
G37*
G36*
X75051Y96863D02*
Y95406D01*
X76509D01*
X76247Y96038D01*
X75684Y96601D01*
X75051Y96863D01*
D02*
G37*
G36*
X62240D02*
X61607Y96601D01*
X61045Y96038D01*
X60782Y95406D01*
X62240D01*
Y96863D01*
D02*
G37*
G36*
X76509Y94406D02*
X75051D01*
Y92948D01*
X75684Y93210D01*
X76247Y93773D01*
X76509Y94406D01*
D02*
G37*
G36*
X62240D02*
X60782D01*
X61045Y93773D01*
X61607Y93210D01*
X62240Y92948D01*
Y94406D01*
D02*
G37*
G36*
X46798Y95500D02*
X46202D01*
X45650Y95272D01*
X45228Y94850D01*
X45000Y94298D01*
Y93702D01*
X45228Y93150D01*
X45650Y92728D01*
X46202Y92500D01*
X46798D01*
X47350Y92728D01*
X47772Y93150D01*
X48000Y93702D01*
Y94298D01*
X47772Y94850D01*
X47350Y95272D01*
X46798Y95500D01*
D02*
G37*
G36*
X142546Y95150D02*
X142500D01*
Y91500D01*
X146150D01*
Y91546D01*
X145867Y92602D01*
X145320Y93548D01*
X144548Y94320D01*
X143602Y94867D01*
X142546Y95150D01*
D02*
G37*
G36*
X131546D02*
X131500D01*
Y91500D01*
X135150D01*
Y91546D01*
X134867Y92602D01*
X134320Y93548D01*
X133548Y94320D01*
X132602Y94867D01*
X131546Y95150D01*
D02*
G37*
G36*
X120546D02*
X120500D01*
Y91500D01*
X124150D01*
Y91546D01*
X123867Y92602D01*
X123320Y93548D01*
X122548Y94320D01*
X121602Y94867D01*
X120546Y95150D01*
D02*
G37*
G36*
X119500D02*
X119454D01*
X118398Y94867D01*
X117452Y94320D01*
X116680Y93548D01*
X116133Y92602D01*
X115850Y91546D01*
Y91500D01*
X119500D01*
Y95150D01*
D02*
G37*
G36*
X141500D02*
X141454D01*
X140398Y94867D01*
X139452Y94320D01*
X138680Y93548D01*
X138133Y92602D01*
X137850Y91546D01*
Y91500D01*
X141500D01*
Y95150D01*
D02*
G37*
G36*
X130500D02*
X130454D01*
X129398Y94867D01*
X128452Y94320D01*
X127680Y93548D01*
X127133Y92602D01*
X126850Y91546D01*
Y91500D01*
X130500D01*
Y95150D01*
D02*
G37*
G36*
X73556Y91453D02*
X72098D01*
Y89995D01*
X72731Y90257D01*
X73294Y90820D01*
X73556Y91453D01*
D02*
G37*
G36*
X71098D02*
X69641D01*
X69903Y90820D01*
X70465Y90257D01*
X71098Y89995D01*
Y91453D01*
D02*
G37*
G36*
X67651D02*
X66193D01*
Y89995D01*
X66826Y90257D01*
X67388Y90820D01*
X67651Y91453D01*
D02*
G37*
G36*
X65193D02*
X63735D01*
X63997Y90820D01*
X64560Y90257D01*
X65193Y89995D01*
Y91453D01*
D02*
G37*
G36*
X146150Y90500D02*
X142500D01*
Y86850D01*
X142546D01*
X143602Y87133D01*
X144548Y87679D01*
X145320Y88452D01*
X145867Y89398D01*
X146150Y90454D01*
Y90500D01*
D02*
G37*
G36*
X141500D02*
X137850D01*
Y90454D01*
X138133Y89398D01*
X138680Y88452D01*
X139452Y87679D01*
X140398Y87133D01*
X141454Y86850D01*
X141500D01*
Y90500D01*
D02*
G37*
G36*
X135150D02*
X131500D01*
Y86850D01*
X131546D01*
X132602Y87133D01*
X133548Y87679D01*
X134320Y88452D01*
X134867Y89398D01*
X135150Y90454D01*
Y90500D01*
D02*
G37*
G36*
X130500D02*
X126850D01*
Y90454D01*
X127133Y89398D01*
X127680Y88452D01*
X128452Y87679D01*
X129398Y87133D01*
X130454Y86850D01*
X130500D01*
Y90500D01*
D02*
G37*
G36*
X124150D02*
X120500D01*
Y86850D01*
X120546D01*
X121602Y87133D01*
X122548Y87679D01*
X123320Y88452D01*
X123867Y89398D01*
X124150Y90454D01*
Y90500D01*
D02*
G37*
G36*
X119500D02*
X115850D01*
Y90454D01*
X116133Y89398D01*
X116680Y88452D01*
X117452Y87679D01*
X118398Y87133D01*
X119454Y86850D01*
X119500D01*
Y90500D01*
D02*
G37*
G36*
X85298Y88500D02*
X84702D01*
X84150Y88272D01*
X83728Y87850D01*
X83500Y87298D01*
Y86702D01*
X83728Y86150D01*
X84150Y85728D01*
X84702Y85500D01*
X85298D01*
X85850Y85728D01*
X86272Y86150D01*
X86500Y86702D01*
Y87298D01*
X86272Y87850D01*
X85850Y88272D01*
X85298Y88500D01*
D02*
G37*
G36*
X46298D02*
X45702D01*
X45150Y88272D01*
X44728Y87850D01*
X44500Y87298D01*
Y86702D01*
X44728Y86150D01*
X45150Y85728D01*
X45702Y85500D01*
X46298D01*
X46850Y85728D01*
X47272Y86150D01*
X47500Y86702D01*
Y87298D01*
X47272Y87850D01*
X46850Y88272D01*
X46298Y88500D01*
D02*
G37*
G36*
X18000Y85958D02*
Y84500D01*
X19458D01*
X19196Y85133D01*
X18633Y85695D01*
X18000Y85958D01*
D02*
G37*
G36*
X17000D02*
X16367Y85695D01*
X15804Y85133D01*
X15542Y84500D01*
X17000D01*
Y85958D01*
D02*
G37*
G36*
X19458Y83500D02*
X18000D01*
Y82042D01*
X18633Y82305D01*
X19196Y82867D01*
X19458Y83500D01*
D02*
G37*
G36*
X17000D02*
X15542D01*
X15804Y82867D01*
X16367Y82305D01*
X17000Y82042D01*
Y83500D01*
D02*
G37*
G36*
X144500Y82458D02*
Y81000D01*
X145958D01*
X145695Y81633D01*
X145133Y82196D01*
X144500Y82458D01*
D02*
G37*
G36*
X143500D02*
X142867Y82196D01*
X142305Y81633D01*
X142042Y81000D01*
X143500D01*
Y82458D01*
D02*
G37*
G36*
X47798Y83000D02*
X47202D01*
X46650Y82772D01*
X46228Y82350D01*
X46000Y81798D01*
Y81202D01*
X46228Y80650D01*
X46650Y80228D01*
X47202Y80000D01*
X47798D01*
X48350Y80228D01*
X48772Y80650D01*
X49000Y81202D01*
Y81798D01*
X48772Y82350D01*
X48350Y82772D01*
X47798Y83000D01*
D02*
G37*
G36*
X145958Y80000D02*
X144500D01*
Y78542D01*
X145133Y78804D01*
X145695Y79367D01*
X145958Y80000D01*
D02*
G37*
G36*
X143500D02*
X142042D01*
X142305Y79367D01*
X142867Y78804D01*
X143500Y78542D01*
Y80000D01*
D02*
G37*
G36*
X45798Y79500D02*
X45202D01*
X44650Y79272D01*
X44228Y78850D01*
X44000Y78298D01*
Y77702D01*
X44228Y77150D01*
X44650Y76728D01*
X45202Y76500D01*
X45798D01*
X46350Y76728D01*
X46772Y77150D01*
X47000Y77702D01*
Y78298D01*
X46772Y78850D01*
X46350Y79272D01*
X45798Y79500D01*
D02*
G37*
G36*
X141000Y75458D02*
Y74000D01*
X142458D01*
X142195Y74633D01*
X141633Y75195D01*
X141000Y75458D01*
D02*
G37*
G36*
X140000D02*
X139367Y75195D01*
X138804Y74633D01*
X138542Y74000D01*
X140000D01*
Y75458D01*
D02*
G37*
G36*
X135298Y75000D02*
X134702D01*
X134150Y74772D01*
X133728Y74350D01*
X133500Y73798D01*
Y73202D01*
X133728Y72650D01*
X134150Y72228D01*
X134702Y72000D01*
X135298D01*
X135850Y72228D01*
X136272Y72650D01*
X136500Y73202D01*
Y73798D01*
X136272Y74350D01*
X135850Y74772D01*
X135298Y75000D01*
D02*
G37*
G36*
X45798D02*
X45202D01*
X44650Y74772D01*
X44228Y74350D01*
X44000Y73798D01*
Y73202D01*
X44228Y72650D01*
X44650Y72228D01*
X45202Y72000D01*
X45798D01*
X46350Y72228D01*
X46772Y72650D01*
X47000Y73202D01*
Y73798D01*
X46772Y74350D01*
X46350Y74772D01*
X45798Y75000D01*
D02*
G37*
G36*
X142458Y73000D02*
X141000D01*
Y71542D01*
X141633Y71804D01*
X142195Y72367D01*
X142458Y73000D01*
D02*
G37*
G36*
X140000D02*
X138542D01*
X138804Y72367D01*
X139367Y71804D01*
X140000Y71542D01*
Y73000D01*
D02*
G37*
G36*
X77798Y71000D02*
X77202D01*
X76650Y70772D01*
X76228Y70350D01*
X76000Y69798D01*
Y69202D01*
X76228Y68650D01*
X76650Y68228D01*
X77202Y68000D01*
X77798D01*
X78350Y68228D01*
X78772Y68650D01*
X79000Y69202D01*
Y69798D01*
X78772Y70350D01*
X78350Y70772D01*
X77798Y71000D01*
D02*
G37*
G36*
X71798D02*
X71202D01*
X70650Y70772D01*
X70228Y70350D01*
X70000Y69798D01*
Y69202D01*
X70228Y68650D01*
X70650Y68228D01*
X71202Y68000D01*
X71798D01*
X72350Y68228D01*
X72772Y68650D01*
X73000Y69202D01*
Y69798D01*
X72772Y70350D01*
X72350Y70772D01*
X71798Y71000D01*
D02*
G37*
G36*
X66798D02*
X66202D01*
X65650Y70772D01*
X65228Y70350D01*
X65000Y69798D01*
Y69202D01*
X65228Y68650D01*
X65650Y68228D01*
X66202Y68000D01*
X66798D01*
X67350Y68228D01*
X67772Y68650D01*
X68000Y69202D01*
Y69798D01*
X67772Y70350D01*
X67350Y70772D01*
X66798Y71000D01*
D02*
G37*
G36*
X15600Y72386D02*
X11762D01*
X10818Y72198D01*
X10018Y71663D01*
X9483Y70863D01*
X9295Y69919D01*
Y66081D01*
X9483Y65137D01*
X10018Y64337D01*
X10818Y63802D01*
X11762Y63614D01*
X15600D01*
X16544Y63802D01*
X17345Y64337D01*
X17879Y65137D01*
X18067Y66081D01*
Y69919D01*
X17879Y70863D01*
X17345Y71663D01*
X16544Y72198D01*
X15600Y72386D01*
D02*
G37*
G36*
X76298Y66500D02*
X75702D01*
X75150Y66272D01*
X74728Y65850D01*
X74500Y65298D01*
Y64702D01*
X74728Y64150D01*
X75150Y63728D01*
X75702Y63500D01*
X76298D01*
X76850Y63728D01*
X77272Y64150D01*
X77500Y64702D01*
Y65298D01*
X77272Y65850D01*
X76850Y66272D01*
X76298Y66500D01*
D02*
G37*
G36*
X141000Y60458D02*
Y59000D01*
X142458D01*
X142195Y59633D01*
X141633Y60195D01*
X141000Y60458D01*
D02*
G37*
G36*
X140000D02*
X139367Y60195D01*
X138804Y59633D01*
X138542Y59000D01*
X140000D01*
Y60458D01*
D02*
G37*
G36*
X53798Y63500D02*
X53202D01*
X52650Y63272D01*
X52228Y62850D01*
X52000Y62298D01*
Y61702D01*
X52228Y61150D01*
X52444Y60935D01*
X52348Y60353D01*
X52150Y60272D01*
X51728Y59850D01*
X51500Y59298D01*
Y58702D01*
X51728Y58150D01*
X52150Y57728D01*
X52702Y57500D01*
X53298D01*
X53850Y57728D01*
X54272Y58150D01*
X54500Y58702D01*
Y59298D01*
X54272Y59850D01*
X54056Y60066D01*
X54152Y60646D01*
X54350Y60728D01*
X54772Y61150D01*
X55000Y61702D01*
Y62298D01*
X54772Y62850D01*
X54350Y63272D01*
X53798Y63500D01*
D02*
G37*
G36*
X135818Y59980D02*
X135221D01*
X134670Y59752D01*
X134248Y59330D01*
X134020Y58779D01*
Y58182D01*
X134248Y57631D01*
X134670Y57209D01*
X135221Y56980D01*
X135818D01*
X136369Y57209D01*
X136791Y57631D01*
X137020Y58182D01*
Y58779D01*
X136791Y59330D01*
X136369Y59752D01*
X135818Y59980D01*
D02*
G37*
G36*
X142458Y58000D02*
X141000D01*
Y56542D01*
X141633Y56805D01*
X142195Y57367D01*
X142458Y58000D01*
D02*
G37*
G36*
X140000D02*
X138542D01*
X138804Y57367D01*
X139367Y56805D01*
X140000Y56542D01*
Y58000D01*
D02*
G37*
G36*
X14252Y62339D02*
X13110D01*
X12007Y62043D01*
X11017Y61472D01*
X10209Y60664D01*
X9638Y59675D01*
X9342Y58571D01*
Y57429D01*
X9638Y56325D01*
X10209Y55336D01*
X11017Y54528D01*
X12007Y53957D01*
X13110Y53661D01*
X14252D01*
X15356Y53957D01*
X16345Y54528D01*
X17153Y55336D01*
X17724Y56325D01*
X18020Y57429D01*
Y58571D01*
X17724Y59675D01*
X17153Y60664D01*
X16345Y61472D01*
X15356Y62043D01*
X14252Y62339D01*
D02*
G37*
G36*
X53298Y56500D02*
X52702D01*
X52150Y56272D01*
X51728Y55850D01*
X51500Y55298D01*
Y54702D01*
X51728Y54150D01*
X52150Y53728D01*
X52702Y53500D01*
X53298D01*
X53850Y53728D01*
X54272Y54150D01*
X54500Y54702D01*
Y55298D01*
X54272Y55850D01*
X53850Y56272D01*
X53298Y56500D01*
D02*
G37*
G36*
X76798Y55000D02*
X76202D01*
X75650Y54772D01*
X75228Y54350D01*
X75000Y53798D01*
Y53202D01*
X75228Y52650D01*
X75650Y52228D01*
X76202Y52000D01*
X76798D01*
X77350Y52228D01*
X77772Y52650D01*
X78000Y53202D01*
Y53798D01*
X77772Y54350D01*
X77350Y54772D01*
X76798Y55000D01*
D02*
G37*
G36*
X130798Y47000D02*
X130202D01*
X129650Y46772D01*
X129228Y46350D01*
X129000Y45798D01*
Y45202D01*
X129228Y44650D01*
X129650Y44228D01*
X130202Y44000D01*
X130798D01*
X131350Y44228D01*
X131772Y44650D01*
X132000Y45202D01*
Y45798D01*
X131772Y46350D01*
X131350Y46772D01*
X130798Y47000D01*
D02*
G37*
G36*
X103500Y45458D02*
Y44000D01*
X104958D01*
X104695Y44633D01*
X104133Y45195D01*
X103500Y45458D01*
D02*
G37*
G36*
X102500D02*
X101867Y45195D01*
X101304Y44633D01*
X101042Y44000D01*
X102500D01*
Y45458D01*
D02*
G37*
G36*
X104958Y43000D02*
X103500D01*
Y41542D01*
X104133Y41805D01*
X104695Y42367D01*
X104958Y43000D01*
D02*
G37*
G36*
X102500D02*
X101042D01*
X101304Y42367D01*
X101867Y41805D01*
X102500Y41542D01*
Y43000D01*
D02*
G37*
G36*
X15600Y49386D02*
X11762D01*
X10818Y49198D01*
X10018Y48663D01*
X9483Y47863D01*
X9295Y46919D01*
Y43081D01*
X9483Y42137D01*
X10018Y41337D01*
X10818Y40802D01*
X11762Y40614D01*
X15600D01*
X16544Y40802D01*
X17345Y41337D01*
X17879Y42137D01*
X18067Y43081D01*
Y46919D01*
X17879Y47863D01*
X17345Y48663D01*
X16544Y49198D01*
X15600Y49386D01*
D02*
G37*
G36*
X67798Y43500D02*
X67202D01*
X66650Y43272D01*
X66228Y42850D01*
X66000Y42298D01*
Y41702D01*
X66228Y41150D01*
X66650Y40728D01*
X67202Y40500D01*
X67798D01*
X68350Y40728D01*
X68772Y41150D01*
X69000Y41702D01*
Y42298D01*
X68772Y42850D01*
X68350Y43272D01*
X67798Y43500D01*
D02*
G37*
G36*
X72298Y42000D02*
X71702D01*
X71150Y41772D01*
X70728Y41350D01*
X70500Y40798D01*
Y40202D01*
X70728Y39650D01*
X71150Y39228D01*
X71702Y39000D01*
X72298D01*
X72850Y39228D01*
X73272Y39650D01*
X73500Y40202D01*
Y40798D01*
X73272Y41350D01*
X72850Y41772D01*
X72298Y42000D01*
D02*
G37*
G36*
X81798Y40500D02*
X81202D01*
X80650Y40272D01*
X80228Y39850D01*
X80000Y39298D01*
Y38702D01*
X80228Y38150D01*
X80650Y37728D01*
X81202Y37500D01*
X81798D01*
X82350Y37728D01*
X82772Y38150D01*
X83000Y38702D01*
Y39298D01*
X82772Y39850D01*
X82350Y40272D01*
X81798Y40500D01*
D02*
G37*
G36*
X134500Y37458D02*
Y36000D01*
X135958D01*
X135696Y36633D01*
X135133Y37196D01*
X134500Y37458D01*
D02*
G37*
G36*
X133500D02*
X132867Y37196D01*
X132305Y36633D01*
X132042Y36000D01*
X133500D01*
Y37458D01*
D02*
G37*
G36*
X135958Y35000D02*
X134500D01*
Y33542D01*
X135133Y33805D01*
X135696Y34367D01*
X135958Y35000D01*
D02*
G37*
G36*
X133500D02*
X132042D01*
X132305Y34367D01*
X132867Y33805D01*
X133500Y33542D01*
Y35000D01*
D02*
G37*
G36*
X71298Y36500D02*
X70702D01*
X70150Y36272D01*
X69728Y35850D01*
X69500Y35298D01*
Y34702D01*
X69728Y34150D01*
X70150Y33728D01*
X70702Y33500D01*
X71298D01*
X71850Y33728D01*
X72272Y34150D01*
X72500Y34702D01*
Y35298D01*
X72272Y35850D01*
X71850Y36272D01*
X71298Y36500D01*
D02*
G37*
G36*
X86798Y36000D02*
X86202D01*
X85650Y35772D01*
X85228Y35350D01*
X85000Y34798D01*
Y34202D01*
X85228Y33650D01*
X85650Y33228D01*
X86202Y33000D01*
X86798D01*
X87350Y33228D01*
X87772Y33650D01*
X88000Y34202D01*
Y34798D01*
X87772Y35350D01*
X87350Y35772D01*
X86798Y36000D01*
D02*
G37*
G36*
X106298Y35500D02*
X105702D01*
X105150Y35272D01*
X104728Y34850D01*
X104500Y34298D01*
Y33702D01*
X104728Y33150D01*
X105150Y32728D01*
X105702Y32500D01*
X106298D01*
X106850Y32728D01*
X107272Y33150D01*
X107500Y33702D01*
Y34298D01*
X107272Y34850D01*
X106850Y35272D01*
X106298Y35500D01*
D02*
G37*
G36*
X125798Y34500D02*
X125202D01*
X124650Y34272D01*
X124228Y33850D01*
X124000Y33298D01*
Y32702D01*
X124228Y32150D01*
X124650Y31728D01*
X125202Y31500D01*
X125798D01*
X126350Y31728D01*
X126772Y32150D01*
X127000Y32702D01*
Y33298D01*
X126772Y33850D01*
X126350Y34272D01*
X125798Y34500D01*
D02*
G37*
G36*
X14252Y39339D02*
X13110D01*
X12007Y39043D01*
X11017Y38472D01*
X10209Y37664D01*
X9638Y36675D01*
X9342Y35571D01*
Y34429D01*
X9638Y33325D01*
X10209Y32336D01*
X11017Y31528D01*
X12007Y30957D01*
X13110Y30661D01*
X14252D01*
X15356Y30957D01*
X16345Y31528D01*
X17153Y32336D01*
X17724Y33325D01*
X18020Y34429D01*
Y35571D01*
X17724Y36675D01*
X17153Y37664D01*
X16345Y38472D01*
X15356Y39043D01*
X14252Y39339D01*
D02*
G37*
G36*
X109298Y33500D02*
X108702D01*
X108150Y33272D01*
X107728Y32850D01*
X107500Y32298D01*
Y31702D01*
X107728Y31150D01*
X108150Y30728D01*
X108702Y30500D01*
X109298D01*
X109850Y30728D01*
X110272Y31150D01*
X110500Y31702D01*
Y32298D01*
X110272Y32850D01*
X109850Y33272D01*
X109298Y33500D01*
D02*
G37*
G36*
X99298Y33106D02*
X98702D01*
X98150Y32878D01*
X97728Y32456D01*
X97500Y31905D01*
Y31308D01*
X97728Y30757D01*
X98150Y30335D01*
X98702Y30106D01*
X99298D01*
X99850Y30335D01*
X100272Y30757D01*
X100500Y31308D01*
Y31905D01*
X100272Y32456D01*
X99850Y32878D01*
X99298Y33106D01*
D02*
G37*
G36*
X119000Y30458D02*
Y29000D01*
X120458D01*
X120195Y29633D01*
X119633Y30196D01*
X119000Y30458D01*
D02*
G37*
G36*
X118000D02*
X117367Y30196D01*
X116805Y29633D01*
X116542Y29000D01*
X118000D01*
Y30458D01*
D02*
G37*
G36*
X91508Y32869D02*
Y28276D01*
X94002D01*
Y29941D01*
X93900Y30716D01*
X93601Y31438D01*
X93125Y32058D01*
X92505Y32534D01*
X91783Y32833D01*
X91508Y32869D01*
D02*
G37*
G36*
X57492D02*
Y28276D01*
X59986D01*
Y29941D01*
X59884Y30716D01*
X59585Y31438D01*
X59109Y32058D01*
X58489Y32534D01*
X57767Y32833D01*
X57492Y32869D01*
D02*
G37*
G36*
X56492D02*
X56217Y32833D01*
X55495Y32534D01*
X54875Y32058D01*
X54399Y31438D01*
X54100Y30716D01*
X53998Y29941D01*
Y28276D01*
X56492D01*
Y32869D01*
D02*
G37*
G36*
X90508D02*
X90233Y32833D01*
X89511Y32534D01*
X88891Y32058D01*
X88415Y31438D01*
X88116Y30716D01*
X88014Y29941D01*
Y28276D01*
X90508D01*
Y32869D01*
D02*
G37*
G36*
X120458Y28000D02*
X119000D01*
Y26542D01*
X119633Y26805D01*
X120195Y27367D01*
X120458Y28000D01*
D02*
G37*
G36*
X118000D02*
X116542D01*
X116805Y27367D01*
X117367Y26805D01*
X118000Y26542D01*
Y28000D01*
D02*
G37*
G36*
X123298Y29000D02*
X122702D01*
X122150Y28772D01*
X121728Y28350D01*
X121500Y27798D01*
Y27202D01*
X121728Y26650D01*
X122150Y26228D01*
X122702Y26000D01*
X123298D01*
X123850Y26228D01*
X124272Y26650D01*
X124500Y27202D01*
Y27798D01*
X124272Y28350D01*
X123850Y28772D01*
X123298Y29000D01*
D02*
G37*
G36*
X28298Y27500D02*
X27702D01*
X27150Y27272D01*
X26728Y26850D01*
X26500Y26298D01*
Y25702D01*
X26728Y25150D01*
X27150Y24728D01*
X27702Y24500D01*
X28298D01*
X28850Y24728D01*
X29272Y25150D01*
X29500Y25702D01*
Y26298D01*
X29272Y26850D01*
X28850Y27272D01*
X28298Y27500D01*
D02*
G37*
G36*
X85732Y27587D02*
X85024D01*
X84370Y27316D01*
X83869Y26815D01*
X83598Y26161D01*
Y25453D01*
X83869Y24799D01*
X84370Y24298D01*
X85024Y24028D01*
X85732D01*
X86386Y24298D01*
X86887Y24799D01*
X87157Y25453D01*
Y26161D01*
X86887Y26815D01*
X86386Y27316D01*
X85732Y27587D01*
D02*
G37*
G36*
X62976D02*
X62268D01*
X61614Y27316D01*
X61113Y26815D01*
X60843Y26161D01*
Y25453D01*
X61113Y24799D01*
X61614Y24298D01*
X62268Y24028D01*
X62976D01*
X63630Y24298D01*
X64131Y24799D01*
X64402Y25453D01*
Y26161D01*
X64131Y26815D01*
X63630Y27316D01*
X62976Y27587D01*
D02*
G37*
G36*
X59986Y27276D02*
X57492D01*
Y22682D01*
X57767Y22718D01*
X58489Y23017D01*
X59109Y23493D01*
X59585Y24113D01*
X59884Y24835D01*
X59986Y25610D01*
Y27276D01*
D02*
G37*
G36*
X90508D02*
X88014D01*
Y25610D01*
X88116Y24835D01*
X88415Y24113D01*
X88891Y23493D01*
X89511Y23017D01*
X90233Y22718D01*
X90508Y22682D01*
Y27276D01*
D02*
G37*
G36*
X56492D02*
X53998D01*
Y25610D01*
X54100Y24835D01*
X54399Y24113D01*
X54875Y23493D01*
X55495Y23017D01*
X56217Y22718D01*
X56492Y22682D01*
Y27276D01*
D02*
G37*
G36*
X94002D02*
X91508D01*
Y22682D01*
X91783Y22718D01*
X92505Y23017D01*
X93000Y23397D01*
X93459Y23233D01*
X93500Y23202D01*
X93728Y22650D01*
X94150Y22228D01*
X94702Y22000D01*
X95298D01*
X95850Y22228D01*
X96272Y22650D01*
X96500Y23202D01*
Y23798D01*
X96272Y24350D01*
X95850Y24772D01*
X95298Y25000D01*
X94702D01*
X94410Y24879D01*
X93951Y25226D01*
X94002Y25610D01*
Y27276D01*
D02*
G37*
G36*
X95298Y19000D02*
X94702D01*
X94150Y18772D01*
X93728Y18350D01*
X93500Y17798D01*
Y17202D01*
X93728Y16650D01*
X94150Y16228D01*
X94702Y16000D01*
X95298D01*
X95850Y16228D01*
X96272Y16650D01*
X96500Y17202D01*
Y17798D01*
X96272Y18350D01*
X95850Y18772D01*
X95298Y19000D01*
D02*
G37*
%LPD*%
D59*
X91000Y18500D02*
X91008Y18492D01*
X56492Y11319D02*
X57000Y11827D01*
X56492Y11319D02*
X56992D01*
D63*
X71598Y91953D02*
D03*
X65693D02*
D03*
X71598Y97858D02*
D03*
X65693D02*
D03*
X71598Y103764D02*
D03*
X65693D02*
D03*
X74551Y94906D02*
D03*
X68646D02*
D03*
X62740D02*
D03*
X74551Y100811D02*
D03*
X62740D02*
D03*
X68646D02*
D03*
X134000Y35500D02*
D03*
X130500Y45500D02*
D03*
X125500Y33000D02*
D03*
X123000Y27500D02*
D03*
X53500Y62000D02*
D03*
X45500Y73500D02*
D03*
Y78000D02*
D03*
X47500Y81500D02*
D03*
X53000Y55000D02*
D03*
Y59000D02*
D03*
X96000Y13000D02*
D03*
X86500Y34500D02*
D03*
X67500Y42000D02*
D03*
X95000Y113000D02*
D03*
X76000Y65000D02*
D03*
X17500Y84000D02*
D03*
X45500Y112500D02*
D03*
X17500Y111500D02*
D03*
X16500Y106000D02*
D03*
X85000Y87000D02*
D03*
X28000Y26000D02*
D03*
X81500Y39000D02*
D03*
X106000Y34000D02*
D03*
X103000Y43500D02*
D03*
X118500Y28500D02*
D03*
X135000Y73500D02*
D03*
X140500D02*
D03*
X144000Y80500D02*
D03*
X135520Y58480D02*
D03*
X140500Y58500D02*
D03*
X71500Y69500D02*
D03*
X99000Y31606D02*
D03*
X95000Y23500D02*
D03*
Y17500D02*
D03*
X46500Y94000D02*
D03*
X46000Y87000D02*
D03*
X76500Y53500D02*
D03*
X77500Y69500D02*
D03*
X66500D02*
D03*
X109000Y32000D02*
D03*
X71000Y35000D02*
D03*
X72000Y40500D02*
D03*
D64*
X56992Y11319D02*
D03*
X91008D02*
D03*
D65*
X56992Y27776D02*
D03*
X91008D02*
D03*
D66*
X85378Y25807D02*
D03*
X62622D02*
D03*
D67*
X13681Y45000D02*
D03*
Y68000D02*
D03*
D68*
Y35000D02*
D03*
Y58000D02*
D03*
D69*
X142000Y111000D02*
D03*
X120000D02*
D03*
X131000D02*
D03*
D70*
X142000Y101000D02*
D03*
Y91000D02*
D03*
X120000D02*
D03*
Y101000D02*
D03*
X131000Y91000D02*
D03*
Y101000D02*
D03*
D71*
X133000Y15000D02*
D03*
Y133000D02*
D03*
X15000Y15000D02*
D03*
Y133000D02*
D03*
D72*
X91008Y11319D02*
Y18492D01*
X57000Y11827D02*
Y18000D01*
M02*
