G04*
G04 #@! TF.GenerationSoftware,Altium Limited,Altium Designer,24.1.2 (44)*
G04*
G04 Layer_Color=65535*
%FSLAX25Y25*%
%MOIN*%
G70*
G04*
G04 #@! TF.SameCoordinates,BB4A674F-8819-4941-915F-785A2CCA7B01*
G04*
G04*
G04 #@! TF.FilePolarity,Positive*
G04*
G01*
G75*
%ADD10C,0.00787*%
%ADD11C,0.00984*%
%ADD12C,0.00500*%
%ADD13C,0.01575*%
%ADD14C,0.00591*%
%ADD15C,0.00300*%
G36*
X30093Y143720D02*
X30209D01*
Y143662D01*
X30325D01*
Y143604D01*
X30441D01*
Y143546D01*
X30557D01*
Y143488D01*
X30673D01*
Y143430D01*
X30789D01*
Y143372D01*
X30905D01*
Y143314D01*
X31021D01*
Y143256D01*
X31195D01*
Y143198D01*
X31311D01*
Y143140D01*
X31427D01*
Y143082D01*
X31543D01*
Y143024D01*
X31659D01*
Y142966D01*
X31775D01*
Y142908D01*
X31891D01*
Y142850D01*
X32007D01*
Y142792D01*
X32181D01*
Y142734D01*
X32297D01*
Y142676D01*
X32413D01*
Y142618D01*
X32529D01*
Y142560D01*
X32645D01*
Y142502D01*
X32761D01*
Y142444D01*
X32877D01*
Y142386D01*
X32993D01*
Y142328D01*
X33109D01*
Y142270D01*
X33225D01*
Y142212D01*
X33399D01*
Y142154D01*
X33515D01*
Y142096D01*
X33631D01*
Y142038D01*
X33747D01*
Y141980D01*
X33863D01*
Y141922D01*
X33921D01*
Y141864D01*
X33979D01*
Y141806D01*
X34037D01*
Y141748D01*
X34095D01*
Y141690D01*
X34153D01*
Y141574D01*
X34211D01*
Y140414D01*
X34153D01*
Y138964D01*
X34095D01*
Y136064D01*
X34037D01*
Y129162D01*
X34095D01*
Y127364D01*
X34153D01*
Y126610D01*
X34211D01*
Y126320D01*
X34153D01*
Y126262D01*
X33921D01*
Y126320D01*
X33863D01*
Y126378D01*
X33805D01*
Y126436D01*
X33747D01*
Y126494D01*
X33631D01*
Y126552D01*
X33515D01*
Y126610D01*
X33399D01*
Y126668D01*
X33283D01*
Y126726D01*
X33167D01*
Y126784D01*
X32993D01*
Y126842D01*
X32877D01*
Y126900D01*
X32761D01*
Y126958D01*
X32645D01*
Y127016D01*
X32529D01*
Y127074D01*
X32413D01*
Y127132D01*
X32297D01*
Y127190D01*
X32123D01*
Y127248D01*
X32007D01*
Y127306D01*
X31891D01*
Y127364D01*
X31775D01*
Y127422D01*
X31659D01*
Y127480D01*
X31485D01*
Y127538D01*
X31369D01*
Y127596D01*
X31253D01*
Y127654D01*
X31137D01*
Y127712D01*
X31021D01*
Y127770D01*
X30847D01*
Y127828D01*
X30731D01*
Y127886D01*
X30615D01*
Y127944D01*
X30499D01*
Y128002D01*
X30383D01*
Y128060D01*
X30325D01*
Y128118D01*
X30209D01*
Y128176D01*
X30151D01*
Y128292D01*
X30093D01*
Y128350D01*
X30035D01*
Y128524D01*
X29977D01*
Y130090D01*
X30035D01*
Y132004D01*
X30093D01*
Y138442D01*
X30035D01*
Y140704D01*
X29977D01*
Y142328D01*
X29919D01*
Y143720D01*
X29977D01*
Y143778D01*
X30093D01*
Y143720D01*
D02*
G37*
G36*
X97945Y12020D02*
X96370D01*
Y13595D01*
X97945Y12020D01*
D02*
G37*
%LPC*%
G36*
X30383Y143198D02*
X30325D01*
Y142038D01*
X30383D01*
Y140530D01*
X30441D01*
Y138268D01*
X30499D01*
Y132642D01*
X30441D01*
Y129974D01*
X30383D01*
Y128466D01*
X30441D01*
Y128408D01*
X30557D01*
Y128350D01*
X30673D01*
Y128292D01*
X30789D01*
Y128234D01*
X30905D01*
Y128176D01*
X31021D01*
Y128118D01*
X31195D01*
Y128060D01*
X31311D01*
Y128002D01*
X31427D01*
Y127944D01*
X31543D01*
Y127886D01*
X31659D01*
Y127828D01*
X31775D01*
Y127770D01*
X31891D01*
Y127712D01*
X32065D01*
Y127654D01*
X32181D01*
Y127596D01*
X32297D01*
Y127538D01*
X32413D01*
Y127480D01*
X32529D01*
Y127422D01*
X32645D01*
Y127364D01*
X32819D01*
Y127306D01*
X32935D01*
Y127248D01*
X33051D01*
Y127190D01*
X33167D01*
Y127132D01*
X33283D01*
Y127074D01*
X33399D01*
Y127016D01*
X33573D01*
Y126958D01*
X33689D01*
Y126900D01*
X33747D01*
Y127828D01*
X33689D01*
Y130032D01*
X33631D01*
Y136296D01*
X33689D01*
Y138674D01*
X33747D01*
Y140066D01*
X33805D01*
Y141574D01*
X33689D01*
Y141632D01*
X33573D01*
Y141690D01*
X33457D01*
Y141748D01*
X33341D01*
Y141806D01*
X33225D01*
Y141864D01*
X33109D01*
Y141922D01*
X32993D01*
Y141980D01*
X32877D01*
Y142038D01*
X32703D01*
Y142096D01*
X32587D01*
Y142154D01*
X32471D01*
Y142212D01*
X32355D01*
Y142270D01*
X32239D01*
Y142328D01*
X32123D01*
Y142386D01*
X32007D01*
Y142444D01*
X31891D01*
Y142502D01*
X31775D01*
Y142560D01*
X31601D01*
Y142618D01*
X31485D01*
Y142676D01*
X31369D01*
Y142734D01*
X31253D01*
Y142792D01*
X31137D01*
Y142850D01*
X31021D01*
Y142908D01*
X30905D01*
Y142966D01*
X30789D01*
Y143024D01*
X30673D01*
Y143082D01*
X30557D01*
Y143140D01*
X30383D01*
Y143198D01*
D02*
G37*
%LPD*%
G36*
X31311Y138616D02*
X31369D01*
Y138558D01*
X31427D01*
Y138500D01*
X31485D01*
Y138442D01*
X31543D01*
Y138326D01*
X31485D01*
Y138268D01*
X31427D01*
Y138152D01*
X31369D01*
Y137688D01*
X31427D01*
Y137572D01*
X31485D01*
Y137514D01*
X31775D01*
Y137572D01*
X31833D01*
Y137746D01*
X31891D01*
Y137978D01*
X31949D01*
Y138152D01*
X32007D01*
Y138268D01*
X32065D01*
Y138326D01*
X32123D01*
Y138384D01*
X32181D01*
Y138442D01*
X32355D01*
Y138500D01*
X32645D01*
Y138442D01*
X32819D01*
Y138384D01*
X32935D01*
Y138326D01*
X32993D01*
Y138268D01*
X33051D01*
Y138210D01*
X33109D01*
Y138094D01*
X33167D01*
Y137978D01*
X33225D01*
Y137572D01*
X33283D01*
Y137456D01*
X33225D01*
Y137166D01*
X33167D01*
Y137050D01*
X33109D01*
Y136934D01*
X33051D01*
Y136876D01*
X32993D01*
Y136818D01*
X32877D01*
Y136760D01*
X32761D01*
Y136876D01*
X32703D01*
Y136934D01*
X32645D01*
Y136992D01*
X32587D01*
Y137108D01*
X32645D01*
Y137166D01*
X32703D01*
Y137224D01*
X32761D01*
Y137282D01*
X32819D01*
Y137398D01*
X32877D01*
Y137804D01*
X32819D01*
Y137920D01*
X32761D01*
Y137978D01*
X32703D01*
Y138036D01*
X32413D01*
Y137978D01*
X32355D01*
Y137862D01*
X32297D01*
Y137630D01*
X32239D01*
Y137456D01*
X32181D01*
Y137340D01*
X32123D01*
Y137282D01*
X32065D01*
Y137224D01*
X32007D01*
Y137166D01*
X31949D01*
Y137108D01*
X31775D01*
Y137050D01*
X31543D01*
Y137108D01*
X31369D01*
Y137166D01*
X31311D01*
Y137224D01*
X31195D01*
Y137340D01*
X31137D01*
Y137398D01*
X31079D01*
Y137514D01*
X31021D01*
Y137862D01*
X30963D01*
Y138094D01*
X31021D01*
Y138384D01*
X31079D01*
Y138500D01*
X31137D01*
Y138558D01*
X31195D01*
Y138616D01*
X31253D01*
Y138674D01*
X31311D01*
Y138616D01*
D02*
G37*
G36*
Y136064D02*
X31369D01*
Y135020D01*
X31601D01*
Y134962D01*
X31891D01*
Y135716D01*
Y135774D01*
Y135832D01*
X32065D01*
Y135774D01*
X32239D01*
Y134846D01*
X32471D01*
Y134788D01*
X32703D01*
Y134730D01*
X32877D01*
Y135774D01*
X33051D01*
Y135716D01*
X33225D01*
Y134208D01*
X33109D01*
Y134266D01*
X32877D01*
Y134324D01*
X32587D01*
Y134382D01*
X32297D01*
Y134440D01*
X32065D01*
Y134498D01*
X31775D01*
Y134556D01*
X31485D01*
Y134614D01*
X31195D01*
Y134672D01*
X31021D01*
Y136122D01*
X31311D01*
Y136064D01*
D02*
G37*
G36*
X31833Y133338D02*
X32007D01*
Y133280D01*
X32065D01*
Y133222D01*
X32181D01*
Y133164D01*
X32239D01*
Y133048D01*
X32297D01*
Y132932D01*
X32355D01*
Y132700D01*
X32413D01*
Y132062D01*
X32645D01*
Y132004D01*
X32935D01*
Y131946D01*
X33225D01*
Y131482D01*
X33051D01*
Y131540D01*
X32819D01*
Y131598D01*
X32529D01*
Y131656D01*
X32239D01*
Y131714D01*
X31949D01*
Y131772D01*
X31717D01*
Y131830D01*
X31427D01*
Y131888D01*
X31137D01*
Y131946D01*
X31021D01*
Y132990D01*
X31079D01*
Y133164D01*
X31137D01*
Y133222D01*
X31195D01*
Y133280D01*
X31253D01*
Y133338D01*
X31369D01*
Y133396D01*
X31833D01*
Y133338D01*
D02*
G37*
%LPC*%
G36*
X31717Y132990D02*
X31543D01*
Y132932D01*
X31427D01*
Y132816D01*
X31369D01*
Y132294D01*
X31543D01*
Y132236D01*
X31833D01*
Y132178D01*
X32065D01*
Y132700D01*
X32007D01*
Y132816D01*
X31949D01*
Y132874D01*
X31891D01*
Y132932D01*
X31717D01*
Y132990D01*
D02*
G37*
%LPD*%
D10*
X34236Y118921D02*
G03*
X34236Y118921I-394J0D01*
G01*
X61598Y34941D02*
G03*
X61598Y34941I-394J0D01*
G01*
X141480Y27626D02*
G03*
X141480Y27626I-394J0D01*
G01*
X56402Y1083D02*
Y6122D01*
X91598Y1083D02*
Y6122D01*
X56402Y16831D02*
Y21752D01*
X91598Y16831D02*
Y21752D01*
X30343Y13819D02*
Y19823D01*
X26476Y29213D02*
Y50787D01*
X886Y29213D02*
X26476D01*
X886D02*
Y50787D01*
X26476D01*
Y52213D02*
Y73787D01*
X886Y52213D02*
X26476D01*
X886D02*
Y73787D01*
X26476D01*
X136705Y85409D02*
X147295D01*
Y116591D01*
X136705D02*
X147295D01*
X136705Y85409D02*
Y116591D01*
X114705Y85409D02*
Y116591D01*
X125295D01*
Y85409D02*
Y116591D01*
X114705Y85409D02*
X125295D01*
X125705D02*
Y116591D01*
X136295D01*
Y85409D02*
Y116591D01*
X125705Y85409D02*
X136295D01*
X20819Y114000D02*
X23181D01*
X20819Y101500D02*
X23181D01*
D11*
X142492Y118362D02*
G03*
X142492Y118362I-492J0D01*
G01*
X120492D02*
G03*
X120492Y118362I-492J0D01*
G01*
X131492D02*
G03*
X131492Y118362I-492J0D01*
G01*
D12*
X104532Y48016D02*
X109433D01*
Y50890D01*
X38567Y48016D02*
X43468D01*
X38567D02*
Y50890D01*
Y121953D02*
Y148409D01*
X109433Y121953D02*
Y148409D01*
X38567D02*
X109433D01*
X130390Y48689D02*
Y72311D01*
X116610Y48689D02*
Y72311D01*
X142976Y29476D02*
Y33531D01*
X141874Y29476D02*
X142976D01*
X125024D02*
X126126D01*
X125024D02*
Y33531D01*
Y37468D02*
Y41524D01*
X126126D01*
X142976Y37468D02*
Y41524D01*
X141874D02*
X142976D01*
X3110Y93189D02*
Y116811D01*
X16890Y93189D02*
Y116811D01*
X4001Y33499D02*
Y32500D01*
Y33000D01*
X6500D01*
X7000Y32500D01*
Y32000D01*
X6500Y31500D01*
X4001Y34499D02*
X7000D01*
Y36498D01*
X4501Y39497D02*
X4001Y38998D01*
Y37998D01*
X4501Y37498D01*
X6500D01*
X7000Y37998D01*
Y38998D01*
X6500Y39497D01*
X4001Y42496D02*
Y41497D01*
Y41997D01*
X6500D01*
X7000Y41497D01*
Y40997D01*
X6500Y40497D01*
X4001Y43496D02*
X7000D01*
Y45496D01*
X4501Y48494D02*
X4001Y47995D01*
Y46995D01*
X4501Y46495D01*
X6500D01*
X7000Y46995D01*
Y47995D01*
X6500Y48494D01*
X4001Y51494D02*
Y50494D01*
Y50994D01*
X6500D01*
X7000Y50494D01*
Y49994D01*
X6500Y49494D01*
X4001Y52493D02*
X7000D01*
Y54493D01*
X4501Y57492D02*
X4001Y56992D01*
Y55992D01*
X4501Y55492D01*
X6500D01*
X7000Y55992D01*
Y56992D01*
X6500Y57492D01*
X4001Y60491D02*
Y59491D01*
Y59991D01*
X6500D01*
X7000Y59491D01*
Y58991D01*
X6500Y58491D01*
X4001Y61490D02*
X7000D01*
Y63490D01*
X4501Y66489D02*
X4001Y65989D01*
Y64989D01*
X4501Y64489D01*
X6500D01*
X7000Y64989D01*
Y65989D01*
X6500Y66489D01*
X112501Y56000D02*
X115500D01*
Y57499D01*
X115000Y57999D01*
X114500D01*
X114000Y57499D01*
Y56000D01*
Y57499D01*
X113501Y57999D01*
X113001D01*
X112501Y57499D01*
Y56000D01*
Y60499D02*
Y59499D01*
X113001Y58999D01*
X115000D01*
X115500Y59499D01*
Y60499D01*
X115000Y60998D01*
X113001D01*
X112501Y60499D01*
Y63498D02*
Y62498D01*
X113001Y61998D01*
X115000D01*
X115500Y62498D01*
Y63498D01*
X115000Y63997D01*
X113001D01*
X112501Y63498D01*
Y64997D02*
Y66996D01*
Y65997D01*
X115500D01*
X6000Y84500D02*
Y87499D01*
X7500D01*
X7999Y86999D01*
Y86000D01*
X7500Y85500D01*
X6000D01*
X7000D02*
X7999Y84500D01*
X10998Y86999D02*
X10499Y87499D01*
X9499D01*
X8999Y86999D01*
Y86499D01*
X9499Y86000D01*
X10499D01*
X10998Y85500D01*
Y85000D01*
X10499Y84500D01*
X9499D01*
X8999Y85000D01*
X11998Y87499D02*
X13997D01*
X12998D01*
Y84500D01*
X28000Y48500D02*
X30999D01*
Y47001D01*
X30499Y46501D01*
X29500D01*
X29000Y47001D01*
Y48500D01*
X30999Y45501D02*
X30499D01*
X29500Y44501D01*
X30499Y43502D01*
X30999D01*
X29500Y44501D02*
X28000D01*
Y42502D02*
X30999D01*
Y41002D01*
X30499Y40503D01*
X29500D01*
X29000Y41002D01*
Y42502D01*
Y41502D02*
X28000Y40503D01*
X30999Y38003D02*
Y39003D01*
X30499Y39503D01*
X28500D01*
X28000Y39003D01*
Y38003D01*
X28500Y37504D01*
X30499D01*
X30999Y38003D01*
X28000Y31506D02*
Y33505D01*
X29999Y31506D01*
X30499D01*
X30999Y32005D01*
Y33005D01*
X30499Y33505D01*
X28000Y71000D02*
X30999D01*
Y69500D01*
X30499Y69001D01*
X29500D01*
X29000Y69500D01*
Y71000D01*
X30999Y68001D02*
X30499D01*
X29500Y67001D01*
X30499Y66002D01*
X30999D01*
X29500Y67001D02*
X28000D01*
Y65002D02*
X30999D01*
Y63502D01*
X30499Y63003D01*
X29500D01*
X29000Y63502D01*
Y65002D01*
Y64002D02*
X28000Y63003D01*
X30999Y60503D02*
Y61503D01*
X30499Y62003D01*
X28500D01*
X28000Y61503D01*
Y60503D01*
X28500Y60004D01*
X30499D01*
X30999Y60503D01*
X28000Y56005D02*
Y55005D01*
Y55505D01*
X30999D01*
X30499Y56005D01*
X144000Y69499D02*
X147000D01*
Y68000D01*
X146500Y67500D01*
X145500D01*
X145000Y68000D01*
Y69499D01*
Y68499D02*
X144000Y67500D01*
X147000Y64501D02*
Y66500D01*
X145500D01*
X146000Y65500D01*
Y65001D01*
X145500Y64501D01*
X144500D01*
X144000Y65001D01*
Y66000D01*
X144500Y66500D01*
X35000Y4500D02*
X34500Y5000D01*
X33501D01*
X33001Y4500D01*
Y2500D01*
X33501Y2001D01*
X34500D01*
X35000Y2500D01*
X36000D02*
X36500Y2001D01*
X37499D01*
X37999Y2500D01*
Y4500D01*
X37499Y5000D01*
X36500D01*
X36000Y4500D01*
Y4000D01*
X36500Y3500D01*
X37999D01*
X146500Y48000D02*
X147000Y48500D01*
Y49499D01*
X146500Y49999D01*
X144500D01*
X144000Y49499D01*
Y48500D01*
X144500Y48000D01*
X147000Y45001D02*
X146500Y46000D01*
X145500Y47000D01*
X144500D01*
X144000Y46500D01*
Y45501D01*
X144500Y45001D01*
X145000D01*
X145500Y45501D01*
Y47000D01*
X146500Y55000D02*
X147000Y55500D01*
Y56499D01*
X146500Y56999D01*
X144500D01*
X144000Y56499D01*
Y55500D01*
X144500Y55000D01*
X147000Y52001D02*
Y54000D01*
X145500D01*
X146000Y53000D01*
Y52501D01*
X145500Y52001D01*
X144500D01*
X144000Y52501D01*
Y53500D01*
X144500Y54000D01*
X113000Y8000D02*
X113499Y8500D01*
Y9499D01*
X113000Y9999D01*
X111000D01*
X110501Y9499D01*
Y8500D01*
X111000Y8000D01*
X110501Y7000D02*
Y6001D01*
Y6500D01*
X113499D01*
X113000Y7000D01*
X135501Y74501D02*
Y77500D01*
X137000D01*
X137500Y77000D01*
Y76000D01*
X137000Y75500D01*
X135501D01*
X136500D02*
X137500Y74501D01*
X138500D02*
X139499D01*
X138999D01*
Y77500D01*
X138500Y77000D01*
X21500Y122500D02*
X21000Y123000D01*
X20001D01*
X19501Y122500D01*
Y120500D01*
X20001Y120001D01*
X21000D01*
X21500Y120500D01*
X23999Y120001D02*
Y123000D01*
X22500Y121500D01*
X24499D01*
X28000Y122500D02*
X27500Y123000D01*
X26501D01*
X26001Y122500D01*
Y120500D01*
X26501Y120001D01*
X27500D01*
X28000Y120500D01*
X29000Y122500D02*
X29500Y123000D01*
X30499D01*
X30999Y122500D01*
Y122000D01*
X30499Y121500D01*
X30000D01*
X30499D01*
X30999Y121000D01*
Y120500D01*
X30499Y120001D01*
X29500D01*
X29000Y120500D01*
X30999Y93000D02*
Y90000D01*
X29500D01*
X29000Y90500D01*
Y91500D01*
X29500Y92000D01*
X30999D01*
X30000D02*
X29000Y93000D01*
X26501D02*
Y90000D01*
X28000Y91500D01*
X26001D01*
X22000Y90500D02*
X22500Y90000D01*
X23499D01*
X23999Y90500D01*
Y92500D01*
X23499Y93000D01*
X22500D01*
X22000Y92500D01*
X19001Y93000D02*
X21000D01*
X19001Y91000D01*
Y90500D01*
X19501Y90000D01*
X20500D01*
X21000Y90500D01*
D13*
X133425Y60504D02*
X136575D01*
X128496Y78925D02*
Y82075D01*
D14*
X96370Y12020D02*
X98339D01*
X96370D02*
Y13988D01*
Y26980D02*
X98339D01*
X96370Y25012D02*
Y26980D01*
X115661Y12020D02*
X117630D01*
Y13988D01*
Y25012D02*
Y26980D01*
X115661D02*
X117630D01*
X96370Y13595D02*
X97945Y12020D01*
D15*
X140633Y84466D02*
X140300Y84799D01*
X139633D01*
X139300Y84466D01*
Y83133D01*
X139633Y82800D01*
X140300D01*
X140633Y83133D01*
Y83800D01*
X139966D01*
X141299Y82800D02*
Y84799D01*
X142632Y82800D01*
Y84799D01*
X143299D02*
Y82800D01*
X144298D01*
X144632Y83133D01*
Y84466D01*
X144298Y84799D01*
X143299D01*
X139300Y121799D02*
Y120466D01*
X139966Y119800D01*
X140633Y120466D01*
Y121799D01*
X142632Y121466D02*
X142299Y121799D01*
X141633D01*
X141299Y121466D01*
Y120133D01*
X141633Y119800D01*
X142299D01*
X142632Y120133D01*
X144632Y121466D02*
X144298Y121799D01*
X143632D01*
X143299Y121466D01*
Y120133D01*
X143632Y119800D01*
X144298D01*
X144632Y120133D01*
X130300Y121799D02*
Y121466D01*
X130966Y120800D01*
X131633Y121466D01*
Y121799D01*
X130966Y120800D02*
Y119800D01*
X119300Y121799D02*
X120633Y119800D01*
Y121799D02*
X119300Y119800D01*
M02*
