G04*
G04 #@! TF.GenerationSoftware,Altium Limited,Altium Designer,24.1.2 (44)*
G04*
G04 Layer_Physical_Order=1*
G04 Layer_Color=255*
%FSLAX25Y25*%
%MOIN*%
G70*
G04*
G04 #@! TF.SameCoordinates,BB4A674F-8819-4941-915F-785A2CCA7B01*
G04*
G04*
G04 #@! TF.FilePolarity,Positive*
G04*
G01*
G75*
%ADD16R,0.03543X0.05906*%
%ADD17R,0.05906X0.03543*%
%ADD18R,0.03937X0.03937*%
%ADD19R,0.08661X0.11024*%
%ADD20R,0.02362X0.04528*%
%ADD21R,0.01181X0.04528*%
%ADD22R,0.03937X0.03150*%
%ADD23R,0.03150X0.03150*%
%ADD24R,0.13386X0.10669*%
%ADD25R,0.02559X0.06004*%
%ADD26R,0.03740X0.03740*%
%ADD27R,0.03740X0.03740*%
G04:AMPARAMS|DCode=28|XSize=29.92mil|YSize=26mil|CornerRadius=3.25mil|HoleSize=0mil|Usage=FLASHONLY|Rotation=180.000|XOffset=0mil|YOffset=0mil|HoleType=Round|Shape=RoundedRectangle|*
%AMROUNDEDRECTD28*
21,1,0.02992,0.01950,0,0,180.0*
21,1,0.02342,0.02600,0,0,180.0*
1,1,0.00650,-0.01171,0.00975*
1,1,0.00650,0.01171,0.00975*
1,1,0.00650,0.01171,-0.00975*
1,1,0.00650,-0.01171,-0.00975*
%
%ADD28ROUNDEDRECTD28*%
%ADD29R,0.03150X0.03937*%
%ADD30R,0.03150X0.03150*%
G04:AMPARAMS|DCode=31|XSize=13.78mil|YSize=22.84mil|CornerRadius=3.45mil|HoleSize=0mil|Usage=FLASHONLY|Rotation=180.000|XOffset=0mil|YOffset=0mil|HoleType=Round|Shape=RoundedRectangle|*
%AMROUNDEDRECTD31*
21,1,0.01378,0.01595,0,0,180.0*
21,1,0.00689,0.02284,0,0,180.0*
1,1,0.00689,-0.00345,0.00797*
1,1,0.00689,0.00345,0.00797*
1,1,0.00689,0.00345,-0.00797*
1,1,0.00689,-0.00345,-0.00797*
%
%ADD31ROUNDEDRECTD31*%
G04:AMPARAMS|DCode=32|XSize=13.78mil|YSize=22.84mil|CornerRadius=3.45mil|HoleSize=0mil|Usage=FLASHONLY|Rotation=270.000|XOffset=0mil|YOffset=0mil|HoleType=Round|Shape=RoundedRectangle|*
%AMROUNDEDRECTD32*
21,1,0.01378,0.01595,0,0,270.0*
21,1,0.00689,0.02284,0,0,270.0*
1,1,0.00689,-0.00797,-0.00345*
1,1,0.00689,-0.00797,0.00345*
1,1,0.00689,0.00797,0.00345*
1,1,0.00689,0.00797,-0.00345*
%
%ADD32ROUNDEDRECTD32*%
G04:AMPARAMS|DCode=33|XSize=23.62mil|YSize=43.31mil|CornerRadius=2.36mil|HoleSize=0mil|Usage=FLASHONLY|Rotation=180.000|XOffset=0mil|YOffset=0mil|HoleType=Round|Shape=RoundedRectangle|*
%AMROUNDEDRECTD33*
21,1,0.02362,0.03858,0,0,180.0*
21,1,0.01890,0.04331,0,0,180.0*
1,1,0.00472,-0.00945,0.01929*
1,1,0.00472,0.00945,0.01929*
1,1,0.00472,0.00945,-0.01929*
1,1,0.00472,-0.00945,-0.01929*
%
%ADD33ROUNDEDRECTD33*%
%ADD59C,0.01000*%
%ADD60C,0.01500*%
%ADD61C,0.03000*%
%ADD62C,0.02000*%
%ADD63C,0.02000*%
G04:AMPARAMS|DCode=64|XSize=70.87mil|YSize=39.37mil|CornerRadius=9.84mil|HoleSize=0mil|Usage=FLASHONLY|Rotation=90.000|XOffset=0mil|YOffset=0mil|HoleType=Round|Shape=RoundedRectangle|*
%AMROUNDEDRECTD64*
21,1,0.07087,0.01968,0,0,90.0*
21,1,0.05118,0.03937,0,0,90.0*
1,1,0.01968,0.00984,0.02559*
1,1,0.01968,0.00984,-0.02559*
1,1,0.01968,-0.00984,-0.02559*
1,1,0.01968,-0.00984,0.02559*
%
%ADD64ROUNDEDRECTD64*%
%ADD65O,0.03937X0.08268*%
%ADD66C,0.02559*%
G04:AMPARAMS|DCode=67|XSize=76.77mil|YSize=76.77mil|CornerRadius=19.19mil|HoleSize=0mil|Usage=FLASHONLY|Rotation=270.000|XOffset=0mil|YOffset=0mil|HoleType=Round|Shape=RoundedRectangle|*
%AMROUNDEDRECTD67*
21,1,0.07677,0.03839,0,0,270.0*
21,1,0.03839,0.07677,0,0,270.0*
1,1,0.03839,-0.01919,-0.01919*
1,1,0.03839,-0.01919,0.01919*
1,1,0.03839,0.01919,0.01919*
1,1,0.03839,0.01919,-0.01919*
%
%ADD67ROUNDEDRECTD67*%
%ADD68C,0.07677*%
G04:AMPARAMS|DCode=69|XSize=62.99mil|YSize=62.99mil|CornerRadius=15.75mil|HoleSize=0mil|Usage=FLASHONLY|Rotation=270.000|XOffset=0mil|YOffset=0mil|HoleType=Round|Shape=RoundedRectangle|*
%AMROUNDEDRECTD69*
21,1,0.06299,0.03150,0,0,270.0*
21,1,0.03150,0.06299,0,0,270.0*
1,1,0.03150,-0.01575,-0.01575*
1,1,0.03150,-0.01575,0.01575*
1,1,0.03150,0.01575,0.01575*
1,1,0.03150,0.01575,-0.01575*
%
%ADD69ROUNDEDRECTD69*%
%ADD70C,0.06299*%
%ADD71C,0.20000*%
D16*
X101500Y49000D02*
D03*
X96500D02*
D03*
X91500D02*
D03*
X86500D02*
D03*
X81500D02*
D03*
X76500D02*
D03*
X71500D02*
D03*
X66500D02*
D03*
X61500D02*
D03*
X56500D02*
D03*
X51500D02*
D03*
X46500D02*
D03*
D17*
X108449Y118921D02*
D03*
Y113921D02*
D03*
Y108921D02*
D03*
Y103921D02*
D03*
Y98921D02*
D03*
Y93921D02*
D03*
Y88921D02*
D03*
Y83921D02*
D03*
Y78921D02*
D03*
Y73921D02*
D03*
Y68921D02*
D03*
Y63921D02*
D03*
Y58921D02*
D03*
Y53921D02*
D03*
X39551D02*
D03*
Y58921D02*
D03*
Y63921D02*
D03*
Y68921D02*
D03*
Y73921D02*
D03*
Y78921D02*
D03*
Y83921D02*
D03*
Y88921D02*
D03*
Y93921D02*
D03*
Y98921D02*
D03*
Y103921D02*
D03*
Y108921D02*
D03*
Y113921D02*
D03*
Y118921D02*
D03*
D18*
X74551Y103764D02*
D03*
X68646D02*
D03*
X62740D02*
D03*
X74551Y91953D02*
D03*
X68646D02*
D03*
X62740D02*
D03*
X74551Y97858D02*
D03*
X62740D02*
D03*
X68646D02*
D03*
D19*
X123500Y69949D02*
D03*
Y51051D02*
D03*
X10000Y95551D02*
D03*
Y114449D02*
D03*
D20*
X61402Y30039D02*
D03*
X86598D02*
D03*
X64551D02*
D03*
X83449D02*
D03*
D21*
X74984D02*
D03*
X73016D02*
D03*
X76953D02*
D03*
X78921D02*
D03*
X80890D02*
D03*
X71047D02*
D03*
X69079D02*
D03*
X67110D02*
D03*
D22*
X140500Y64047D02*
D03*
Y69953D02*
D03*
X28500Y98547D02*
D03*
Y104453D02*
D03*
D23*
X135000Y64047D02*
D03*
Y69953D02*
D03*
D24*
X40500Y27500D02*
D03*
D25*
X33000Y38177D02*
D03*
X38000D02*
D03*
X43000D02*
D03*
X48000D02*
D03*
Y16823D02*
D03*
X43000D02*
D03*
X38000D02*
D03*
X33000D02*
D03*
D26*
X33039Y8500D02*
D03*
X37961D02*
D03*
X135539Y47500D02*
D03*
X140461D02*
D03*
X102039Y8000D02*
D03*
X106961D02*
D03*
X135539Y54500D02*
D03*
X140461D02*
D03*
D27*
X28500Y116461D02*
D03*
Y111539D02*
D03*
D28*
X22000Y111244D02*
D03*
Y116756D02*
D03*
Y98744D02*
D03*
Y104256D02*
D03*
D29*
X134047Y80500D02*
D03*
X139953D02*
D03*
X92000Y39000D02*
D03*
X86094D02*
D03*
X103047D02*
D03*
X108953D02*
D03*
D30*
X119047Y80500D02*
D03*
X124953D02*
D03*
D31*
X139906Y30933D02*
D03*
X137937D02*
D03*
X135968D02*
D03*
X134000D02*
D03*
X132032D02*
D03*
X130063D02*
D03*
X128094D02*
D03*
Y40067D02*
D03*
X130063D02*
D03*
X132032D02*
D03*
X134000D02*
D03*
X135968D02*
D03*
X137937D02*
D03*
X139906D02*
D03*
D32*
X126480Y35500D02*
D03*
X141520D02*
D03*
D33*
X99618Y23831D02*
D03*
X104539D02*
D03*
X109461D02*
D03*
X114382D02*
D03*
Y15169D02*
D03*
X109461D02*
D03*
X104539D02*
D03*
X99618D02*
D03*
D59*
X120000Y35500D02*
X126480D01*
X112500D02*
X120000D01*
X122500Y33000D01*
X125500D01*
X128094Y40520D02*
Y43095D01*
Y40067D02*
Y40520D01*
Y43095D02*
X130500Y45500D01*
X123000Y27500D02*
X126433Y30933D01*
X128094D01*
X132032Y42469D02*
X133693Y44130D01*
X135539D01*
X132032Y40067D02*
Y42469D01*
X133782Y35500D02*
X137500D01*
X130063D02*
X133782D01*
X134000Y30933D02*
Y35282D01*
X133782Y35500D02*
X134000Y35282D01*
X139906Y37905D02*
Y40067D01*
X137500Y35500D02*
X139906Y37905D01*
X51863Y63096D02*
X52959Y62000D01*
X51326Y63096D02*
X51863D01*
X52959Y62000D02*
X53500D01*
X50500Y63921D02*
X51326Y63096D01*
X45500Y73500D02*
X56500Y62500D01*
X61500Y49000D02*
Y62000D01*
X45500Y78000D02*
X61500Y62000D01*
X56500Y49000D02*
Y62500D01*
X45079Y83921D02*
X47500Y81500D01*
X39551Y83921D02*
X45079D01*
X39551Y63921D02*
X50500D01*
X40630Y55000D02*
X53000D01*
X39630Y59000D02*
X53000D01*
X96383Y14383D02*
X97169Y15169D01*
X96000Y13000D02*
X96383Y13383D01*
Y14383D01*
X67500Y42000D02*
X73016Y36484D01*
Y30039D02*
Y36484D01*
X95000Y113000D02*
X100921Y118921D01*
X108449D01*
X44079Y113921D02*
X45500Y112500D01*
X39551Y113921D02*
X44079D01*
X17756Y111244D02*
X22000D01*
X17500Y111500D02*
X17756Y111244D01*
X18645Y104256D02*
X22000D01*
X16901Y106000D02*
X18645Y104256D01*
X16500Y106000D02*
X16901D01*
X16213Y106287D02*
Y107055D01*
X10000Y113268D02*
Y114449D01*
Y113268D02*
X16213Y107055D01*
Y106287D02*
X16500Y106000D01*
X62740Y91953D02*
Y94906D01*
X68646Y97858D02*
X71598D01*
X74551D01*
X68646Y94906D02*
Y97858D01*
X74551D02*
Y100811D01*
Y103764D01*
X71598D02*
X74551D01*
X68646D02*
X71598D01*
X74551Y91953D02*
Y94906D01*
X71598Y91953D02*
X74551D01*
X68646D02*
X71598D01*
X65693D02*
X68646D01*
Y94906D01*
X62740Y97858D02*
X65693D01*
X68646D01*
Y100811D02*
Y103764D01*
X65693D02*
X68646D01*
X62740D02*
X65693D01*
X62740Y100811D02*
Y103764D01*
Y94906D02*
Y97858D01*
X28000Y23545D02*
Y26000D01*
Y23545D02*
X33000Y18545D01*
Y16823D02*
Y18545D01*
X81500Y39000D02*
X86094D01*
X106000Y35654D02*
X108953Y38606D01*
X106000Y34000D02*
Y35654D01*
X108953Y38606D02*
Y39000D01*
X97169Y15169D02*
X99618D01*
X114382Y24815D02*
X118067Y28500D01*
X118500D01*
X114382Y23831D02*
Y24815D01*
X139953Y80500D02*
X144000D01*
X140500Y69953D02*
Y73500D01*
X135000Y69953D02*
Y73500D01*
X140461Y58461D02*
X140500Y58500D01*
X135500D02*
X135539Y58461D01*
X140461Y54500D02*
Y58461D01*
X135539Y54500D02*
Y58461D01*
X140461Y47500D02*
Y54500D01*
X71500Y49000D02*
Y69500D01*
X92000Y38606D02*
X99000Y31606D01*
X39551Y93921D02*
X46421D01*
X46500Y94000D01*
X39551Y88921D02*
X44079D01*
X46000Y87000D01*
X39551Y98921D02*
X48079D01*
X77500Y69500D01*
X76500Y49000D02*
Y53500D01*
X66500Y49000D02*
Y69500D01*
X13681Y68000D02*
X15201Y66480D01*
X33000Y38177D02*
Y39900D01*
X42134Y27776D02*
X48000Y33642D01*
X42134Y27776D02*
X56992D01*
X40776D02*
X42134D01*
X40500Y27500D02*
X40776Y27776D01*
X73000Y25586D02*
X73586Y25000D01*
X73000Y25586D02*
Y30007D01*
X73586Y25000D02*
X76367D01*
X72992Y30015D02*
X73000Y30007D01*
X72992Y30015D02*
X73016Y30039D01*
X64551D02*
X65232Y29358D01*
X82776Y29366D02*
X83449Y30039D01*
X64000Y30591D02*
X64551Y30039D01*
X135968Y28468D02*
Y30933D01*
X135000Y27500D02*
X135968Y28468D01*
X129000Y27500D02*
X135000D01*
X128094Y28405D02*
Y30933D01*
Y28405D02*
X129000Y27500D01*
X132032Y40067D02*
X132220Y39878D01*
X130063Y35500D02*
Y40067D01*
Y30933D02*
Y35500D01*
X137748Y40256D02*
X137937Y40067D01*
X135539Y47500D02*
Y54500D01*
X139906Y46945D02*
X140461Y47500D01*
X139906Y40067D02*
Y46945D01*
X135539Y44130D02*
X137748Y41921D01*
Y40256D02*
Y41921D01*
X135539Y44130D02*
Y47500D01*
X103047Y39394D02*
X106653Y43000D01*
X127453Y40709D02*
X127905D01*
X125161Y43000D02*
X127453Y40709D01*
X106653Y43000D02*
X125161D01*
X127905Y40709D02*
X128094Y40520D01*
X109000Y32000D02*
X112500Y35500D01*
X103047Y26307D02*
X104520Y24835D01*
Y23850D02*
Y24835D01*
X103047Y26307D02*
Y39000D01*
X109461Y10500D02*
Y15169D01*
X106961Y8000D02*
X109461Y10500D01*
X99618Y10421D02*
Y15169D01*
Y10421D02*
X102039Y8000D01*
X114382Y15169D02*
Y23831D01*
X109461Y15169D02*
X114382D01*
X99618D02*
X104539D01*
X99000Y24449D02*
Y31606D01*
X92000Y38606D02*
Y39000D01*
X99000Y24449D02*
X99618Y23831D01*
X97308Y45133D02*
X103047Y39394D01*
X96500Y49000D02*
X97308Y48192D01*
Y45133D02*
Y48192D01*
X103047Y39000D02*
Y39394D01*
X91500Y39500D02*
Y49000D01*
Y39500D02*
X92000Y39000D01*
X56992Y10006D02*
Y11319D01*
X37961Y8500D02*
X55486D01*
X56992Y10006D01*
X33000Y8539D02*
Y16823D01*
Y8539D02*
X33039Y8500D01*
X48000Y33642D02*
Y38177D01*
X86598Y28957D02*
X87279Y28276D01*
X90508D01*
X91008Y27776D01*
X86598Y28957D02*
Y30039D01*
X60720Y28276D02*
X61402Y28957D01*
X57492Y28276D02*
X60720D01*
X56992Y27776D02*
X57492Y28276D01*
X61402Y28957D02*
Y30039D01*
X28500Y104453D02*
Y111539D01*
X28205Y111244D02*
X28500Y111539D01*
X22000Y111244D02*
X28205D01*
X34421Y113921D02*
X39551D01*
X32039Y111539D02*
X34421Y113921D01*
X28500Y111539D02*
X32039D01*
X30961Y118921D02*
X39551D01*
X28500Y116461D02*
X30961Y118921D01*
X28205Y116756D02*
X28500Y116461D01*
X22000Y116756D02*
X28205D01*
X10000Y114449D02*
X12307Y116756D01*
X22000D01*
X21804Y98744D02*
X22000D01*
X10000Y95551D02*
X18611D01*
X21804Y98744D01*
X22000D02*
X28303D01*
X28500Y98547D01*
X29575Y99622D01*
X32122D01*
X33000Y100500D01*
Y106000D01*
X34650Y107650D01*
X38280D02*
X39551Y108921D01*
X34650Y107650D02*
X38280D01*
X108449Y53921D02*
X120630D01*
X123500Y51051D01*
X135000Y64047D02*
X140500D01*
X124953Y80500D02*
X134047D01*
X108449Y78921D02*
X117469D01*
X119047Y80500D01*
X125500Y106000D02*
X130500Y111000D01*
X131000D01*
X116000Y106000D02*
X125500D01*
X113000Y108000D02*
X115086Y105914D01*
X115914D01*
X116000Y106000D01*
X108528Y109000D02*
X112414D01*
X113000Y108414D01*
Y108000D02*
Y108414D01*
X108449Y108921D02*
X108528Y109000D01*
X116497Y113921D02*
X119418Y111000D01*
X120000D01*
X108449Y113921D02*
X116497D01*
X39551Y53921D02*
X40630Y55000D01*
X39551Y58921D02*
X39630Y59000D01*
X71000Y30087D02*
X71047Y30039D01*
X71000Y30087D02*
Y35000D01*
X76367Y25000D02*
X76953Y25586D01*
Y30039D01*
X72000Y40500D02*
X74984Y37516D01*
Y30039D02*
Y37516D01*
D60*
X83449Y30039D02*
Y33449D01*
X84500Y34500D02*
X86500D01*
X83449Y33449D02*
X84500Y34500D01*
X95000Y17500D02*
Y23500D01*
X38000Y38177D02*
Y42914D01*
X38586Y43500D01*
X60500D01*
X65232Y26768D02*
X69500Y22500D01*
X79000D01*
X65232Y26768D02*
Y29358D01*
X82776Y26276D02*
Y29366D01*
X79000Y22500D02*
X82776Y26276D01*
X64000Y30591D02*
Y40000D01*
X60500Y43500D02*
X64000Y40000D01*
D61*
X27900Y45000D02*
X33000Y39900D01*
X22500Y50400D02*
X27900Y45000D01*
X15201Y66480D02*
X19020D01*
X22500Y63000D01*
Y50400D02*
Y63000D01*
X13681Y45000D02*
X27900D01*
D62*
X33000Y38177D02*
X38000D01*
D63*
X71598Y91953D02*
D03*
X65693D02*
D03*
X71598Y97858D02*
D03*
X65693D02*
D03*
X71598Y103764D02*
D03*
X65693D02*
D03*
X74551Y94906D02*
D03*
X68646D02*
D03*
X62740D02*
D03*
X74551Y100811D02*
D03*
X62740D02*
D03*
X68646D02*
D03*
X134000Y35500D02*
D03*
X130500Y45500D02*
D03*
X125500Y33000D02*
D03*
X123000Y27500D02*
D03*
X53500Y62000D02*
D03*
X45500Y73500D02*
D03*
Y78000D02*
D03*
X47500Y81500D02*
D03*
X53000Y55000D02*
D03*
Y59000D02*
D03*
X96000Y13000D02*
D03*
X86500Y34500D02*
D03*
X67500Y42000D02*
D03*
X95000Y113000D02*
D03*
X76000Y65000D02*
D03*
X17500Y84000D02*
D03*
X45500Y112500D02*
D03*
X17500Y111500D02*
D03*
X16500Y106000D02*
D03*
X85000Y87000D02*
D03*
X28000Y26000D02*
D03*
X81500Y39000D02*
D03*
X106000Y34000D02*
D03*
X103000Y43500D02*
D03*
X118500Y28500D02*
D03*
X135000Y73500D02*
D03*
X140500D02*
D03*
X144000Y80500D02*
D03*
X135520Y58480D02*
D03*
X140500Y58500D02*
D03*
X71500Y69500D02*
D03*
X99000Y31606D02*
D03*
X95000Y23500D02*
D03*
Y17500D02*
D03*
X46500Y94000D02*
D03*
X46000Y87000D02*
D03*
X76500Y53500D02*
D03*
X77500Y69500D02*
D03*
X66500D02*
D03*
X109000Y32000D02*
D03*
X71000Y35000D02*
D03*
X72000Y40500D02*
D03*
D64*
X56992Y11319D02*
D03*
X91008D02*
D03*
D65*
X56992Y27776D02*
D03*
X91008D02*
D03*
D66*
X85378Y25807D02*
D03*
X62622D02*
D03*
D67*
X13681Y45000D02*
D03*
Y68000D02*
D03*
D68*
Y35000D02*
D03*
Y58000D02*
D03*
D69*
X142000Y111000D02*
D03*
X120000D02*
D03*
X131000D02*
D03*
D70*
X142000Y101000D02*
D03*
Y91000D02*
D03*
X120000D02*
D03*
Y101000D02*
D03*
X131000Y91000D02*
D03*
Y101000D02*
D03*
D71*
X133000Y15000D02*
D03*
Y133000D02*
D03*
X15000Y15000D02*
D03*
Y133000D02*
D03*
M02*
