G04*
G04 #@! TF.GenerationSoftware,Altium Limited,Altium Designer,24.1.2 (44)*
G04*
G04 Layer_Color=8388736*
%FSLAX25Y25*%
%MOIN*%
G70*
G04*
G04 #@! TF.SameCoordinates,BB4A674F-8819-4941-915F-785A2CCA7B01*
G04*
G04*
G04 #@! TF.FilePolarity,Negative*
G04*
G01*
G75*
%ADD34R,0.04343X0.06706*%
%ADD35R,0.06706X0.04343*%
%ADD36R,0.04737X0.04737*%
%ADD37R,0.09461X0.11824*%
%ADD38R,0.03162X0.05328*%
%ADD39R,0.01981X0.05328*%
%ADD40R,0.04737X0.03950*%
%ADD41R,0.03950X0.03950*%
%ADD42R,0.14186X0.11469*%
%ADD43R,0.03359X0.06804*%
%ADD44R,0.04540X0.04540*%
%ADD45R,0.04540X0.04540*%
G04:AMPARAMS|DCode=46|XSize=37.92mil|YSize=34mil|CornerRadius=7.25mil|HoleSize=0mil|Usage=FLASHONLY|Rotation=180.000|XOffset=0mil|YOffset=0mil|HoleType=Round|Shape=RoundedRectangle|*
%AMROUNDEDRECTD46*
21,1,0.03792,0.01950,0,0,180.0*
21,1,0.02342,0.03400,0,0,180.0*
1,1,0.01450,-0.01171,0.00975*
1,1,0.01450,0.01171,0.00975*
1,1,0.01450,0.01171,-0.00975*
1,1,0.01450,-0.01171,-0.00975*
%
%ADD46ROUNDEDRECTD46*%
%ADD47R,0.03950X0.04737*%
%ADD48R,0.03950X0.03950*%
G04:AMPARAMS|DCode=49|XSize=31.62mil|YSize=51.31mil|CornerRadius=6.36mil|HoleSize=0mil|Usage=FLASHONLY|Rotation=180.000|XOffset=0mil|YOffset=0mil|HoleType=Round|Shape=RoundedRectangle|*
%AMROUNDEDRECTD49*
21,1,0.03162,0.03858,0,0,180.0*
21,1,0.01890,0.05131,0,0,180.0*
1,1,0.01272,-0.00945,0.01929*
1,1,0.01272,0.00945,0.01929*
1,1,0.01272,0.00945,-0.01929*
1,1,0.01272,-0.00945,-0.01929*
%
%ADD49ROUNDEDRECTD49*%
G04:AMPARAMS|DCode=50|XSize=78.87mil|YSize=47.37mil|CornerRadius=13.84mil|HoleSize=0mil|Usage=FLASHONLY|Rotation=90.000|XOffset=0mil|YOffset=0mil|HoleType=Round|Shape=RoundedRectangle|*
%AMROUNDEDRECTD50*
21,1,0.07887,0.01968,0,0,90.0*
21,1,0.05118,0.04737,0,0,90.0*
1,1,0.02769,0.00984,0.02559*
1,1,0.02769,0.00984,-0.02559*
1,1,0.02769,-0.00984,-0.02559*
1,1,0.02769,-0.00984,0.02559*
%
%ADD50ROUNDEDRECTD50*%
%ADD51O,0.04737X0.09068*%
%ADD52C,0.03359*%
G04:AMPARAMS|DCode=53|XSize=84.77mil|YSize=84.77mil|CornerRadius=23.19mil|HoleSize=0mil|Usage=FLASHONLY|Rotation=270.000|XOffset=0mil|YOffset=0mil|HoleType=Round|Shape=RoundedRectangle|*
%AMROUNDEDRECTD53*
21,1,0.08477,0.03839,0,0,270.0*
21,1,0.03839,0.08477,0,0,270.0*
1,1,0.04639,-0.01919,-0.01919*
1,1,0.04639,-0.01919,0.01919*
1,1,0.04639,0.01919,0.01919*
1,1,0.04639,0.01919,-0.01919*
%
%ADD53ROUNDEDRECTD53*%
%ADD54C,0.08477*%
G04:AMPARAMS|DCode=55|XSize=70.99mil|YSize=70.99mil|CornerRadius=19.75mil|HoleSize=0mil|Usage=FLASHONLY|Rotation=270.000|XOffset=0mil|YOffset=0mil|HoleType=Round|Shape=RoundedRectangle|*
%AMROUNDEDRECTD55*
21,1,0.07099,0.03150,0,0,270.0*
21,1,0.03150,0.07099,0,0,270.0*
1,1,0.03950,-0.01575,-0.01575*
1,1,0.03950,-0.01575,0.01575*
1,1,0.03950,0.01575,0.01575*
1,1,0.03950,0.01575,-0.01575*
%
%ADD55ROUNDEDRECTD55*%
%ADD56C,0.07099*%
%ADD57C,0.20800*%
%ADD58C,0.02800*%
G36*
X140372Y41408D02*
X140395Y41406D01*
X140418Y41403D01*
X140441Y41399D01*
X140464Y41393D01*
X140486Y41386D01*
X140508Y41379D01*
X140530Y41370D01*
X140551Y41360D01*
X140571Y41348D01*
X140591Y41336D01*
X140610Y41323D01*
X140629Y41309D01*
X140647Y41294D01*
X140664Y41278D01*
X140680Y41261D01*
X140695Y41243D01*
X140709Y41225D01*
X140722Y41205D01*
X140734Y41185D01*
X140745Y41165D01*
X140755Y41144D01*
X140764Y41122D01*
X140772Y41100D01*
X140779Y41078D01*
X140784Y41055D01*
X140789Y41032D01*
X140791Y41012D01*
Y39240D01*
X140791Y39213D01*
X140789Y39187D01*
X140787Y39160D01*
X140782Y39134D01*
X140777Y39109D01*
X140770Y39083D01*
X140761Y39059D01*
X140752Y39034D01*
X140741Y39010D01*
X140728Y38987D01*
X140715Y38964D01*
X140701Y38942D01*
X140685Y38921D01*
X140668Y38901D01*
X140650Y38881D01*
X140632Y38863D01*
X140612Y38846D01*
X140592Y38829D01*
X140570Y38814D01*
X140548Y38800D01*
X140525Y38787D01*
X140501Y38775D01*
X140477Y38765D01*
X140453Y38756D01*
X140428Y38748D01*
X140402Y38741D01*
X140376Y38736D01*
X140351Y38732D01*
X140324Y38730D01*
X140299Y38728D01*
X139512D01*
X139487Y38730D01*
X139461Y38732D01*
X139435Y38736D01*
X139409Y38741D01*
X139383Y38748D01*
X139358Y38756D01*
X139334Y38765D01*
X139310Y38775D01*
X139286Y38787D01*
X139263Y38800D01*
X139241Y38814D01*
X139219Y38829D01*
X139199Y38846D01*
X139179Y38863D01*
X139161Y38881D01*
X139143Y38901D01*
X139126Y38921D01*
X139110Y38942D01*
X139096Y38964D01*
X139083Y38987D01*
X139070Y39010D01*
X139059Y39034D01*
X139050Y39059D01*
X139041Y39083D01*
X139034Y39109D01*
X139029Y39134D01*
X139024Y39160D01*
X139022Y39187D01*
X139020Y39213D01*
X139020Y39240D01*
Y41012D01*
X139023Y41032D01*
X139027Y41055D01*
X139032Y41078D01*
X139039Y41100D01*
X139047Y41122D01*
X139056Y41144D01*
X139066Y41165D01*
X139077Y41185D01*
X139089Y41205D01*
X139102Y41225D01*
X139116Y41243D01*
X139131Y41261D01*
X139147Y41278D01*
X139164Y41294D01*
X139182Y41309D01*
X139201Y41323D01*
X139220Y41336D01*
X139240Y41348D01*
X139260Y41360D01*
X139281Y41370D01*
X139303Y41379D01*
X139325Y41386D01*
X139347Y41393D01*
X139370Y41399D01*
X139393Y41403D01*
X139416Y41406D01*
X139439Y41408D01*
X139463Y41408D01*
X139486Y41408D01*
X139512Y41405D01*
X140299D01*
X140325Y41408D01*
X140348Y41408D01*
X140372Y41408D01*
D02*
G37*
G36*
X138403D02*
X138426Y41406D01*
X138450Y41403D01*
X138473Y41399D01*
X138495Y41393D01*
X138518Y41386D01*
X138540Y41379D01*
X138561Y41370D01*
X138582Y41360D01*
X138603Y41348D01*
X138623Y41336D01*
X138642Y41323D01*
X138660Y41309D01*
X138678Y41294D01*
X138695Y41278D01*
X138711Y41261D01*
X138726Y41243D01*
X138741Y41225D01*
X138754Y41205D01*
X138766Y41185D01*
X138777Y41165D01*
X138787Y41144D01*
X138796Y41122D01*
X138804Y41100D01*
X138810Y41078D01*
X138816Y41055D01*
X138820Y41032D01*
X138823Y41012D01*
Y39240D01*
X138823Y39213D01*
X138821Y39187D01*
X138818Y39160D01*
X138814Y39134D01*
X138808Y39109D01*
X138801Y39083D01*
X138793Y39059D01*
X138783Y39034D01*
X138772Y39010D01*
X138760Y38987D01*
X138747Y38964D01*
X138732Y38942D01*
X138716Y38921D01*
X138700Y38901D01*
X138682Y38881D01*
X138663Y38863D01*
X138644Y38846D01*
X138623Y38829D01*
X138602Y38814D01*
X138579Y38800D01*
X138557Y38787D01*
X138533Y38775D01*
X138509Y38765D01*
X138484Y38756D01*
X138459Y38748D01*
X138434Y38741D01*
X138408Y38736D01*
X138382Y38732D01*
X138356Y38730D01*
X138331Y38728D01*
X137543D01*
X137518Y38730D01*
X137492Y38732D01*
X137466Y38736D01*
X137440Y38741D01*
X137415Y38748D01*
X137390Y38756D01*
X137365Y38765D01*
X137341Y38775D01*
X137317Y38787D01*
X137295Y38800D01*
X137272Y38814D01*
X137251Y38829D01*
X137230Y38846D01*
X137211Y38863D01*
X137192Y38881D01*
X137174Y38901D01*
X137157Y38921D01*
X137142Y38942D01*
X137127Y38964D01*
X137114Y38987D01*
X137102Y39010D01*
X137091Y39034D01*
X137081Y39059D01*
X137073Y39083D01*
X137066Y39109D01*
X137060Y39134D01*
X137056Y39160D01*
X137053Y39187D01*
X137051Y39213D01*
X137051Y39240D01*
Y41012D01*
X137054Y41032D01*
X137058Y41055D01*
X137064Y41078D01*
X137070Y41100D01*
X137078Y41122D01*
X137087Y41144D01*
X137097Y41165D01*
X137108Y41185D01*
X137120Y41205D01*
X137134Y41225D01*
X137148Y41243D01*
X137163Y41261D01*
X137179Y41278D01*
X137196Y41294D01*
X137214Y41309D01*
X137232Y41323D01*
X137251Y41336D01*
X137271Y41348D01*
X137292Y41360D01*
X137313Y41370D01*
X137334Y41379D01*
X137356Y41386D01*
X137379Y41393D01*
X137401Y41399D01*
X137424Y41403D01*
X137448Y41406D01*
X137471Y41408D01*
X137494Y41408D01*
X137517Y41408D01*
X137543Y41405D01*
X138331D01*
X138357Y41408D01*
X138380Y41408D01*
X138403Y41408D01*
D02*
G37*
G36*
X136435D02*
X136458Y41406D01*
X136481Y41403D01*
X136504Y41399D01*
X136527Y41393D01*
X136549Y41386D01*
X136571Y41379D01*
X136593Y41370D01*
X136614Y41360D01*
X136634Y41348D01*
X136654Y41336D01*
X136673Y41323D01*
X136692Y41309D01*
X136710Y41294D01*
X136726Y41278D01*
X136743Y41261D01*
X136758Y41243D01*
X136772Y41225D01*
X136785Y41205D01*
X136797Y41185D01*
X136809Y41165D01*
X136819Y41144D01*
X136828Y41122D01*
X136835Y41100D01*
X136842Y41078D01*
X136847Y41055D01*
X136852Y41032D01*
X136854Y41012D01*
Y39240D01*
X136854Y39213D01*
X136853Y39187D01*
X136849Y39160D01*
X136845Y39134D01*
X136839Y39109D01*
X136832Y39083D01*
X136824Y39059D01*
X136814Y39034D01*
X136804Y39010D01*
X136792Y38987D01*
X136778Y38964D01*
X136764Y38942D01*
X136748Y38921D01*
X136731Y38901D01*
X136714Y38881D01*
X136695Y38863D01*
X136675Y38846D01*
X136654Y38829D01*
X136633Y38814D01*
X136611Y38800D01*
X136588Y38787D01*
X136565Y38775D01*
X136540Y38765D01*
X136516Y38756D01*
X136491Y38748D01*
X136465Y38741D01*
X136440Y38736D01*
X136414Y38732D01*
X136387Y38730D01*
X136362Y38728D01*
X135575D01*
X135550Y38730D01*
X135523Y38732D01*
X135497Y38736D01*
X135472Y38741D01*
X135446Y38748D01*
X135421Y38756D01*
X135397Y38765D01*
X135372Y38775D01*
X135349Y38787D01*
X135326Y38800D01*
X135304Y38814D01*
X135283Y38829D01*
X135262Y38846D01*
X135242Y38863D01*
X135223Y38881D01*
X135206Y38901D01*
X135189Y38921D01*
X135173Y38942D01*
X135159Y38964D01*
X135145Y38987D01*
X135133Y39010D01*
X135123Y39034D01*
X135113Y39059D01*
X135105Y39083D01*
X135098Y39109D01*
X135092Y39134D01*
X135088Y39160D01*
X135084Y39187D01*
X135083Y39213D01*
X135083Y39240D01*
Y41012D01*
X135085Y41032D01*
X135090Y41055D01*
X135095Y41078D01*
X135102Y41100D01*
X135109Y41122D01*
X135118Y41144D01*
X135128Y41165D01*
X135140Y41185D01*
X135152Y41205D01*
X135165Y41225D01*
X135179Y41243D01*
X135194Y41261D01*
X135211Y41278D01*
X135227Y41294D01*
X135245Y41309D01*
X135264Y41323D01*
X135283Y41336D01*
X135303Y41348D01*
X135323Y41360D01*
X135344Y41370D01*
X135366Y41379D01*
X135388Y41386D01*
X135410Y41393D01*
X135433Y41399D01*
X135456Y41403D01*
X135479Y41406D01*
X135502Y41408D01*
X135526Y41408D01*
X135549Y41408D01*
X135575Y41405D01*
X136362D01*
X136388Y41408D01*
X136411Y41408D01*
X136435Y41408D01*
D02*
G37*
G36*
X134466D02*
X134490Y41406D01*
X134513Y41403D01*
X134536Y41399D01*
X134558Y41393D01*
X134581Y41386D01*
X134603Y41379D01*
X134624Y41370D01*
X134645Y41360D01*
X134666Y41348D01*
X134686Y41336D01*
X134705Y41323D01*
X134723Y41309D01*
X134741Y41294D01*
X134758Y41278D01*
X134774Y41261D01*
X134789Y41243D01*
X134803Y41225D01*
X134817Y41205D01*
X134829Y41185D01*
X134840Y41165D01*
X134850Y41144D01*
X134859Y41122D01*
X134867Y41100D01*
X134873Y41078D01*
X134879Y41055D01*
X134883Y41032D01*
X134886Y41012D01*
Y39240D01*
X134886Y39213D01*
X134884Y39187D01*
X134881Y39160D01*
X134877Y39134D01*
X134871Y39109D01*
X134864Y39083D01*
X134856Y39059D01*
X134846Y39034D01*
X134835Y39010D01*
X134823Y38987D01*
X134810Y38964D01*
X134795Y38942D01*
X134780Y38921D01*
X134763Y38901D01*
X134745Y38881D01*
X134726Y38863D01*
X134707Y38846D01*
X134686Y38829D01*
X134665Y38814D01*
X134642Y38800D01*
X134620Y38787D01*
X134596Y38775D01*
X134572Y38765D01*
X134547Y38756D01*
X134522Y38748D01*
X134497Y38741D01*
X134471Y38736D01*
X134445Y38732D01*
X134419Y38730D01*
X134394Y38728D01*
X133606D01*
X133581Y38730D01*
X133555Y38732D01*
X133529Y38736D01*
X133503Y38741D01*
X133478Y38748D01*
X133453Y38756D01*
X133428Y38765D01*
X133404Y38775D01*
X133380Y38787D01*
X133358Y38800D01*
X133335Y38814D01*
X133314Y38829D01*
X133293Y38846D01*
X133274Y38863D01*
X133255Y38881D01*
X133237Y38901D01*
X133221Y38921D01*
X133205Y38942D01*
X133190Y38964D01*
X133177Y38987D01*
X133165Y39010D01*
X133154Y39034D01*
X133144Y39059D01*
X133136Y39083D01*
X133129Y39109D01*
X133123Y39134D01*
X133119Y39160D01*
X133116Y39187D01*
X133114Y39213D01*
X133114Y39240D01*
Y41012D01*
X133117Y41032D01*
X133121Y41055D01*
X133127Y41078D01*
X133133Y41100D01*
X133141Y41122D01*
X133150Y41144D01*
X133160Y41165D01*
X133171Y41185D01*
X133183Y41205D01*
X133197Y41225D01*
X133211Y41243D01*
X133226Y41261D01*
X133242Y41278D01*
X133259Y41294D01*
X133277Y41309D01*
X133295Y41323D01*
X133314Y41336D01*
X133334Y41348D01*
X133355Y41360D01*
X133376Y41370D01*
X133397Y41379D01*
X133419Y41386D01*
X133442Y41393D01*
X133464Y41399D01*
X133487Y41403D01*
X133510Y41406D01*
X133534Y41408D01*
X133557Y41408D01*
X133580Y41408D01*
X133606Y41405D01*
X134394D01*
X134420Y41408D01*
X134443Y41408D01*
X134466Y41408D01*
D02*
G37*
G36*
X132498D02*
X132521Y41406D01*
X132544Y41403D01*
X132567Y41399D01*
X132590Y41393D01*
X132612Y41386D01*
X132634Y41379D01*
X132656Y41370D01*
X132677Y41360D01*
X132697Y41348D01*
X132717Y41336D01*
X132736Y41323D01*
X132755Y41309D01*
X132773Y41294D01*
X132790Y41278D01*
X132806Y41261D01*
X132821Y41243D01*
X132835Y41225D01*
X132848Y41205D01*
X132860Y41185D01*
X132871Y41165D01*
X132881Y41144D01*
X132890Y41122D01*
X132898Y41100D01*
X132905Y41078D01*
X132910Y41055D01*
X132915Y41032D01*
X132917Y41012D01*
Y39240D01*
X132917Y39213D01*
X132915Y39187D01*
X132913Y39160D01*
X132908Y39134D01*
X132903Y39109D01*
X132896Y39083D01*
X132887Y39059D01*
X132878Y39034D01*
X132867Y39010D01*
X132854Y38987D01*
X132841Y38964D01*
X132827Y38942D01*
X132811Y38921D01*
X132794Y38901D01*
X132776Y38881D01*
X132758Y38863D01*
X132738Y38846D01*
X132718Y38829D01*
X132696Y38814D01*
X132674Y38800D01*
X132651Y38787D01*
X132627Y38775D01*
X132603Y38765D01*
X132579Y38756D01*
X132554Y38748D01*
X132528Y38741D01*
X132502Y38736D01*
X132476Y38732D01*
X132450Y38730D01*
X132425Y38728D01*
X131638D01*
X131613Y38730D01*
X131586Y38732D01*
X131561Y38736D01*
X131535Y38741D01*
X131509Y38748D01*
X131484Y38756D01*
X131460Y38765D01*
X131436Y38775D01*
X131412Y38787D01*
X131389Y38800D01*
X131367Y38814D01*
X131345Y38829D01*
X131325Y38846D01*
X131305Y38863D01*
X131287Y38881D01*
X131269Y38901D01*
X131252Y38921D01*
X131236Y38942D01*
X131222Y38964D01*
X131209Y38987D01*
X131196Y39010D01*
X131185Y39034D01*
X131176Y39059D01*
X131167Y39083D01*
X131160Y39109D01*
X131155Y39134D01*
X131150Y39160D01*
X131148Y39187D01*
X131146Y39213D01*
X131146Y39240D01*
Y41012D01*
X131148Y41032D01*
X131153Y41055D01*
X131158Y41078D01*
X131165Y41100D01*
X131173Y41122D01*
X131182Y41144D01*
X131192Y41165D01*
X131203Y41185D01*
X131215Y41205D01*
X131228Y41225D01*
X131242Y41243D01*
X131257Y41261D01*
X131273Y41278D01*
X131290Y41294D01*
X131308Y41309D01*
X131327Y41323D01*
X131346Y41336D01*
X131366Y41348D01*
X131386Y41360D01*
X131407Y41370D01*
X131429Y41379D01*
X131451Y41386D01*
X131473Y41393D01*
X131496Y41399D01*
X131519Y41403D01*
X131542Y41406D01*
X131565Y41408D01*
X131589Y41408D01*
X131612Y41408D01*
X131638Y41405D01*
X132425D01*
X132451Y41408D01*
X132474Y41408D01*
X132498Y41408D01*
D02*
G37*
G36*
X130529D02*
X130552Y41406D01*
X130576Y41403D01*
X130599Y41399D01*
X130621Y41393D01*
X130644Y41386D01*
X130666Y41379D01*
X130687Y41370D01*
X130708Y41360D01*
X130729Y41348D01*
X130749Y41336D01*
X130768Y41323D01*
X130786Y41309D01*
X130804Y41294D01*
X130821Y41278D01*
X130837Y41261D01*
X130852Y41243D01*
X130866Y41225D01*
X130880Y41205D01*
X130892Y41185D01*
X130903Y41165D01*
X130913Y41144D01*
X130922Y41122D01*
X130930Y41100D01*
X130936Y41078D01*
X130942Y41055D01*
X130946Y41032D01*
X130949Y41012D01*
Y39240D01*
X130949Y39213D01*
X130947Y39187D01*
X130944Y39160D01*
X130940Y39134D01*
X130934Y39109D01*
X130927Y39083D01*
X130919Y39059D01*
X130909Y39034D01*
X130898Y39010D01*
X130886Y38987D01*
X130873Y38964D01*
X130858Y38942D01*
X130842Y38921D01*
X130826Y38901D01*
X130808Y38881D01*
X130789Y38863D01*
X130770Y38846D01*
X130749Y38829D01*
X130728Y38814D01*
X130705Y38800D01*
X130683Y38787D01*
X130659Y38775D01*
X130635Y38765D01*
X130610Y38756D01*
X130585Y38748D01*
X130560Y38741D01*
X130534Y38736D01*
X130508Y38732D01*
X130482Y38730D01*
X130457Y38728D01*
X129669D01*
X129644Y38730D01*
X129618Y38732D01*
X129592Y38736D01*
X129566Y38741D01*
X129541Y38748D01*
X129516Y38756D01*
X129491Y38765D01*
X129467Y38775D01*
X129443Y38787D01*
X129421Y38800D01*
X129398Y38814D01*
X129377Y38829D01*
X129356Y38846D01*
X129337Y38863D01*
X129318Y38881D01*
X129300Y38901D01*
X129283Y38921D01*
X129268Y38942D01*
X129253Y38964D01*
X129240Y38987D01*
X129228Y39010D01*
X129217Y39034D01*
X129207Y39059D01*
X129199Y39083D01*
X129192Y39109D01*
X129186Y39134D01*
X129182Y39160D01*
X129179Y39187D01*
X129177Y39213D01*
X129177Y39240D01*
Y41012D01*
X129180Y41032D01*
X129184Y41055D01*
X129190Y41078D01*
X129196Y41100D01*
X129204Y41122D01*
X129213Y41144D01*
X129223Y41165D01*
X129234Y41185D01*
X129246Y41205D01*
X129260Y41225D01*
X129274Y41243D01*
X129289Y41261D01*
X129305Y41278D01*
X129322Y41294D01*
X129340Y41309D01*
X129358Y41323D01*
X129377Y41336D01*
X129397Y41348D01*
X129418Y41360D01*
X129439Y41370D01*
X129460Y41379D01*
X129482Y41386D01*
X129505Y41393D01*
X129527Y41399D01*
X129550Y41403D01*
X129574Y41406D01*
X129597Y41408D01*
X129620Y41408D01*
X129643Y41408D01*
X129669Y41405D01*
X130457D01*
X130483Y41408D01*
X130506Y41408D01*
X130529Y41408D01*
D02*
G37*
G36*
X128561D02*
X128584Y41406D01*
X128607Y41403D01*
X128630Y41399D01*
X128653Y41393D01*
X128675Y41386D01*
X128697Y41379D01*
X128719Y41370D01*
X128740Y41360D01*
X128760Y41348D01*
X128780Y41336D01*
X128799Y41323D01*
X128818Y41309D01*
X128836Y41294D01*
X128852Y41278D01*
X128869Y41261D01*
X128884Y41243D01*
X128898Y41225D01*
X128911Y41205D01*
X128923Y41185D01*
X128935Y41165D01*
X128945Y41144D01*
X128953Y41122D01*
X128961Y41100D01*
X128968Y41078D01*
X128973Y41055D01*
X128978Y41032D01*
X128980Y41012D01*
Y39240D01*
X128980Y39213D01*
X128979Y39187D01*
X128975Y39160D01*
X128971Y39134D01*
X128965Y39109D01*
X128958Y39083D01*
X128950Y39059D01*
X128940Y39034D01*
X128930Y39010D01*
X128918Y38987D01*
X128904Y38964D01*
X128890Y38942D01*
X128874Y38921D01*
X128857Y38901D01*
X128840Y38881D01*
X128821Y38863D01*
X128801Y38846D01*
X128780Y38829D01*
X128759Y38814D01*
X128737Y38800D01*
X128714Y38787D01*
X128691Y38775D01*
X128666Y38765D01*
X128642Y38756D01*
X128617Y38748D01*
X128591Y38741D01*
X128566Y38736D01*
X128540Y38732D01*
X128513Y38730D01*
X128488Y38728D01*
X127701D01*
X127676Y38730D01*
X127649Y38732D01*
X127623Y38736D01*
X127598Y38741D01*
X127572Y38748D01*
X127547Y38756D01*
X127523Y38765D01*
X127498Y38775D01*
X127475Y38787D01*
X127452Y38800D01*
X127430Y38814D01*
X127409Y38829D01*
X127388Y38846D01*
X127368Y38863D01*
X127349Y38881D01*
X127332Y38901D01*
X127315Y38921D01*
X127299Y38942D01*
X127285Y38964D01*
X127271Y38987D01*
X127259Y39010D01*
X127249Y39034D01*
X127239Y39059D01*
X127231Y39083D01*
X127224Y39109D01*
X127218Y39134D01*
X127213Y39160D01*
X127210Y39187D01*
X127209Y39213D01*
X127209Y39240D01*
Y41012D01*
X127211Y41032D01*
X127216Y41055D01*
X127221Y41078D01*
X127228Y41100D01*
X127235Y41122D01*
X127244Y41144D01*
X127254Y41165D01*
X127266Y41185D01*
X127278Y41205D01*
X127291Y41225D01*
X127305Y41243D01*
X127320Y41261D01*
X127337Y41278D01*
X127353Y41294D01*
X127371Y41309D01*
X127390Y41323D01*
X127409Y41336D01*
X127429Y41348D01*
X127449Y41360D01*
X127470Y41370D01*
X127492Y41379D01*
X127514Y41386D01*
X127536Y41393D01*
X127559Y41399D01*
X127582Y41403D01*
X127605Y41406D01*
X127628Y41408D01*
X127652Y41408D01*
X127675Y41408D01*
X127701Y41405D01*
X128488D01*
X128514Y41408D01*
X128537Y41408D01*
X128561Y41408D01*
D02*
G37*
G36*
X142374Y36386D02*
X142400Y36384D01*
X142426Y36381D01*
X142452Y36377D01*
X142478Y36371D01*
X142503Y36364D01*
X142528Y36356D01*
X142552Y36346D01*
X142576Y36335D01*
X142600Y36323D01*
X142622Y36310D01*
X142644Y36295D01*
X142665Y36279D01*
X142686Y36263D01*
X142705Y36245D01*
X142724Y36226D01*
X142741Y36207D01*
X142757Y36186D01*
X142772Y36165D01*
X142787Y36142D01*
X142800Y36120D01*
X142811Y36096D01*
X142822Y36072D01*
X142831Y36047D01*
X142839Y36022D01*
X142845Y35997D01*
X142851Y35971D01*
X142855Y35945D01*
X142857Y35919D01*
X142858Y35894D01*
Y35106D01*
X142857Y35081D01*
X142855Y35055D01*
X142851Y35029D01*
X142845Y35003D01*
X142839Y34978D01*
X142831Y34953D01*
X142822Y34928D01*
X142811Y34904D01*
X142800Y34880D01*
X142787Y34858D01*
X142772Y34835D01*
X142757Y34814D01*
X142741Y34793D01*
X142724Y34774D01*
X142705Y34755D01*
X142686Y34737D01*
X142665Y34721D01*
X142644Y34705D01*
X142622Y34690D01*
X142600Y34677D01*
X142576Y34665D01*
X142552Y34654D01*
X142528Y34644D01*
X142503Y34636D01*
X142478Y34629D01*
X142452Y34623D01*
X142426Y34619D01*
X142400Y34616D01*
X142374Y34614D01*
X142347Y34614D01*
X140575D01*
X140554Y34617D01*
X140531Y34621D01*
X140509Y34627D01*
X140486Y34633D01*
X140464Y34641D01*
X140443Y34650D01*
X140422Y34660D01*
X140401Y34671D01*
X140381Y34683D01*
X140362Y34697D01*
X140344Y34711D01*
X140326Y34726D01*
X140309Y34742D01*
X140293Y34759D01*
X140278Y34777D01*
X140263Y34795D01*
X140250Y34814D01*
X140238Y34834D01*
X140227Y34855D01*
X140217Y34876D01*
X140208Y34897D01*
X140200Y34919D01*
X140194Y34942D01*
X140188Y34964D01*
X140184Y34987D01*
X140181Y35010D01*
X140179Y35034D01*
X140178Y35057D01*
X140179Y35080D01*
X140181Y35106D01*
Y35894D01*
X140179Y35920D01*
X140178Y35943D01*
X140179Y35966D01*
X140181Y35989D01*
X140184Y36013D01*
X140188Y36036D01*
X140194Y36058D01*
X140200Y36081D01*
X140208Y36103D01*
X140217Y36124D01*
X140227Y36145D01*
X140238Y36166D01*
X140250Y36186D01*
X140263Y36205D01*
X140278Y36223D01*
X140293Y36241D01*
X140309Y36258D01*
X140326Y36274D01*
X140344Y36289D01*
X140362Y36303D01*
X140381Y36317D01*
X140401Y36329D01*
X140422Y36340D01*
X140443Y36350D01*
X140464Y36359D01*
X140486Y36367D01*
X140509Y36373D01*
X140531Y36379D01*
X140554Y36383D01*
X140575Y36386D01*
X142347D01*
X142374Y36386D01*
D02*
G37*
G36*
X127334D02*
X127361Y36384D01*
X127387Y36381D01*
X127413Y36377D01*
X127438Y36371D01*
X127464Y36364D01*
X127489Y36356D01*
X127513Y36346D01*
X127537Y36335D01*
X127560Y36323D01*
X127583Y36310D01*
X127605Y36295D01*
X127626Y36279D01*
X127646Y36263D01*
X127666Y36245D01*
X127684Y36226D01*
X127701Y36207D01*
X127718Y36186D01*
X127733Y36165D01*
X127747Y36142D01*
X127760Y36120D01*
X127772Y36096D01*
X127782Y36072D01*
X127792Y36047D01*
X127799Y36022D01*
X127806Y35997D01*
X127811Y35971D01*
X127815Y35945D01*
X127818Y35919D01*
X127819Y35894D01*
Y35106D01*
X127818Y35081D01*
X127815Y35055D01*
X127811Y35029D01*
X127806Y35003D01*
X127799Y34978D01*
X127792Y34953D01*
X127782Y34928D01*
X127772Y34904D01*
X127760Y34880D01*
X127747Y34858D01*
X127733Y34835D01*
X127718Y34814D01*
X127701Y34793D01*
X127684Y34774D01*
X127666Y34755D01*
X127646Y34737D01*
X127626Y34721D01*
X127605Y34705D01*
X127583Y34690D01*
X127560Y34677D01*
X127537Y34665D01*
X127513Y34654D01*
X127489Y34644D01*
X127464Y34636D01*
X127438Y34629D01*
X127413Y34623D01*
X127387Y34619D01*
X127361Y34616D01*
X127334Y34614D01*
X127307Y34614D01*
X125535D01*
X125515Y34617D01*
X125492Y34621D01*
X125469Y34627D01*
X125447Y34633D01*
X125425Y34641D01*
X125403Y34650D01*
X125382Y34660D01*
X125362Y34671D01*
X125342Y34683D01*
X125323Y34697D01*
X125304Y34711D01*
X125286Y34726D01*
X125269Y34742D01*
X125253Y34759D01*
X125238Y34777D01*
X125224Y34795D01*
X125211Y34814D01*
X125199Y34834D01*
X125188Y34855D01*
X125178Y34876D01*
X125169Y34897D01*
X125161Y34919D01*
X125154Y34942D01*
X125149Y34964D01*
X125145Y34987D01*
X125142Y35010D01*
X125140Y35034D01*
X125139Y35057D01*
X125140Y35080D01*
X125142Y35106D01*
Y35894D01*
X125140Y35920D01*
X125139Y35943D01*
X125140Y35966D01*
X125142Y35989D01*
X125145Y36013D01*
X125149Y36036D01*
X125154Y36058D01*
X125161Y36081D01*
X125169Y36103D01*
X125178Y36124D01*
X125188Y36145D01*
X125199Y36166D01*
X125211Y36186D01*
X125224Y36205D01*
X125238Y36223D01*
X125253Y36241D01*
X125269Y36258D01*
X125286Y36274D01*
X125304Y36289D01*
X125323Y36303D01*
X125342Y36317D01*
X125362Y36329D01*
X125382Y36340D01*
X125403Y36350D01*
X125425Y36359D01*
X125447Y36367D01*
X125469Y36373D01*
X125492Y36379D01*
X125515Y36383D01*
X125535Y36386D01*
X127307D01*
X127334Y36386D01*
D02*
G37*
G36*
X140324Y32271D02*
X140351Y32268D01*
X140376Y32264D01*
X140402Y32259D01*
X140428Y32252D01*
X140453Y32244D01*
X140477Y32235D01*
X140501Y32225D01*
X140525Y32213D01*
X140548Y32200D01*
X140570Y32186D01*
X140592Y32171D01*
X140612Y32154D01*
X140632Y32137D01*
X140650Y32118D01*
X140668Y32099D01*
X140685Y32079D01*
X140701Y32058D01*
X140715Y32036D01*
X140728Y32013D01*
X140741Y31990D01*
X140752Y31966D01*
X140761Y31941D01*
X140770Y31916D01*
X140777Y31891D01*
X140782Y31866D01*
X140787Y31840D01*
X140789Y31813D01*
X140791Y31787D01*
X140791Y31760D01*
Y29988D01*
X140789Y29968D01*
X140784Y29945D01*
X140779Y29922D01*
X140772Y29900D01*
X140764Y29878D01*
X140755Y29856D01*
X140745Y29835D01*
X140734Y29815D01*
X140722Y29795D01*
X140709Y29776D01*
X140695Y29757D01*
X140680Y29739D01*
X140664Y29722D01*
X140647Y29706D01*
X140629Y29691D01*
X140610Y29677D01*
X140591Y29664D01*
X140571Y29651D01*
X140551Y29640D01*
X140530Y29630D01*
X140508Y29621D01*
X140486Y29614D01*
X140464Y29607D01*
X140441Y29601D01*
X140418Y29597D01*
X140395Y29594D01*
X140372Y29592D01*
X140348Y29592D01*
X140325Y29592D01*
X140299Y29594D01*
X139512D01*
X139486Y29592D01*
X139463Y29592D01*
X139439Y29592D01*
X139416Y29594D01*
X139393Y29597D01*
X139370Y29601D01*
X139347Y29607D01*
X139325Y29614D01*
X139303Y29621D01*
X139281Y29630D01*
X139260Y29640D01*
X139240Y29651D01*
X139220Y29664D01*
X139201Y29677D01*
X139182Y29691D01*
X139164Y29706D01*
X139147Y29722D01*
X139131Y29739D01*
X139116Y29757D01*
X139102Y29776D01*
X139089Y29795D01*
X139077Y29815D01*
X139066Y29835D01*
X139056Y29856D01*
X139047Y29878D01*
X139039Y29900D01*
X139032Y29922D01*
X139027Y29945D01*
X139023Y29968D01*
X139020Y29988D01*
Y31760D01*
X139020Y31787D01*
X139022Y31813D01*
X139024Y31840D01*
X139029Y31866D01*
X139034Y31891D01*
X139041Y31916D01*
X139050Y31941D01*
X139059Y31966D01*
X139070Y31990D01*
X139083Y32013D01*
X139096Y32036D01*
X139110Y32058D01*
X139126Y32079D01*
X139143Y32099D01*
X139161Y32118D01*
X139179Y32137D01*
X139199Y32154D01*
X139219Y32171D01*
X139241Y32186D01*
X139263Y32200D01*
X139286Y32213D01*
X139310Y32225D01*
X139334Y32235D01*
X139358Y32244D01*
X139383Y32252D01*
X139409Y32259D01*
X139435Y32264D01*
X139461Y32268D01*
X139487Y32271D01*
X139512Y32272D01*
X140299D01*
X140324Y32271D01*
D02*
G37*
G36*
X138356D02*
X138382Y32268D01*
X138408Y32264D01*
X138434Y32259D01*
X138459Y32252D01*
X138484Y32244D01*
X138509Y32235D01*
X138533Y32225D01*
X138557Y32213D01*
X138579Y32200D01*
X138602Y32186D01*
X138623Y32171D01*
X138644Y32154D01*
X138663Y32137D01*
X138682Y32118D01*
X138700Y32099D01*
X138716Y32079D01*
X138732Y32058D01*
X138747Y32036D01*
X138760Y32013D01*
X138772Y31990D01*
X138783Y31966D01*
X138793Y31941D01*
X138801Y31916D01*
X138808Y31891D01*
X138814Y31866D01*
X138818Y31840D01*
X138821Y31813D01*
X138823Y31787D01*
X138823Y31760D01*
Y29988D01*
X138820Y29968D01*
X138816Y29945D01*
X138810Y29922D01*
X138804Y29900D01*
X138796Y29878D01*
X138787Y29856D01*
X138777Y29835D01*
X138766Y29815D01*
X138754Y29795D01*
X138741Y29776D01*
X138726Y29757D01*
X138711Y29739D01*
X138695Y29722D01*
X138678Y29706D01*
X138660Y29691D01*
X138642Y29677D01*
X138623Y29664D01*
X138603Y29651D01*
X138582Y29640D01*
X138561Y29630D01*
X138540Y29621D01*
X138518Y29614D01*
X138495Y29607D01*
X138473Y29601D01*
X138450Y29597D01*
X138426Y29594D01*
X138403Y29592D01*
X138380Y29592D01*
X138357Y29592D01*
X138331Y29594D01*
X137543D01*
X137517Y29592D01*
X137494Y29592D01*
X137471Y29592D01*
X137448Y29594D01*
X137424Y29597D01*
X137401Y29601D01*
X137379Y29607D01*
X137356Y29614D01*
X137334Y29621D01*
X137313Y29630D01*
X137292Y29640D01*
X137271Y29651D01*
X137251Y29664D01*
X137232Y29677D01*
X137214Y29691D01*
X137196Y29706D01*
X137179Y29722D01*
X137163Y29739D01*
X137148Y29757D01*
X137134Y29776D01*
X137120Y29795D01*
X137108Y29815D01*
X137097Y29835D01*
X137087Y29856D01*
X137078Y29878D01*
X137070Y29900D01*
X137064Y29922D01*
X137058Y29945D01*
X137054Y29968D01*
X137051Y29988D01*
Y31760D01*
X137051Y31787D01*
X137053Y31813D01*
X137056Y31840D01*
X137060Y31866D01*
X137066Y31891D01*
X137073Y31916D01*
X137081Y31941D01*
X137091Y31966D01*
X137102Y31990D01*
X137114Y32013D01*
X137127Y32036D01*
X137142Y32058D01*
X137157Y32079D01*
X137174Y32099D01*
X137192Y32118D01*
X137211Y32137D01*
X137230Y32154D01*
X137251Y32171D01*
X137272Y32186D01*
X137295Y32200D01*
X137317Y32213D01*
X137341Y32225D01*
X137365Y32235D01*
X137390Y32244D01*
X137415Y32252D01*
X137440Y32259D01*
X137466Y32264D01*
X137492Y32268D01*
X137518Y32271D01*
X137543Y32272D01*
X138331D01*
X138356Y32271D01*
D02*
G37*
G36*
X136387D02*
X136414Y32268D01*
X136440Y32264D01*
X136465Y32259D01*
X136491Y32252D01*
X136516Y32244D01*
X136540Y32235D01*
X136565Y32225D01*
X136588Y32213D01*
X136611Y32200D01*
X136633Y32186D01*
X136654Y32171D01*
X136675Y32154D01*
X136695Y32137D01*
X136714Y32118D01*
X136731Y32099D01*
X136748Y32079D01*
X136764Y32058D01*
X136778Y32036D01*
X136792Y32013D01*
X136804Y31990D01*
X136814Y31966D01*
X136824Y31941D01*
X136832Y31916D01*
X136839Y31891D01*
X136845Y31866D01*
X136849Y31840D01*
X136853Y31813D01*
X136854Y31787D01*
X136854Y31760D01*
Y29988D01*
X136852Y29968D01*
X136847Y29945D01*
X136842Y29922D01*
X136835Y29900D01*
X136828Y29878D01*
X136819Y29856D01*
X136809Y29835D01*
X136797Y29815D01*
X136785Y29795D01*
X136772Y29776D01*
X136758Y29757D01*
X136743Y29739D01*
X136726Y29722D01*
X136710Y29706D01*
X136692Y29691D01*
X136673Y29677D01*
X136654Y29664D01*
X136634Y29651D01*
X136614Y29640D01*
X136593Y29630D01*
X136571Y29621D01*
X136549Y29614D01*
X136527Y29607D01*
X136504Y29601D01*
X136481Y29597D01*
X136458Y29594D01*
X136435Y29592D01*
X136411Y29592D01*
X136388Y29592D01*
X136362Y29594D01*
X135575D01*
X135549Y29592D01*
X135526Y29592D01*
X135502Y29592D01*
X135479Y29594D01*
X135456Y29597D01*
X135433Y29601D01*
X135410Y29607D01*
X135388Y29614D01*
X135366Y29621D01*
X135344Y29630D01*
X135323Y29640D01*
X135303Y29651D01*
X135283Y29664D01*
X135264Y29677D01*
X135245Y29691D01*
X135227Y29706D01*
X135211Y29722D01*
X135194Y29739D01*
X135179Y29757D01*
X135165Y29776D01*
X135152Y29795D01*
X135140Y29815D01*
X135128Y29835D01*
X135118Y29856D01*
X135109Y29878D01*
X135102Y29900D01*
X135095Y29922D01*
X135090Y29945D01*
X135085Y29968D01*
X135083Y29988D01*
Y31760D01*
X135083Y31787D01*
X135084Y31813D01*
X135088Y31840D01*
X135092Y31866D01*
X135098Y31891D01*
X135105Y31916D01*
X135113Y31941D01*
X135123Y31966D01*
X135133Y31990D01*
X135145Y32013D01*
X135159Y32036D01*
X135173Y32058D01*
X135189Y32079D01*
X135206Y32099D01*
X135223Y32118D01*
X135242Y32137D01*
X135262Y32154D01*
X135283Y32171D01*
X135304Y32186D01*
X135326Y32200D01*
X135349Y32213D01*
X135372Y32225D01*
X135397Y32235D01*
X135421Y32244D01*
X135446Y32252D01*
X135472Y32259D01*
X135497Y32264D01*
X135523Y32268D01*
X135550Y32271D01*
X135575Y32272D01*
X136362D01*
X136387Y32271D01*
D02*
G37*
G36*
X134419D02*
X134445Y32268D01*
X134471Y32264D01*
X134497Y32259D01*
X134522Y32252D01*
X134547Y32244D01*
X134572Y32235D01*
X134596Y32225D01*
X134620Y32213D01*
X134642Y32200D01*
X134665Y32186D01*
X134686Y32171D01*
X134707Y32154D01*
X134726Y32137D01*
X134745Y32118D01*
X134763Y32099D01*
X134780Y32079D01*
X134795Y32058D01*
X134810Y32036D01*
X134823Y32013D01*
X134835Y31990D01*
X134846Y31966D01*
X134856Y31941D01*
X134864Y31916D01*
X134871Y31891D01*
X134877Y31866D01*
X134881Y31840D01*
X134884Y31813D01*
X134886Y31787D01*
X134886Y31760D01*
Y29988D01*
X134883Y29968D01*
X134879Y29945D01*
X134873Y29922D01*
X134867Y29900D01*
X134859Y29878D01*
X134850Y29856D01*
X134840Y29835D01*
X134829Y29815D01*
X134817Y29795D01*
X134803Y29776D01*
X134789Y29757D01*
X134774Y29739D01*
X134758Y29722D01*
X134741Y29706D01*
X134723Y29691D01*
X134705Y29677D01*
X134686Y29664D01*
X134666Y29651D01*
X134645Y29640D01*
X134624Y29630D01*
X134603Y29621D01*
X134581Y29614D01*
X134558Y29607D01*
X134536Y29601D01*
X134513Y29597D01*
X134490Y29594D01*
X134466Y29592D01*
X134443Y29592D01*
X134420Y29592D01*
X134394Y29594D01*
X133606D01*
X133580Y29592D01*
X133557Y29592D01*
X133534Y29592D01*
X133510Y29594D01*
X133487Y29597D01*
X133464Y29601D01*
X133442Y29607D01*
X133419Y29614D01*
X133397Y29621D01*
X133376Y29630D01*
X133355Y29640D01*
X133334Y29651D01*
X133314Y29664D01*
X133295Y29677D01*
X133277Y29691D01*
X133259Y29706D01*
X133242Y29722D01*
X133226Y29739D01*
X133211Y29757D01*
X133197Y29776D01*
X133183Y29795D01*
X133171Y29815D01*
X133160Y29835D01*
X133150Y29856D01*
X133141Y29878D01*
X133133Y29900D01*
X133127Y29922D01*
X133121Y29945D01*
X133117Y29968D01*
X133114Y29988D01*
Y31760D01*
X133114Y31787D01*
X133116Y31813D01*
X133119Y31840D01*
X133123Y31866D01*
X133129Y31891D01*
X133136Y31916D01*
X133144Y31941D01*
X133154Y31966D01*
X133165Y31990D01*
X133177Y32013D01*
X133190Y32036D01*
X133205Y32058D01*
X133221Y32079D01*
X133237Y32099D01*
X133255Y32118D01*
X133274Y32137D01*
X133293Y32154D01*
X133314Y32171D01*
X133335Y32186D01*
X133358Y32200D01*
X133380Y32213D01*
X133404Y32225D01*
X133428Y32235D01*
X133453Y32244D01*
X133478Y32252D01*
X133503Y32259D01*
X133529Y32264D01*
X133555Y32268D01*
X133581Y32271D01*
X133606Y32272D01*
X134394D01*
X134419Y32271D01*
D02*
G37*
G36*
X132450D02*
X132476Y32268D01*
X132502Y32264D01*
X132528Y32259D01*
X132554Y32252D01*
X132579Y32244D01*
X132603Y32235D01*
X132627Y32225D01*
X132651Y32213D01*
X132674Y32200D01*
X132696Y32186D01*
X132718Y32171D01*
X132738Y32154D01*
X132758Y32137D01*
X132776Y32118D01*
X132794Y32099D01*
X132811Y32079D01*
X132827Y32058D01*
X132841Y32036D01*
X132854Y32013D01*
X132867Y31990D01*
X132878Y31966D01*
X132887Y31941D01*
X132896Y31916D01*
X132903Y31891D01*
X132908Y31866D01*
X132913Y31840D01*
X132915Y31813D01*
X132917Y31787D01*
X132917Y31760D01*
Y29988D01*
X132915Y29968D01*
X132910Y29945D01*
X132905Y29922D01*
X132898Y29900D01*
X132890Y29878D01*
X132881Y29856D01*
X132871Y29835D01*
X132860Y29815D01*
X132848Y29795D01*
X132835Y29776D01*
X132821Y29757D01*
X132806Y29739D01*
X132790Y29722D01*
X132773Y29706D01*
X132755Y29691D01*
X132736Y29677D01*
X132717Y29664D01*
X132697Y29651D01*
X132677Y29640D01*
X132656Y29630D01*
X132634Y29621D01*
X132612Y29614D01*
X132590Y29607D01*
X132567Y29601D01*
X132544Y29597D01*
X132521Y29594D01*
X132498Y29592D01*
X132474Y29592D01*
X132451Y29592D01*
X132425Y29594D01*
X131638D01*
X131612Y29592D01*
X131589Y29592D01*
X131565Y29592D01*
X131542Y29594D01*
X131519Y29597D01*
X131496Y29601D01*
X131473Y29607D01*
X131451Y29614D01*
X131429Y29621D01*
X131407Y29630D01*
X131386Y29640D01*
X131366Y29651D01*
X131346Y29664D01*
X131327Y29677D01*
X131308Y29691D01*
X131290Y29706D01*
X131273Y29722D01*
X131257Y29739D01*
X131242Y29757D01*
X131228Y29776D01*
X131215Y29795D01*
X131203Y29815D01*
X131192Y29835D01*
X131182Y29856D01*
X131173Y29878D01*
X131165Y29900D01*
X131158Y29922D01*
X131153Y29945D01*
X131148Y29968D01*
X131146Y29988D01*
Y31760D01*
X131146Y31787D01*
X131148Y31813D01*
X131150Y31840D01*
X131155Y31866D01*
X131160Y31891D01*
X131167Y31916D01*
X131176Y31941D01*
X131185Y31966D01*
X131196Y31990D01*
X131209Y32013D01*
X131222Y32036D01*
X131236Y32058D01*
X131252Y32079D01*
X131269Y32099D01*
X131287Y32118D01*
X131305Y32137D01*
X131325Y32154D01*
X131345Y32171D01*
X131367Y32186D01*
X131389Y32200D01*
X131412Y32213D01*
X131436Y32225D01*
X131460Y32235D01*
X131484Y32244D01*
X131509Y32252D01*
X131535Y32259D01*
X131561Y32264D01*
X131586Y32268D01*
X131613Y32271D01*
X131638Y32272D01*
X132425D01*
X132450Y32271D01*
D02*
G37*
G36*
X130482D02*
X130508Y32268D01*
X130534Y32264D01*
X130560Y32259D01*
X130585Y32252D01*
X130610Y32244D01*
X130635Y32235D01*
X130659Y32225D01*
X130683Y32213D01*
X130705Y32200D01*
X130728Y32186D01*
X130749Y32171D01*
X130770Y32154D01*
X130789Y32137D01*
X130808Y32118D01*
X130826Y32099D01*
X130842Y32079D01*
X130858Y32058D01*
X130873Y32036D01*
X130886Y32013D01*
X130898Y31990D01*
X130909Y31966D01*
X130919Y31941D01*
X130927Y31916D01*
X130934Y31891D01*
X130940Y31866D01*
X130944Y31840D01*
X130947Y31813D01*
X130949Y31787D01*
X130949Y31760D01*
Y29988D01*
X130946Y29968D01*
X130942Y29945D01*
X130936Y29922D01*
X130930Y29900D01*
X130922Y29878D01*
X130913Y29856D01*
X130903Y29835D01*
X130892Y29815D01*
X130880Y29795D01*
X130866Y29776D01*
X130852Y29757D01*
X130837Y29739D01*
X130821Y29722D01*
X130804Y29706D01*
X130786Y29691D01*
X130768Y29677D01*
X130749Y29664D01*
X130729Y29651D01*
X130708Y29640D01*
X130687Y29630D01*
X130666Y29621D01*
X130644Y29614D01*
X130621Y29607D01*
X130599Y29601D01*
X130576Y29597D01*
X130552Y29594D01*
X130529Y29592D01*
X130506Y29592D01*
X130483Y29592D01*
X130457Y29594D01*
X129669D01*
X129643Y29592D01*
X129620Y29592D01*
X129597Y29592D01*
X129574Y29594D01*
X129550Y29597D01*
X129527Y29601D01*
X129505Y29607D01*
X129482Y29614D01*
X129460Y29621D01*
X129439Y29630D01*
X129418Y29640D01*
X129397Y29651D01*
X129377Y29664D01*
X129358Y29677D01*
X129340Y29691D01*
X129322Y29706D01*
X129305Y29722D01*
X129289Y29739D01*
X129274Y29757D01*
X129260Y29776D01*
X129246Y29795D01*
X129234Y29815D01*
X129223Y29835D01*
X129213Y29856D01*
X129204Y29878D01*
X129196Y29900D01*
X129190Y29922D01*
X129184Y29945D01*
X129180Y29968D01*
X129177Y29988D01*
Y31760D01*
X129177Y31787D01*
X129179Y31813D01*
X129182Y31840D01*
X129186Y31866D01*
X129192Y31891D01*
X129199Y31916D01*
X129207Y31941D01*
X129217Y31966D01*
X129228Y31990D01*
X129240Y32013D01*
X129253Y32036D01*
X129268Y32058D01*
X129283Y32079D01*
X129300Y32099D01*
X129318Y32118D01*
X129337Y32137D01*
X129356Y32154D01*
X129377Y32171D01*
X129398Y32186D01*
X129421Y32200D01*
X129443Y32213D01*
X129467Y32225D01*
X129491Y32235D01*
X129516Y32244D01*
X129541Y32252D01*
X129566Y32259D01*
X129592Y32264D01*
X129618Y32268D01*
X129644Y32271D01*
X129669Y32272D01*
X130457D01*
X130482Y32271D01*
D02*
G37*
G36*
X128513D02*
X128540Y32268D01*
X128566Y32264D01*
X128591Y32259D01*
X128617Y32252D01*
X128642Y32244D01*
X128666Y32235D01*
X128691Y32225D01*
X128714Y32213D01*
X128737Y32200D01*
X128759Y32186D01*
X128780Y32171D01*
X128801Y32154D01*
X128821Y32137D01*
X128840Y32118D01*
X128857Y32099D01*
X128874Y32079D01*
X128890Y32058D01*
X128904Y32036D01*
X128918Y32013D01*
X128930Y31990D01*
X128940Y31966D01*
X128950Y31941D01*
X128958Y31916D01*
X128965Y31891D01*
X128971Y31866D01*
X128975Y31840D01*
X128979Y31813D01*
X128980Y31787D01*
X128980Y31760D01*
Y29988D01*
X128978Y29968D01*
X128973Y29945D01*
X128968Y29922D01*
X128961Y29900D01*
X128953Y29878D01*
X128945Y29856D01*
X128935Y29835D01*
X128923Y29815D01*
X128911Y29795D01*
X128898Y29776D01*
X128884Y29757D01*
X128869Y29739D01*
X128852Y29722D01*
X128836Y29706D01*
X128818Y29691D01*
X128799Y29677D01*
X128780Y29664D01*
X128760Y29651D01*
X128740Y29640D01*
X128719Y29630D01*
X128697Y29621D01*
X128675Y29614D01*
X128653Y29607D01*
X128630Y29601D01*
X128607Y29597D01*
X128584Y29594D01*
X128561Y29592D01*
X128537Y29592D01*
X128514Y29592D01*
X128488Y29594D01*
X127701D01*
X127675Y29592D01*
X127652Y29592D01*
X127628Y29592D01*
X127605Y29594D01*
X127582Y29597D01*
X127559Y29601D01*
X127536Y29607D01*
X127514Y29614D01*
X127492Y29621D01*
X127470Y29630D01*
X127449Y29640D01*
X127429Y29651D01*
X127409Y29664D01*
X127390Y29677D01*
X127371Y29691D01*
X127353Y29706D01*
X127337Y29722D01*
X127320Y29739D01*
X127305Y29757D01*
X127291Y29776D01*
X127278Y29795D01*
X127266Y29815D01*
X127254Y29835D01*
X127244Y29856D01*
X127235Y29878D01*
X127228Y29900D01*
X127221Y29922D01*
X127216Y29945D01*
X127211Y29968D01*
X127209Y29988D01*
Y31760D01*
X127209Y31787D01*
X127210Y31813D01*
X127213Y31840D01*
X127218Y31866D01*
X127224Y31891D01*
X127231Y31916D01*
X127239Y31941D01*
X127249Y31966D01*
X127259Y31990D01*
X127271Y32013D01*
X127285Y32036D01*
X127299Y32058D01*
X127315Y32079D01*
X127332Y32099D01*
X127349Y32118D01*
X127368Y32137D01*
X127388Y32154D01*
X127409Y32171D01*
X127430Y32186D01*
X127452Y32200D01*
X127475Y32213D01*
X127498Y32225D01*
X127523Y32235D01*
X127547Y32244D01*
X127572Y32252D01*
X127598Y32259D01*
X127623Y32264D01*
X127649Y32268D01*
X127676Y32271D01*
X127701Y32272D01*
X128488D01*
X128513Y32271D01*
D02*
G37*
D34*
X101500Y49000D02*
D03*
X96500D02*
D03*
X91500D02*
D03*
X86500D02*
D03*
X81500D02*
D03*
X76500D02*
D03*
X71500D02*
D03*
X66500D02*
D03*
X61500D02*
D03*
X56500D02*
D03*
X51500D02*
D03*
X46500D02*
D03*
D35*
X108449Y118921D02*
D03*
Y113921D02*
D03*
Y108921D02*
D03*
Y103921D02*
D03*
Y98921D02*
D03*
Y93921D02*
D03*
Y88921D02*
D03*
Y83921D02*
D03*
Y78921D02*
D03*
Y73921D02*
D03*
Y68921D02*
D03*
Y63921D02*
D03*
Y58921D02*
D03*
Y53921D02*
D03*
X39551D02*
D03*
Y58921D02*
D03*
Y63921D02*
D03*
Y68921D02*
D03*
Y73921D02*
D03*
Y78921D02*
D03*
Y83921D02*
D03*
Y88921D02*
D03*
Y93921D02*
D03*
Y98921D02*
D03*
Y103921D02*
D03*
Y108921D02*
D03*
Y113921D02*
D03*
Y118921D02*
D03*
D36*
X74551Y103764D02*
D03*
X68646D02*
D03*
X62740D02*
D03*
X74551Y91953D02*
D03*
X68646D02*
D03*
X62740D02*
D03*
X74551Y97858D02*
D03*
X62740D02*
D03*
X68646D02*
D03*
D37*
X123500Y69949D02*
D03*
Y51051D02*
D03*
X10000Y95551D02*
D03*
Y114449D02*
D03*
D38*
X61402Y30039D02*
D03*
X86598D02*
D03*
X64551D02*
D03*
X83449D02*
D03*
D39*
X74984D02*
D03*
X73016D02*
D03*
X76953D02*
D03*
X78921D02*
D03*
X80890D02*
D03*
X71047D02*
D03*
X69079D02*
D03*
X67110D02*
D03*
D40*
X140500Y64047D02*
D03*
Y69953D02*
D03*
X28500Y98547D02*
D03*
Y104453D02*
D03*
D41*
X135000Y64047D02*
D03*
Y69953D02*
D03*
D42*
X40500Y27500D02*
D03*
D43*
X33000Y38177D02*
D03*
X38000D02*
D03*
X43000D02*
D03*
X48000D02*
D03*
Y16823D02*
D03*
X43000D02*
D03*
X38000D02*
D03*
X33000D02*
D03*
D44*
X33039Y8500D02*
D03*
X37961D02*
D03*
X135539Y47500D02*
D03*
X140461D02*
D03*
X102039Y8000D02*
D03*
X106961D02*
D03*
X135539Y54500D02*
D03*
X140461D02*
D03*
D45*
X28500Y116461D02*
D03*
Y111539D02*
D03*
D46*
X22000Y111244D02*
D03*
Y116756D02*
D03*
Y98744D02*
D03*
Y104256D02*
D03*
D47*
X134047Y80500D02*
D03*
X139953D02*
D03*
X92000Y39000D02*
D03*
X86094D02*
D03*
X103047D02*
D03*
X108953D02*
D03*
D48*
X119047Y80500D02*
D03*
X124953D02*
D03*
D49*
X99618Y23831D02*
D03*
X104539D02*
D03*
X109461D02*
D03*
X114382D02*
D03*
Y15169D02*
D03*
X109461D02*
D03*
X104539D02*
D03*
X99618D02*
D03*
D50*
X56992Y11319D02*
D03*
X91008D02*
D03*
D51*
X56992Y27776D02*
D03*
X91008D02*
D03*
D52*
X85378Y25807D02*
D03*
X62622D02*
D03*
D53*
X13681Y45000D02*
D03*
Y68000D02*
D03*
D54*
Y35000D02*
D03*
Y58000D02*
D03*
D55*
X142000Y111000D02*
D03*
X120000D02*
D03*
X131000D02*
D03*
D56*
X142000Y101000D02*
D03*
Y91000D02*
D03*
X120000D02*
D03*
Y101000D02*
D03*
X131000Y91000D02*
D03*
Y101000D02*
D03*
D57*
X133000Y15000D02*
D03*
Y133000D02*
D03*
X15000Y15000D02*
D03*
Y133000D02*
D03*
D58*
X134000Y35500D02*
D03*
X130500Y45500D02*
D03*
X125500Y33000D02*
D03*
X123000Y27500D02*
D03*
X53500Y62000D02*
D03*
X45500Y73500D02*
D03*
Y78000D02*
D03*
X47500Y81500D02*
D03*
X53000Y55000D02*
D03*
Y59000D02*
D03*
X96000Y13000D02*
D03*
X86500Y34500D02*
D03*
X67500Y42000D02*
D03*
X95000Y113000D02*
D03*
X76000Y65000D02*
D03*
X17500Y84000D02*
D03*
X45500Y112500D02*
D03*
X17500Y111500D02*
D03*
X16500Y106000D02*
D03*
X85000Y87000D02*
D03*
X28000Y26000D02*
D03*
X81500Y39000D02*
D03*
X106000Y34000D02*
D03*
X103000Y43500D02*
D03*
X118500Y28500D02*
D03*
X135000Y73500D02*
D03*
X140500D02*
D03*
X144000Y80500D02*
D03*
X135520Y58480D02*
D03*
X140500Y58500D02*
D03*
X71500Y69500D02*
D03*
X99000Y31606D02*
D03*
X95000Y23500D02*
D03*
Y17500D02*
D03*
X46500Y94000D02*
D03*
X46000Y87000D02*
D03*
X76500Y53500D02*
D03*
X77500Y69500D02*
D03*
X66500D02*
D03*
X109000Y32000D02*
D03*
X71000Y35000D02*
D03*
X72000Y40500D02*
D03*
M02*
