G04*
G04 #@! TF.GenerationSoftware,Altium Limited,Altium Designer,24.1.2 (44)*
G04*
G04 Layer_Physical_Order=3*
G04 Layer_Color=16040612*
%FSLAX25Y25*%
%MOIN*%
G70*
G04*
G04 #@! TF.SameCoordinates,BB4A674F-8819-4941-915F-785A2CCA7B01*
G04*
G04*
G04 #@! TF.FilePolarity,Positive*
G04*
G01*
G75*
%ADD63C,0.02000*%
G04:AMPARAMS|DCode=64|XSize=70.87mil|YSize=39.37mil|CornerRadius=9.84mil|HoleSize=0mil|Usage=FLASHONLY|Rotation=90.000|XOffset=0mil|YOffset=0mil|HoleType=Round|Shape=RoundedRectangle|*
%AMROUNDEDRECTD64*
21,1,0.07087,0.01968,0,0,90.0*
21,1,0.05118,0.03937,0,0,90.0*
1,1,0.01968,0.00984,0.02559*
1,1,0.01968,0.00984,-0.02559*
1,1,0.01968,-0.00984,-0.02559*
1,1,0.01968,-0.00984,0.02559*
%
%ADD64ROUNDEDRECTD64*%
%ADD65O,0.03937X0.08268*%
%ADD66C,0.02559*%
G04:AMPARAMS|DCode=67|XSize=76.77mil|YSize=76.77mil|CornerRadius=19.19mil|HoleSize=0mil|Usage=FLASHONLY|Rotation=270.000|XOffset=0mil|YOffset=0mil|HoleType=Round|Shape=RoundedRectangle|*
%AMROUNDEDRECTD67*
21,1,0.07677,0.03839,0,0,270.0*
21,1,0.03839,0.07677,0,0,270.0*
1,1,0.03839,-0.01919,-0.01919*
1,1,0.03839,-0.01919,0.01919*
1,1,0.03839,0.01919,0.01919*
1,1,0.03839,0.01919,-0.01919*
%
%ADD67ROUNDEDRECTD67*%
%ADD68C,0.07677*%
G04:AMPARAMS|DCode=69|XSize=62.99mil|YSize=62.99mil|CornerRadius=15.75mil|HoleSize=0mil|Usage=FLASHONLY|Rotation=270.000|XOffset=0mil|YOffset=0mil|HoleType=Round|Shape=RoundedRectangle|*
%AMROUNDEDRECTD69*
21,1,0.06299,0.03150,0,0,270.0*
21,1,0.03150,0.06299,0,0,270.0*
1,1,0.03150,-0.01575,-0.01575*
1,1,0.03150,-0.01575,0.01575*
1,1,0.03150,0.01575,0.01575*
1,1,0.03150,0.01575,-0.01575*
%
%ADD69ROUNDEDRECTD69*%
%ADD70C,0.06299*%
%ADD71C,0.20000*%
G36*
X148000Y13000D02*
X143699D01*
X143374Y13380D01*
X143500Y14174D01*
Y15826D01*
X143242Y17459D01*
X142731Y19031D01*
X141980Y20503D01*
X141009Y21840D01*
X139840Y23009D01*
X138503Y23980D01*
X137031Y24731D01*
X135459Y25242D01*
X133826Y25500D01*
X132174D01*
X130541Y25242D01*
X128969Y24731D01*
X127497Y23980D01*
X126160Y23009D01*
X124991Y21840D01*
X124020Y20503D01*
X123269Y19031D01*
X122758Y17459D01*
X122500Y15826D01*
Y14174D01*
X122626Y13380D01*
X122301Y13000D01*
X98000D01*
Y13398D01*
X97695Y14133D01*
X97133Y14695D01*
X96500Y14958D01*
Y13000D01*
X95500D01*
Y14958D01*
X94867Y14695D01*
X94305Y14133D01*
X94000Y13398D01*
X93505Y13411D01*
Y13878D01*
X93390Y14457D01*
X93062Y14948D01*
X92571Y15276D01*
X91992Y15391D01*
X90024D01*
X89445Y15276D01*
X88954Y14948D01*
X88626Y14457D01*
X88510Y13878D01*
Y13000D01*
X59490D01*
Y13878D01*
X59374Y14457D01*
X59047Y14948D01*
X58556Y15276D01*
X57976Y15391D01*
X56008D01*
X55429Y15276D01*
X54938Y14948D01*
X54610Y14457D01*
X54495Y13878D01*
Y13000D01*
X25699D01*
X25374Y13380D01*
X25500Y14174D01*
Y15826D01*
X25242Y17459D01*
X24731Y19031D01*
X23980Y20503D01*
X23009Y21840D01*
X21840Y23009D01*
X20503Y23980D01*
X19031Y24731D01*
X17459Y25242D01*
X15826Y25500D01*
X14174D01*
X12541Y25242D01*
X10969Y24731D01*
X9497Y23980D01*
X8160Y23009D01*
X6991Y21840D01*
X6020Y20503D01*
X5269Y19031D01*
X4758Y17459D01*
X4500Y15826D01*
Y14174D01*
X4626Y13380D01*
X4301Y13000D01*
X0D01*
Y85500D01*
Y122000D01*
X148000D01*
Y13000D01*
D02*
G37*
%LPC*%
G36*
X46000Y114458D02*
Y113000D01*
X47458D01*
X47196Y113633D01*
X46633Y114196D01*
X46000Y114458D01*
D02*
G37*
G36*
X45000D02*
X44367Y114196D01*
X43804Y113633D01*
X43542Y113000D01*
X45000D01*
Y114458D01*
D02*
G37*
G36*
X18000Y113458D02*
Y112000D01*
X19458D01*
X19196Y112633D01*
X18633Y113196D01*
X18000Y113458D01*
D02*
G37*
G36*
X17000D02*
X16367Y113196D01*
X15804Y112633D01*
X15542Y112000D01*
X17000D01*
Y113458D01*
D02*
G37*
G36*
X143575Y115172D02*
X142500D01*
Y111500D01*
X146172D01*
Y112575D01*
X146083Y113247D01*
X145824Y113873D01*
X145411Y114411D01*
X144873Y114824D01*
X144247Y115083D01*
X143575Y115172D01*
D02*
G37*
G36*
X95298Y114500D02*
X94702D01*
X94150Y114272D01*
X93728Y113850D01*
X93500Y113298D01*
Y112702D01*
X93728Y112150D01*
X94150Y111728D01*
X94702Y111500D01*
X95298D01*
X95850Y111728D01*
X96272Y112150D01*
X96500Y112702D01*
Y113298D01*
X96272Y113850D01*
X95850Y114272D01*
X95298Y114500D01*
D02*
G37*
G36*
X141500Y115172D02*
X140425D01*
X139753Y115083D01*
X139127Y114824D01*
X138589Y114411D01*
X138176Y113873D01*
X137917Y113247D01*
X137828Y112575D01*
Y111500D01*
X141500D01*
Y115172D01*
D02*
G37*
G36*
X47458Y112000D02*
X46000D01*
Y110542D01*
X46633Y110804D01*
X47196Y111367D01*
X47458Y112000D01*
D02*
G37*
G36*
X45000D02*
X43542D01*
X43804Y111367D01*
X44367Y110804D01*
X45000Y110542D01*
Y112000D01*
D02*
G37*
G36*
X19458Y111000D02*
X18000D01*
Y109542D01*
X18633Y109804D01*
X19196Y110367D01*
X19458Y111000D01*
D02*
G37*
G36*
X17000D02*
X15542D01*
X15804Y110367D01*
X16367Y109804D01*
X17000Y109542D01*
Y111000D01*
D02*
G37*
G36*
X132575Y114690D02*
X129425D01*
X128616Y114529D01*
X127929Y114071D01*
X127471Y113384D01*
X127310Y112575D01*
Y109425D01*
X127471Y108616D01*
X127929Y107929D01*
X128616Y107471D01*
X129425Y107310D01*
X132575D01*
X133384Y107471D01*
X134071Y107929D01*
X134529Y108616D01*
X134690Y109425D01*
Y112575D01*
X134529Y113384D01*
X134071Y114071D01*
X133384Y114529D01*
X132575Y114690D01*
D02*
G37*
G36*
X121575D02*
X118425D01*
X117616Y114529D01*
X116929Y114071D01*
X116471Y113384D01*
X116310Y112575D01*
Y109425D01*
X116471Y108616D01*
X116929Y107929D01*
X117616Y107471D01*
X118425Y107310D01*
X121575D01*
X122384Y107471D01*
X123071Y107929D01*
X123529Y108616D01*
X123690Y109425D01*
Y112575D01*
X123529Y113384D01*
X123071Y114071D01*
X122384Y114529D01*
X121575Y114690D01*
D02*
G37*
G36*
X146172Y110500D02*
X142500D01*
Y106828D01*
X143575D01*
X144247Y106917D01*
X144873Y107176D01*
X145411Y107589D01*
X145824Y108127D01*
X146083Y108753D01*
X146172Y109425D01*
Y110500D01*
D02*
G37*
G36*
X141500D02*
X137828D01*
Y109425D01*
X137917Y108753D01*
X138176Y108127D01*
X138589Y107589D01*
X139127Y107176D01*
X139753Y106917D01*
X140425Y106828D01*
X141500D01*
Y110500D01*
D02*
G37*
G36*
X16798Y107500D02*
X16202D01*
X15650Y107272D01*
X15228Y106850D01*
X15000Y106298D01*
Y105702D01*
X15228Y105150D01*
X15650Y104728D01*
X16202Y104500D01*
X16798D01*
X17350Y104728D01*
X17772Y105150D01*
X18000Y105702D01*
Y106298D01*
X17772Y106850D01*
X17350Y107272D01*
X16798Y107500D01*
D02*
G37*
G36*
X71897Y105264D02*
X71300D01*
X70749Y105035D01*
X70327Y104613D01*
X70098Y104062D01*
Y103465D01*
X70327Y102914D01*
X70749Y102492D01*
X71300Y102264D01*
X71897D01*
X72448Y102492D01*
X72870Y102914D01*
X73098Y103465D01*
Y104062D01*
X72870Y104613D01*
X72448Y105035D01*
X71897Y105264D01*
D02*
G37*
G36*
X65991D02*
X65395D01*
X64843Y105035D01*
X64421Y104613D01*
X64193Y104062D01*
Y103465D01*
X64421Y102914D01*
X64843Y102492D01*
X65395Y102264D01*
X65991D01*
X66543Y102492D01*
X66965Y102914D01*
X67193Y103465D01*
Y104062D01*
X66965Y104613D01*
X66543Y105035D01*
X65991Y105264D01*
D02*
G37*
G36*
X74849Y102311D02*
X74253D01*
X73702Y102083D01*
X73280Y101661D01*
X73051Y101109D01*
Y100513D01*
X73280Y99961D01*
X73702Y99539D01*
X74253Y99311D01*
X74849D01*
X75401Y99539D01*
X75823Y99961D01*
X76051Y100513D01*
Y101109D01*
X75823Y101661D01*
X75401Y102083D01*
X74849Y102311D01*
D02*
G37*
G36*
X68944D02*
X68347D01*
X67796Y102083D01*
X67374Y101661D01*
X67146Y101109D01*
Y100513D01*
X67374Y99961D01*
X67796Y99539D01*
X68347Y99311D01*
X68944D01*
X69495Y99539D01*
X69917Y99961D01*
X70146Y100513D01*
Y101109D01*
X69917Y101661D01*
X69495Y102083D01*
X68944Y102311D01*
D02*
G37*
G36*
X63038D02*
X62442D01*
X61891Y102083D01*
X61468Y101661D01*
X61240Y101109D01*
Y100513D01*
X61468Y99961D01*
X61891Y99539D01*
X62442Y99311D01*
X63038D01*
X63590Y99539D01*
X64012Y99961D01*
X64240Y100513D01*
Y101109D01*
X64012Y101661D01*
X63590Y102083D01*
X63038Y102311D01*
D02*
G37*
G36*
X142481Y104650D02*
X141519D01*
X140591Y104401D01*
X139759Y103920D01*
X139080Y103241D01*
X138599Y102409D01*
X138350Y101480D01*
Y100520D01*
X138599Y99591D01*
X139080Y98759D01*
X139759Y98080D01*
X140591Y97599D01*
X141519Y97350D01*
X142481D01*
X143409Y97599D01*
X144241Y98080D01*
X144920Y98759D01*
X145401Y99591D01*
X145650Y100520D01*
Y101480D01*
X145401Y102409D01*
X144920Y103241D01*
X144241Y103920D01*
X143409Y104401D01*
X142481Y104650D01*
D02*
G37*
G36*
X131481D02*
X130519D01*
X129591Y104401D01*
X128759Y103920D01*
X128080Y103241D01*
X127599Y102409D01*
X127350Y101480D01*
Y100520D01*
X127599Y99591D01*
X128080Y98759D01*
X128759Y98080D01*
X129591Y97599D01*
X130519Y97350D01*
X131481D01*
X132409Y97599D01*
X133241Y98080D01*
X133920Y98759D01*
X134401Y99591D01*
X134650Y100520D01*
Y101480D01*
X134401Y102409D01*
X133920Y103241D01*
X133241Y103920D01*
X132409Y104401D01*
X131481Y104650D01*
D02*
G37*
G36*
X120481D02*
X119519D01*
X118591Y104401D01*
X117759Y103920D01*
X117080Y103241D01*
X116599Y102409D01*
X116350Y101480D01*
Y100520D01*
X116599Y99591D01*
X117080Y98759D01*
X117759Y98080D01*
X118591Y97599D01*
X119519Y97350D01*
X120481D01*
X121409Y97599D01*
X122241Y98080D01*
X122920Y98759D01*
X123401Y99591D01*
X123650Y100520D01*
Y101480D01*
X123401Y102409D01*
X122920Y103241D01*
X122241Y103920D01*
X121409Y104401D01*
X120481Y104650D01*
D02*
G37*
G36*
X71897Y99358D02*
X71300D01*
X70749Y99130D01*
X70327Y98708D01*
X70098Y98157D01*
Y97560D01*
X70327Y97009D01*
X70749Y96587D01*
X71300Y96358D01*
X71897D01*
X72448Y96587D01*
X72870Y97009D01*
X73098Y97560D01*
Y98157D01*
X72870Y98708D01*
X72448Y99130D01*
X71897Y99358D01*
D02*
G37*
G36*
X65991D02*
X65395D01*
X64843Y99130D01*
X64421Y98708D01*
X64193Y98157D01*
Y97560D01*
X64421Y97009D01*
X64843Y96587D01*
X65395Y96358D01*
X65991D01*
X66543Y96587D01*
X66965Y97009D01*
X67193Y97560D01*
Y98157D01*
X66965Y98708D01*
X66543Y99130D01*
X65991Y99358D01*
D02*
G37*
G36*
X74849Y96406D02*
X74253D01*
X73702Y96177D01*
X73280Y95755D01*
X73051Y95204D01*
Y94607D01*
X73280Y94056D01*
X73702Y93634D01*
X74253Y93405D01*
X74849D01*
X75401Y93634D01*
X75823Y94056D01*
X76051Y94607D01*
Y95204D01*
X75823Y95755D01*
X75401Y96177D01*
X74849Y96406D01*
D02*
G37*
G36*
X68944D02*
X68347D01*
X67796Y96177D01*
X67374Y95755D01*
X67146Y95204D01*
Y94607D01*
X67374Y94056D01*
X67796Y93634D01*
X68347Y93405D01*
X68944D01*
X69495Y93634D01*
X69917Y94056D01*
X70146Y94607D01*
Y95204D01*
X69917Y95755D01*
X69495Y96177D01*
X68944Y96406D01*
D02*
G37*
G36*
X63038D02*
X62442D01*
X61891Y96177D01*
X61468Y95755D01*
X61240Y95204D01*
Y94607D01*
X61468Y94056D01*
X61891Y93634D01*
X62442Y93405D01*
X63038D01*
X63590Y93634D01*
X64012Y94056D01*
X64240Y94607D01*
Y95204D01*
X64012Y95755D01*
X63590Y96177D01*
X63038Y96406D01*
D02*
G37*
G36*
X46798Y95500D02*
X46202D01*
X45650Y95272D01*
X45228Y94850D01*
X45000Y94298D01*
Y93702D01*
X45228Y93150D01*
X45650Y92728D01*
X46202Y92500D01*
X46798D01*
X47350Y92728D01*
X47772Y93150D01*
X48000Y93702D01*
Y94298D01*
X47772Y94850D01*
X47350Y95272D01*
X46798Y95500D01*
D02*
G37*
G36*
X71897Y93453D02*
X71300D01*
X70749Y93224D01*
X70327Y92802D01*
X70098Y92251D01*
Y91654D01*
X70327Y91103D01*
X70749Y90681D01*
X71300Y90453D01*
X71897D01*
X72448Y90681D01*
X72870Y91103D01*
X73098Y91654D01*
Y92251D01*
X72870Y92802D01*
X72448Y93224D01*
X71897Y93453D01*
D02*
G37*
G36*
X65991D02*
X65395D01*
X64843Y93224D01*
X64421Y92802D01*
X64193Y92251D01*
Y91654D01*
X64421Y91103D01*
X64843Y90681D01*
X65395Y90453D01*
X65991D01*
X66543Y90681D01*
X66965Y91103D01*
X67193Y91654D01*
Y92251D01*
X66965Y92802D01*
X66543Y93224D01*
X65991Y93453D01*
D02*
G37*
G36*
X85500Y88958D02*
Y87500D01*
X86958D01*
X86695Y88133D01*
X86133Y88696D01*
X85500Y88958D01*
D02*
G37*
G36*
X84500D02*
X83867Y88696D01*
X83305Y88133D01*
X83042Y87500D01*
X84500D01*
Y88958D01*
D02*
G37*
G36*
X142481Y94650D02*
X141519D01*
X140591Y94401D01*
X139759Y93920D01*
X139080Y93241D01*
X138599Y92409D01*
X138350Y91480D01*
Y90519D01*
X138599Y89591D01*
X139080Y88759D01*
X139759Y88080D01*
X140591Y87599D01*
X141519Y87350D01*
X142481D01*
X143409Y87599D01*
X144241Y88080D01*
X144920Y88759D01*
X145401Y89591D01*
X145650Y90519D01*
Y91480D01*
X145401Y92409D01*
X144920Y93241D01*
X144241Y93920D01*
X143409Y94401D01*
X142481Y94650D01*
D02*
G37*
G36*
X131481D02*
X130519D01*
X129591Y94401D01*
X128759Y93920D01*
X128080Y93241D01*
X127599Y92409D01*
X127350Y91480D01*
Y90519D01*
X127599Y89591D01*
X128080Y88759D01*
X128759Y88080D01*
X129591Y87599D01*
X130519Y87350D01*
X131481D01*
X132409Y87599D01*
X133241Y88080D01*
X133920Y88759D01*
X134401Y89591D01*
X134650Y90519D01*
Y91480D01*
X134401Y92409D01*
X133920Y93241D01*
X133241Y93920D01*
X132409Y94401D01*
X131481Y94650D01*
D02*
G37*
G36*
X120481D02*
X119519D01*
X118591Y94401D01*
X117759Y93920D01*
X117080Y93241D01*
X116599Y92409D01*
X116350Y91480D01*
Y90519D01*
X116599Y89591D01*
X117080Y88759D01*
X117759Y88080D01*
X118591Y87599D01*
X119519Y87350D01*
X120481D01*
X121409Y87599D01*
X122241Y88080D01*
X122920Y88759D01*
X123401Y89591D01*
X123650Y90519D01*
Y91480D01*
X123401Y92409D01*
X122920Y93241D01*
X122241Y93920D01*
X121409Y94401D01*
X120481Y94650D01*
D02*
G37*
G36*
X46298Y88500D02*
X45702D01*
X45150Y88272D01*
X44728Y87850D01*
X44500Y87298D01*
Y86702D01*
X44728Y86150D01*
X45150Y85728D01*
X45702Y85500D01*
X46298D01*
X46850Y85728D01*
X47272Y86150D01*
X47500Y86702D01*
Y87298D01*
X47272Y87850D01*
X46850Y88272D01*
X46298Y88500D01*
D02*
G37*
G36*
X86958Y86500D02*
X85500D01*
Y85042D01*
X86133Y85304D01*
X86695Y85867D01*
X86958Y86500D01*
D02*
G37*
G36*
X84500D02*
X83042D01*
X83305Y85867D01*
X83867Y85304D01*
X84500Y85042D01*
Y86500D01*
D02*
G37*
G36*
X17798Y85500D02*
X17202D01*
X16650Y85272D01*
X16228Y84850D01*
X16000Y84298D01*
Y83702D01*
X16228Y83150D01*
X16650Y82728D01*
X17202Y82500D01*
X17798D01*
X18350Y82728D01*
X18772Y83150D01*
X19000Y83702D01*
Y84298D01*
X18772Y84850D01*
X18350Y85272D01*
X17798Y85500D01*
D02*
G37*
G36*
X47798Y83000D02*
X47202D01*
X46650Y82772D01*
X46228Y82350D01*
X46000Y81798D01*
Y81202D01*
X46228Y80650D01*
X46650Y80228D01*
X47202Y80000D01*
X47798D01*
X48350Y80228D01*
X48772Y80650D01*
X49000Y81202D01*
Y81798D01*
X48772Y82350D01*
X48350Y82772D01*
X47798Y83000D01*
D02*
G37*
G36*
X144298Y82000D02*
X143702D01*
X143150Y81772D01*
X142728Y81350D01*
X142500Y80798D01*
Y80202D01*
X142728Y79650D01*
X143150Y79228D01*
X143702Y79000D01*
X144298D01*
X144850Y79228D01*
X145272Y79650D01*
X145500Y80202D01*
Y80798D01*
X145272Y81350D01*
X144850Y81772D01*
X144298Y82000D01*
D02*
G37*
G36*
X45798Y79500D02*
X45202D01*
X44650Y79272D01*
X44228Y78850D01*
X44000Y78298D01*
Y77702D01*
X44228Y77150D01*
X44650Y76728D01*
X45202Y76500D01*
X45798D01*
X46350Y76728D01*
X46772Y77150D01*
X47000Y77702D01*
Y78298D01*
X46772Y78850D01*
X46350Y79272D01*
X45798Y79500D01*
D02*
G37*
G36*
X135500Y75458D02*
Y74000D01*
X136958D01*
X136696Y74633D01*
X136133Y75195D01*
X135500Y75458D01*
D02*
G37*
G36*
X134500D02*
X133867Y75195D01*
X133305Y74633D01*
X133042Y74000D01*
X134500D01*
Y75458D01*
D02*
G37*
G36*
X140798Y75000D02*
X140202D01*
X139650Y74772D01*
X139228Y74350D01*
X139000Y73798D01*
Y73202D01*
X139228Y72650D01*
X139650Y72228D01*
X140202Y72000D01*
X140798D01*
X141350Y72228D01*
X141772Y72650D01*
X142000Y73202D01*
Y73798D01*
X141772Y74350D01*
X141350Y74772D01*
X140798Y75000D01*
D02*
G37*
G36*
X45798D02*
X45202D01*
X44650Y74772D01*
X44228Y74350D01*
X44000Y73798D01*
Y73202D01*
X44228Y72650D01*
X44650Y72228D01*
X45202Y72000D01*
X45798D01*
X46350Y72228D01*
X46772Y72650D01*
X47000Y73202D01*
Y73798D01*
X46772Y74350D01*
X46350Y74772D01*
X45798Y75000D01*
D02*
G37*
G36*
X136958Y73000D02*
X135500D01*
Y71542D01*
X136133Y71804D01*
X136696Y72367D01*
X136958Y73000D01*
D02*
G37*
G36*
X134500D02*
X133042D01*
X133305Y72367D01*
X133867Y71804D01*
X134500Y71542D01*
Y73000D01*
D02*
G37*
G36*
X77798Y71000D02*
X77202D01*
X76650Y70772D01*
X76228Y70350D01*
X76000Y69798D01*
Y69202D01*
X76228Y68650D01*
X76650Y68228D01*
X77202Y68000D01*
X77798D01*
X78350Y68228D01*
X78772Y68650D01*
X79000Y69202D01*
Y69798D01*
X78772Y70350D01*
X78350Y70772D01*
X77798Y71000D01*
D02*
G37*
G36*
X71798D02*
X71202D01*
X70650Y70772D01*
X70228Y70350D01*
X70000Y69798D01*
Y69202D01*
X70228Y68650D01*
X70650Y68228D01*
X71202Y68000D01*
X71798D01*
X72350Y68228D01*
X72772Y68650D01*
X73000Y69202D01*
Y69798D01*
X72772Y70350D01*
X72350Y70772D01*
X71798Y71000D01*
D02*
G37*
G36*
X66798D02*
X66202D01*
X65650Y70772D01*
X65228Y70350D01*
X65000Y69798D01*
Y69202D01*
X65228Y68650D01*
X65650Y68228D01*
X66202Y68000D01*
X66798D01*
X67350Y68228D01*
X67772Y68650D01*
X68000Y69202D01*
Y69798D01*
X67772Y70350D01*
X67350Y70772D01*
X66798Y71000D01*
D02*
G37*
G36*
X76500Y66958D02*
Y65500D01*
X77958D01*
X77696Y66133D01*
X77133Y66695D01*
X76500Y66958D01*
D02*
G37*
G36*
X75500D02*
X74867Y66695D01*
X74304Y66133D01*
X74042Y65500D01*
X75500D01*
Y66958D01*
D02*
G37*
G36*
X15600Y72386D02*
X11762D01*
X10818Y72198D01*
X10018Y71663D01*
X9483Y70863D01*
X9295Y69919D01*
Y66081D01*
X9483Y65137D01*
X10018Y64337D01*
X10818Y63802D01*
X11762Y63614D01*
X15600D01*
X16544Y63802D01*
X17345Y64337D01*
X17879Y65137D01*
X18067Y66081D01*
Y69919D01*
X17879Y70863D01*
X17345Y71663D01*
X16544Y72198D01*
X15600Y72386D01*
D02*
G37*
G36*
X77958Y64500D02*
X76500D01*
Y63042D01*
X77133Y63305D01*
X77696Y63867D01*
X77958Y64500D01*
D02*
G37*
G36*
X75500D02*
X74042D01*
X74304Y63867D01*
X74867Y63305D01*
X75500Y63042D01*
Y64500D01*
D02*
G37*
G36*
X136020Y60438D02*
Y58980D01*
X137477D01*
X137215Y59613D01*
X136653Y60176D01*
X136020Y60438D01*
D02*
G37*
G36*
X135020D02*
X134387Y60176D01*
X133824Y59613D01*
X133562Y58980D01*
X135020D01*
Y60438D01*
D02*
G37*
G36*
X53798Y63500D02*
X53202D01*
X52650Y63272D01*
X52228Y62850D01*
X52000Y62298D01*
Y61702D01*
X52228Y61150D01*
X52444Y60935D01*
X52348Y60353D01*
X52150Y60272D01*
X51728Y59850D01*
X51500Y59298D01*
Y58702D01*
X51728Y58150D01*
X52150Y57728D01*
X52702Y57500D01*
X53298D01*
X53850Y57728D01*
X54272Y58150D01*
X54500Y58702D01*
Y59298D01*
X54272Y59850D01*
X54056Y60066D01*
X54152Y60646D01*
X54350Y60728D01*
X54772Y61150D01*
X55000Y61702D01*
Y62298D01*
X54772Y62850D01*
X54350Y63272D01*
X53798Y63500D01*
D02*
G37*
G36*
X140798Y60000D02*
X140202D01*
X139650Y59772D01*
X139228Y59350D01*
X139000Y58798D01*
Y58202D01*
X139228Y57650D01*
X139650Y57228D01*
X140202Y57000D01*
X140798D01*
X141350Y57228D01*
X141772Y57650D01*
X142000Y58202D01*
Y58798D01*
X141772Y59350D01*
X141350Y59772D01*
X140798Y60000D01*
D02*
G37*
G36*
X137477Y57980D02*
X136020D01*
Y56523D01*
X136653Y56785D01*
X137215Y57347D01*
X137477Y57980D01*
D02*
G37*
G36*
X135020D02*
X133562D01*
X133824Y57347D01*
X134387Y56785D01*
X135020Y56523D01*
Y57980D01*
D02*
G37*
G36*
X14252Y62339D02*
X13110D01*
X12007Y62043D01*
X11017Y61472D01*
X10209Y60664D01*
X9638Y59675D01*
X9342Y58571D01*
Y57429D01*
X9638Y56325D01*
X10209Y55336D01*
X11017Y54528D01*
X12007Y53957D01*
X13110Y53661D01*
X14252D01*
X15356Y53957D01*
X16345Y54528D01*
X17153Y55336D01*
X17724Y56325D01*
X18020Y57429D01*
Y58571D01*
X17724Y59675D01*
X17153Y60664D01*
X16345Y61472D01*
X15356Y62043D01*
X14252Y62339D01*
D02*
G37*
G36*
X53298Y56500D02*
X52702D01*
X52150Y56272D01*
X51728Y55850D01*
X51500Y55298D01*
Y54702D01*
X51728Y54150D01*
X52150Y53728D01*
X52702Y53500D01*
X53298D01*
X53850Y53728D01*
X54272Y54150D01*
X54500Y54702D01*
Y55298D01*
X54272Y55850D01*
X53850Y56272D01*
X53298Y56500D01*
D02*
G37*
G36*
X76798Y55000D02*
X76202D01*
X75650Y54772D01*
X75228Y54350D01*
X75000Y53798D01*
Y53202D01*
X75228Y52650D01*
X75650Y52228D01*
X76202Y52000D01*
X76798D01*
X77350Y52228D01*
X77772Y52650D01*
X78000Y53202D01*
Y53798D01*
X77772Y54350D01*
X77350Y54772D01*
X76798Y55000D01*
D02*
G37*
G36*
X130798Y47000D02*
X130202D01*
X129650Y46772D01*
X129228Y46350D01*
X129000Y45798D01*
Y45202D01*
X129228Y44650D01*
X129650Y44228D01*
X130202Y44000D01*
X130798D01*
X131350Y44228D01*
X131772Y44650D01*
X132000Y45202D01*
Y45798D01*
X131772Y46350D01*
X131350Y46772D01*
X130798Y47000D01*
D02*
G37*
G36*
X103298Y45000D02*
X102702D01*
X102150Y44772D01*
X101728Y44350D01*
X101500Y43798D01*
Y43202D01*
X101728Y42650D01*
X102150Y42228D01*
X102702Y42000D01*
X103298D01*
X103850Y42228D01*
X104272Y42650D01*
X104500Y43202D01*
Y43798D01*
X104272Y44350D01*
X103850Y44772D01*
X103298Y45000D01*
D02*
G37*
G36*
X15600Y49386D02*
X11762D01*
X10818Y49198D01*
X10018Y48663D01*
X9483Y47863D01*
X9295Y46919D01*
Y43081D01*
X9483Y42137D01*
X10018Y41337D01*
X10818Y40802D01*
X11762Y40614D01*
X15600D01*
X16544Y40802D01*
X17345Y41337D01*
X17879Y42137D01*
X18067Y43081D01*
Y46919D01*
X17879Y47863D01*
X17345Y48663D01*
X16544Y49198D01*
X15600Y49386D01*
D02*
G37*
G36*
X67798Y43500D02*
X67202D01*
X66650Y43272D01*
X66228Y42850D01*
X66000Y42298D01*
Y41702D01*
X66228Y41150D01*
X66650Y40728D01*
X67202Y40500D01*
X67798D01*
X68350Y40728D01*
X68772Y41150D01*
X69000Y41702D01*
Y42298D01*
X68772Y42850D01*
X68350Y43272D01*
X67798Y43500D01*
D02*
G37*
G36*
X82000Y40958D02*
Y39500D01*
X83458D01*
X83196Y40133D01*
X82633Y40696D01*
X82000Y40958D01*
D02*
G37*
G36*
X81000D02*
X80367Y40696D01*
X79804Y40133D01*
X79542Y39500D01*
X81000D01*
Y40958D01*
D02*
G37*
G36*
X72298Y42000D02*
X71702D01*
X71150Y41772D01*
X70728Y41350D01*
X70500Y40798D01*
Y40202D01*
X70728Y39650D01*
X71150Y39228D01*
X71702Y39000D01*
X72298D01*
X72850Y39228D01*
X73272Y39650D01*
X73500Y40202D01*
Y40798D01*
X73272Y41350D01*
X72850Y41772D01*
X72298Y42000D01*
D02*
G37*
G36*
X83458Y38500D02*
X82000D01*
Y37042D01*
X82633Y37304D01*
X83196Y37867D01*
X83458Y38500D01*
D02*
G37*
G36*
X81000D02*
X79542D01*
X79804Y37867D01*
X80367Y37304D01*
X81000Y37042D01*
Y38500D01*
D02*
G37*
G36*
X106500Y35958D02*
Y34500D01*
X107958D01*
X107695Y35133D01*
X107133Y35695D01*
X106500Y35958D01*
D02*
G37*
G36*
X105500D02*
X104867Y35695D01*
X104305Y35133D01*
X104042Y34500D01*
X105500D01*
Y35958D01*
D02*
G37*
G36*
X134298Y37000D02*
X133702D01*
X133150Y36772D01*
X132728Y36350D01*
X132500Y35798D01*
Y35202D01*
X132728Y34650D01*
X133150Y34228D01*
X133702Y34000D01*
X134298D01*
X134850Y34228D01*
X135272Y34650D01*
X135500Y35202D01*
Y35798D01*
X135272Y36350D01*
X134850Y36772D01*
X134298Y37000D01*
D02*
G37*
G36*
X71298Y36500D02*
X70702D01*
X70150Y36272D01*
X69728Y35850D01*
X69500Y35298D01*
Y34702D01*
X69728Y34150D01*
X70150Y33728D01*
X70702Y33500D01*
X71298D01*
X71850Y33728D01*
X72272Y34150D01*
X72500Y34702D01*
Y35298D01*
X72272Y35850D01*
X71850Y36272D01*
X71298Y36500D01*
D02*
G37*
G36*
X109298Y33500D02*
X108702D01*
X108457Y33399D01*
X108316Y33461D01*
X108274Y33500D01*
X106500D01*
Y32042D01*
X107000Y32249D01*
X107384Y32072D01*
X107500Y31964D01*
Y31702D01*
X107728Y31150D01*
X108150Y30728D01*
X108702Y30500D01*
X109298D01*
X109850Y30728D01*
X110272Y31150D01*
X110500Y31702D01*
Y32298D01*
X110272Y32850D01*
X109850Y33272D01*
X109298Y33500D01*
D02*
G37*
G36*
X86798Y36000D02*
X86202D01*
X85650Y35772D01*
X85228Y35350D01*
X85000Y34798D01*
Y34202D01*
X85228Y33650D01*
X85650Y33228D01*
X86202Y33000D01*
X86798D01*
X87350Y33228D01*
X87772Y33650D01*
X88000Y34202D01*
Y34798D01*
X87772Y35350D01*
X87350Y35772D01*
X86798Y36000D01*
D02*
G37*
G36*
X105500Y33500D02*
X104042D01*
X104305Y32867D01*
X104867Y32304D01*
X105500Y32042D01*
Y33500D01*
D02*
G37*
G36*
X125798Y34500D02*
X125202D01*
X124650Y34272D01*
X124228Y33850D01*
X124000Y33298D01*
Y32702D01*
X124228Y32150D01*
X124650Y31728D01*
X125202Y31500D01*
X125798D01*
X126350Y31728D01*
X126772Y32150D01*
X127000Y32702D01*
Y33298D01*
X126772Y33850D01*
X126350Y34272D01*
X125798Y34500D01*
D02*
G37*
G36*
X14252Y39339D02*
X13110D01*
X12007Y39043D01*
X11017Y38472D01*
X10209Y37664D01*
X9638Y36675D01*
X9342Y35571D01*
Y34429D01*
X9638Y33325D01*
X10209Y32336D01*
X11017Y31528D01*
X12007Y30957D01*
X13110Y30661D01*
X14252D01*
X15356Y30957D01*
X16345Y31528D01*
X17153Y32336D01*
X17724Y33325D01*
X18020Y34429D01*
Y35571D01*
X17724Y36675D01*
X17153Y37664D01*
X16345Y38472D01*
X15356Y39043D01*
X14252Y39339D01*
D02*
G37*
G36*
X99298Y33106D02*
X98702D01*
X98150Y32878D01*
X97728Y32456D01*
X97500Y31905D01*
Y31308D01*
X97728Y30757D01*
X98150Y30335D01*
X98702Y30106D01*
X99298D01*
X99850Y30335D01*
X100272Y30757D01*
X100500Y31308D01*
Y31905D01*
X100272Y32456D01*
X99850Y32878D01*
X99298Y33106D01*
D02*
G37*
G36*
X123500Y29458D02*
Y28000D01*
X124958D01*
X124696Y28633D01*
X124133Y29195D01*
X123500Y29458D01*
D02*
G37*
G36*
X122500D02*
X121867Y29195D01*
X121305Y28633D01*
X121042Y28000D01*
X122500D01*
Y29458D01*
D02*
G37*
G36*
X118798Y30000D02*
X118202D01*
X117650Y29772D01*
X117228Y29350D01*
X117000Y28798D01*
Y28202D01*
X117228Y27650D01*
X117650Y27228D01*
X118202Y27000D01*
X118798D01*
X119350Y27228D01*
X119772Y27650D01*
X120000Y28202D01*
Y28798D01*
X119772Y29350D01*
X119350Y29772D01*
X118798Y30000D01*
D02*
G37*
G36*
X28500Y27958D02*
Y26500D01*
X29958D01*
X29695Y27133D01*
X29133Y27696D01*
X28500Y27958D01*
D02*
G37*
G36*
X27500D02*
X26867Y27696D01*
X26305Y27133D01*
X26042Y26500D01*
X27500D01*
Y27958D01*
D02*
G37*
G36*
X124958Y27000D02*
X123500D01*
Y25542D01*
X124133Y25804D01*
X124696Y26367D01*
X124958Y27000D01*
D02*
G37*
G36*
X122500D02*
X121042D01*
X121305Y26367D01*
X121867Y25804D01*
X122500Y25542D01*
Y27000D01*
D02*
G37*
G36*
X29958Y25500D02*
X28500D01*
Y24042D01*
X29133Y24305D01*
X29695Y24867D01*
X29958Y25500D01*
D02*
G37*
G36*
X27500D02*
X26042D01*
X26305Y24867D01*
X26867Y24305D01*
X27500Y24042D01*
Y25500D01*
D02*
G37*
G36*
X85732Y27587D02*
X85024D01*
X84370Y27316D01*
X83869Y26815D01*
X83598Y26161D01*
Y25453D01*
X83869Y24799D01*
X84370Y24298D01*
X85024Y24028D01*
X85732D01*
X86386Y24298D01*
X86887Y24799D01*
X87157Y25453D01*
Y26161D01*
X86887Y26815D01*
X86386Y27316D01*
X85732Y27587D01*
D02*
G37*
G36*
X62976D02*
X62268D01*
X61614Y27316D01*
X61113Y26815D01*
X60843Y26161D01*
Y25453D01*
X61113Y24799D01*
X61614Y24298D01*
X62268Y24028D01*
X62976D01*
X63630Y24298D01*
X64131Y24799D01*
X64402Y25453D01*
Y26161D01*
X64131Y26815D01*
X63630Y27316D01*
X62976Y27587D01*
D02*
G37*
G36*
X91008Y32458D02*
X90045Y32266D01*
X89228Y31721D01*
X88683Y30904D01*
X88491Y29941D01*
Y25610D01*
X88683Y24647D01*
X89228Y23831D01*
X90045Y23285D01*
X91008Y23093D01*
X91971Y23285D01*
X92788Y23831D01*
X93333Y24647D01*
X93525Y25610D01*
Y29941D01*
X93333Y30904D01*
X92788Y31721D01*
X91971Y32266D01*
X91008Y32458D01*
D02*
G37*
G36*
X56992D02*
X56029Y32266D01*
X55212Y31721D01*
X54667Y30904D01*
X54475Y29941D01*
Y25610D01*
X54667Y24647D01*
X55212Y23831D01*
X56029Y23285D01*
X56992Y23093D01*
X57955Y23285D01*
X58772Y23831D01*
X59317Y24647D01*
X59509Y25610D01*
Y29941D01*
X59317Y30904D01*
X58772Y31721D01*
X57955Y32266D01*
X56992Y32458D01*
D02*
G37*
G36*
X95298Y25000D02*
X94702D01*
X94150Y24772D01*
X93728Y24350D01*
X93500Y23798D01*
Y23202D01*
X93728Y22650D01*
X94150Y22228D01*
X94702Y22000D01*
X95298D01*
X95850Y22228D01*
X96272Y22650D01*
X96500Y23202D01*
Y23798D01*
X96272Y24350D01*
X95850Y24772D01*
X95298Y25000D01*
D02*
G37*
G36*
Y19000D02*
X94702D01*
X94150Y18772D01*
X93728Y18350D01*
X93500Y17798D01*
Y17202D01*
X93728Y16650D01*
X94150Y16228D01*
X94702Y16000D01*
X95298D01*
X95850Y16228D01*
X96272Y16650D01*
X96500Y17202D01*
Y17798D01*
X96272Y18350D01*
X95850Y18772D01*
X95298Y19000D01*
D02*
G37*
%LPD*%
D63*
X71598Y91953D02*
D03*
X65693D02*
D03*
X71598Y97858D02*
D03*
X65693D02*
D03*
X71598Y103764D02*
D03*
X65693D02*
D03*
X74551Y94906D02*
D03*
X68646D02*
D03*
X62740D02*
D03*
X74551Y100811D02*
D03*
X62740D02*
D03*
X68646D02*
D03*
X134000Y35500D02*
D03*
X130500Y45500D02*
D03*
X125500Y33000D02*
D03*
X123000Y27500D02*
D03*
X53500Y62000D02*
D03*
X45500Y73500D02*
D03*
Y78000D02*
D03*
X47500Y81500D02*
D03*
X53000Y55000D02*
D03*
Y59000D02*
D03*
X96000Y13000D02*
D03*
X86500Y34500D02*
D03*
X67500Y42000D02*
D03*
X95000Y113000D02*
D03*
X76000Y65000D02*
D03*
X17500Y84000D02*
D03*
X45500Y112500D02*
D03*
X17500Y111500D02*
D03*
X16500Y106000D02*
D03*
X85000Y87000D02*
D03*
X28000Y26000D02*
D03*
X81500Y39000D02*
D03*
X106000Y34000D02*
D03*
X103000Y43500D02*
D03*
X118500Y28500D02*
D03*
X135000Y73500D02*
D03*
X140500D02*
D03*
X144000Y80500D02*
D03*
X135520Y58480D02*
D03*
X140500Y58500D02*
D03*
X71500Y69500D02*
D03*
X99000Y31606D02*
D03*
X95000Y23500D02*
D03*
Y17500D02*
D03*
X46500Y94000D02*
D03*
X46000Y87000D02*
D03*
X76500Y53500D02*
D03*
X77500Y69500D02*
D03*
X66500D02*
D03*
X109000Y32000D02*
D03*
X71000Y35000D02*
D03*
X72000Y40500D02*
D03*
D64*
X56992Y11319D02*
D03*
X91008D02*
D03*
D65*
X56992Y27776D02*
D03*
X91008D02*
D03*
D66*
X85378Y25807D02*
D03*
X62622D02*
D03*
D67*
X13681Y45000D02*
D03*
Y68000D02*
D03*
D68*
Y35000D02*
D03*
Y58000D02*
D03*
D69*
X142000Y111000D02*
D03*
X120000D02*
D03*
X131000D02*
D03*
D70*
X142000Y101000D02*
D03*
Y91000D02*
D03*
X120000D02*
D03*
Y101000D02*
D03*
X131000Y91000D02*
D03*
Y101000D02*
D03*
D71*
X133000Y15000D02*
D03*
Y133000D02*
D03*
X15000Y15000D02*
D03*
Y133000D02*
D03*
M02*
