G04*
G04 #@! TF.GenerationSoftware,Altium Limited,Altium Designer,24.1.2 (44)*
G04*
G04 Layer_Color=128*
%FSLAX25Y25*%
%MOIN*%
G70*
G04*
G04 #@! TF.SameCoordinates,BB4A674F-8819-4941-915F-785A2CCA7B01*
G04*
G04*
G04 #@! TF.FilePolarity,Positive*
G04*
G01*
G75*
%ADD26R,0.03740X0.03740*%
%ADD73R,0.10000X0.08000*%
%ADD74R,0.12992X0.05906*%
%ADD75R,0.04724X0.05906*%
%ADD76R,0.01800X0.04400*%
%ADD77R,0.07087X0.07087*%
%ADD78R,0.08000X0.10000*%
%ADD79R,0.10000X0.15000*%
%ADD80R,0.02559X0.06299*%
D26*
X115539Y38000D02*
D03*
X120461D02*
D03*
X99039D02*
D03*
X103961D02*
D03*
D73*
X142500Y30000D02*
D03*
Y66500D02*
D03*
Y52000D02*
D03*
Y40500D02*
D03*
D74*
X111000Y74697D02*
D03*
D75*
X101945Y49500D02*
D03*
X111000D02*
D03*
X120055D02*
D03*
D76*
X25000Y88000D02*
D03*
X30000D02*
D03*
X35000D02*
D03*
X40000D02*
D03*
Y66000D02*
D03*
X35000D02*
D03*
X30000D02*
D03*
X25000D02*
D03*
D77*
X105606Y95894D02*
D03*
Y120106D02*
D03*
X81394D02*
D03*
Y95894D02*
D03*
D78*
X101000Y5400D02*
D03*
X113500D02*
D03*
X82000D02*
D03*
X66000D02*
D03*
X47000D02*
D03*
X34500D02*
D03*
D79*
X5400Y108000D02*
D03*
Y82500D02*
D03*
D80*
X81000Y58024D02*
D03*
X76000D02*
D03*
X71000D02*
D03*
X66000D02*
D03*
Y85976D02*
D03*
X71000D02*
D03*
X76000D02*
D03*
X81000D02*
D03*
M02*
