G04*
G04 #@! TF.GenerationSoftware,Altium Limited,Altium Designer,24.1.2 (44)*
G04*
G04 Layer_Color=8421504*
%FSLAX25Y25*%
%MOIN*%
G70*
G04*
G04 #@! TF.SameCoordinates,BB4A674F-8819-4941-915F-785A2CCA7B01*
G04*
G04*
G04 #@! TF.FilePolarity,Positive*
G04*
G01*
G75*
%ADD16R,0.03543X0.05906*%
%ADD17R,0.05906X0.03543*%
%ADD18R,0.03937X0.03937*%
%ADD19R,0.08661X0.11024*%
%ADD20R,0.02362X0.04528*%
%ADD21R,0.01181X0.04528*%
%ADD22R,0.03937X0.03150*%
%ADD23R,0.03150X0.03150*%
%ADD24R,0.13386X0.10669*%
%ADD25R,0.02559X0.06004*%
%ADD26R,0.03740X0.03740*%
%ADD27R,0.03740X0.03740*%
G04:AMPARAMS|DCode=28|XSize=29.92mil|YSize=26mil|CornerRadius=3.25mil|HoleSize=0mil|Usage=FLASHONLY|Rotation=180.000|XOffset=0mil|YOffset=0mil|HoleType=Round|Shape=RoundedRectangle|*
%AMROUNDEDRECTD28*
21,1,0.02992,0.01950,0,0,180.0*
21,1,0.02342,0.02600,0,0,180.0*
1,1,0.00650,-0.01171,0.00975*
1,1,0.00650,0.01171,0.00975*
1,1,0.00650,0.01171,-0.00975*
1,1,0.00650,-0.01171,-0.00975*
%
%ADD28ROUNDEDRECTD28*%
%ADD29R,0.03150X0.03937*%
%ADD30R,0.03150X0.03150*%
G04:AMPARAMS|DCode=31|XSize=13.78mil|YSize=22.84mil|CornerRadius=3.45mil|HoleSize=0mil|Usage=FLASHONLY|Rotation=180.000|XOffset=0mil|YOffset=0mil|HoleType=Round|Shape=RoundedRectangle|*
%AMROUNDEDRECTD31*
21,1,0.01378,0.01595,0,0,180.0*
21,1,0.00689,0.02284,0,0,180.0*
1,1,0.00689,-0.00345,0.00797*
1,1,0.00689,0.00345,0.00797*
1,1,0.00689,0.00345,-0.00797*
1,1,0.00689,-0.00345,-0.00797*
%
%ADD31ROUNDEDRECTD31*%
G04:AMPARAMS|DCode=32|XSize=13.78mil|YSize=22.84mil|CornerRadius=3.45mil|HoleSize=0mil|Usage=FLASHONLY|Rotation=270.000|XOffset=0mil|YOffset=0mil|HoleType=Round|Shape=RoundedRectangle|*
%AMROUNDEDRECTD32*
21,1,0.01378,0.01595,0,0,270.0*
21,1,0.00689,0.02284,0,0,270.0*
1,1,0.00689,-0.00797,-0.00345*
1,1,0.00689,-0.00797,0.00345*
1,1,0.00689,0.00797,0.00345*
1,1,0.00689,0.00797,-0.00345*
%
%ADD32ROUNDEDRECTD32*%
G04:AMPARAMS|DCode=33|XSize=23.62mil|YSize=43.31mil|CornerRadius=2.36mil|HoleSize=0mil|Usage=FLASHONLY|Rotation=180.000|XOffset=0mil|YOffset=0mil|HoleType=Round|Shape=RoundedRectangle|*
%AMROUNDEDRECTD33*
21,1,0.02362,0.03858,0,0,180.0*
21,1,0.01890,0.04331,0,0,180.0*
1,1,0.00472,-0.00945,0.01929*
1,1,0.00472,0.00945,0.01929*
1,1,0.00472,0.00945,-0.01929*
1,1,0.00472,-0.00945,-0.01929*
%
%ADD33ROUNDEDRECTD33*%
D16*
X101500Y49000D02*
D03*
X96500D02*
D03*
X91500D02*
D03*
X86500D02*
D03*
X81500D02*
D03*
X76500D02*
D03*
X71500D02*
D03*
X66500D02*
D03*
X61500D02*
D03*
X56500D02*
D03*
X51500D02*
D03*
X46500D02*
D03*
D17*
X108449Y118921D02*
D03*
Y113921D02*
D03*
Y108921D02*
D03*
Y103921D02*
D03*
Y98921D02*
D03*
Y93921D02*
D03*
Y88921D02*
D03*
Y83921D02*
D03*
Y78921D02*
D03*
Y73921D02*
D03*
Y68921D02*
D03*
Y63921D02*
D03*
Y58921D02*
D03*
Y53921D02*
D03*
X39551D02*
D03*
Y58921D02*
D03*
Y63921D02*
D03*
Y68921D02*
D03*
Y73921D02*
D03*
Y78921D02*
D03*
Y83921D02*
D03*
Y88921D02*
D03*
Y93921D02*
D03*
Y98921D02*
D03*
Y103921D02*
D03*
Y108921D02*
D03*
Y113921D02*
D03*
Y118921D02*
D03*
D18*
X74551Y103764D02*
D03*
X68646D02*
D03*
X62740D02*
D03*
X74551Y91953D02*
D03*
X68646D02*
D03*
X62740D02*
D03*
X74551Y97858D02*
D03*
X62740D02*
D03*
X68646D02*
D03*
D19*
X123500Y69949D02*
D03*
Y51051D02*
D03*
X10000Y95551D02*
D03*
Y114449D02*
D03*
D20*
X61402Y30039D02*
D03*
X86598D02*
D03*
X64551D02*
D03*
X83449D02*
D03*
D21*
X74984D02*
D03*
X73016D02*
D03*
X76953D02*
D03*
X78921D02*
D03*
X80890D02*
D03*
X71047D02*
D03*
X69079D02*
D03*
X67110D02*
D03*
D22*
X140500Y64047D02*
D03*
Y69953D02*
D03*
X28500Y98547D02*
D03*
Y104453D02*
D03*
D23*
X135000Y64047D02*
D03*
Y69953D02*
D03*
D24*
X40500Y27500D02*
D03*
D25*
X33000Y38177D02*
D03*
X38000D02*
D03*
X43000D02*
D03*
X48000D02*
D03*
Y16823D02*
D03*
X43000D02*
D03*
X38000D02*
D03*
X33000D02*
D03*
D26*
X33039Y8500D02*
D03*
X37961D02*
D03*
X135539Y47500D02*
D03*
X140461D02*
D03*
X102039Y8000D02*
D03*
X106961D02*
D03*
X135539Y54500D02*
D03*
X140461D02*
D03*
D27*
X28500Y116461D02*
D03*
Y111539D02*
D03*
D28*
X22000Y111244D02*
D03*
Y116756D02*
D03*
Y98744D02*
D03*
Y104256D02*
D03*
D29*
X134047Y80500D02*
D03*
X139953D02*
D03*
X92000Y39000D02*
D03*
X86094D02*
D03*
X103047D02*
D03*
X108953D02*
D03*
D30*
X119047Y80500D02*
D03*
X124953D02*
D03*
D31*
X139906Y30933D02*
D03*
X137937D02*
D03*
X135968D02*
D03*
X134000D02*
D03*
X132032D02*
D03*
X130063D02*
D03*
X128094D02*
D03*
Y40067D02*
D03*
X130063D02*
D03*
X132032D02*
D03*
X134000D02*
D03*
X135968D02*
D03*
X137937D02*
D03*
X139906D02*
D03*
D32*
X126480Y35500D02*
D03*
X141520D02*
D03*
D33*
X99618Y23831D02*
D03*
X104539D02*
D03*
X109461D02*
D03*
X114382D02*
D03*
Y15169D02*
D03*
X109461D02*
D03*
X104539D02*
D03*
X99618D02*
D03*
M02*
